<?xml version="1.0" encoding="utf-8" standalone="no"?>
<!DOCTYPE svg PUBLIC "-//W3C//DTD SVG 1.1//EN"
  "http://www.w3.org/Graphics/SVG/1.1/DTD/svg11.dtd">
<svg xmlns:xlink="http://www.w3.org/1999/xlink" width="288pt" height="180pt" viewBox="0 0 288 180" xmlns="http://www.w3.org/2000/svg" version="1.1">
 <metadata>
  <rdf:RDF xmlns:dc="http://purl.org/dc/elements/1.1/" xmlns:cc="http://creativecommons.org/ns#" xmlns:rdf="http://www.w3.org/1999/02/22-rdf-syntax-ns#">
   <cc:Work>
    <dc:type rdf:resource="http://purl.org/dc/dcmitype/StillImage"/>
    <dc:date>2024-11-05T08:35:19.467484</dc:date>
    <dc:format>image/svg+xml</dc:format>
    <dc:creator>
     <cc:Agent>
      <dc:title>Matplotlib v3.9.2, https://matplotlib.org/</dc:title>
     </cc:Agent>
    </dc:creator>
   </cc:Work>
  </rdf:RDF>
 </metadata>
 <defs>
  <style type="text/css">*{stroke-linejoin: round; stroke-linecap: butt}</style>
 </defs>
 <g id="figure_1">
  <g id="patch_1">
   <path d="M 0 180 
L 288 180 
L 288 0 
L 0 0 
z
" style="fill: #ffffff"/>
  </g>
  <g id="axes_1">
   <g id="patch_2">
    <path d="M 36 160.2 
L 259.2 160.2 
L 259.2 21.6 
L 36 21.6 
z
" style="fill: #d62728"/>
   </g>
   <g id="patch_3">
    <path d="M 242.096807 90.9 
L 242.088996 89.907951 
L 242.065564 88.916149 
L 242.026518 87.924838 
L 241.971866 86.934265 
L 241.901623 85.944676 
L 241.815806 84.956315 
L 241.714437 83.969428 
L 241.597539 82.98426 
L 241.465144 82.001055 
L 241.317282 81.020056 
L 241.153991 80.041508 
L 240.975311 79.065652 
L 240.781287 78.09273 
L 240.571967 77.122984 
L 240.347403 76.156655 
L 240.10765 75.193982 
L 239.852768 74.235203 
L 239.582819 73.280557 
L 239.297872 72.33028 
L 238.997996 71.384608 
L 238.683267 70.443775 
L 238.353761 69.508015 
L 238.009561 68.577559 
L 237.650752 67.652639 
L 237.277424 66.733483 
L 236.889668 65.82032 
L 236.48758 64.913376 
L 236.071261 64.012876 
L 235.640814 63.119044 
L 235.196346 62.2321 
L 234.737966 61.352265 
L 234.265788 60.479757 
L 233.77993 59.614793 
L 233.280512 58.757587 
L 232.767658 57.908351 
L 232.241494 57.067296 
L 231.702152 56.234631 
L 231.149765 55.410561 
L 230.58447 54.595293 
L 230.006408 53.789026 
L 229.415721 52.991963 
L 228.812556 52.204299 
L 228.197063 51.426231 
L 227.569395 50.657952 
L 226.929706 49.899651 
L 226.278156 49.151518 
L 225.614906 48.413737 
L 224.94012 47.686491 
L 224.253967 46.969961 
L 223.556616 46.264325 
L 222.84824 45.569757 
L 222.129014 44.88643 
L 221.399118 44.214513 
L 220.658731 43.554172 
L 219.908038 42.905573 
L 219.147225 42.268874 
L 218.376481 41.644235 
L 217.595996 41.03181 
L 216.805964 40.431751 
L 216.006581 39.844206 
L 215.198045 39.269322 
L 214.380557 38.707242 
L 213.55432 38.158103 
L 212.719538 37.622043 
L 211.876418 37.099195 
L 211.025169 36.589688 
L 210.166004 36.093648 
L 209.299133 35.611199 
L 208.424773 35.14246 
L 207.543141 34.687547 
L 206.654454 34.246574 
L 205.758934 33.819649 
L 204.856802 33.406879 
L 203.948282 33.008365 
L 203.0336 32.624207 
L 202.112982 32.254499 
L 201.186656 31.899335 
L 200.254852 31.5588 
L 199.317802 31.232981 
L 198.375737 30.921958 
L 197.428892 30.625808 
L 196.477501 30.344604 
L 195.521799 30.078416 
L 194.562024 29.82731 
L 193.598415 29.591349 
L 192.631209 29.37059 
L 191.660647 29.165089 
L 190.686969 28.974897 
L 189.710417 28.800061 
L 188.731233 28.640624 
L 187.74966 28.496625 
L 186.765941 28.368101 
L 185.78032 28.255083 
L 184.793042 28.157599 
L 183.804351 28.075674 
L 182.814493 28.009327 
L 181.823713 27.958576 
L 180.832256 27.923433 
L 179.840369 27.903906 
L 178.848297 27.9 
L 177.856287 27.911717 
L 176.864584 27.939053 
L 175.873435 27.982002 
L 174.883085 28.040552 
L 173.89378 28.11469 
L 172.905765 28.204398 
L 171.919284 28.309652 
L 170.934584 28.430427 
L 169.951908 28.566692 
L 168.971499 28.718415 
L 167.9936 28.885557 
L 167.018455 29.068077 
L 166.046305 29.265929 
L 165.077391 29.479066 
L 164.111954 29.707433 
L 163.150232 29.950974 
L 162.192464 30.209628 
L 161.238888 30.483333 
L 160.28974 30.772019 
L 159.345256 31.075615 
L 158.405669 31.394046 
L 157.471213 31.727233 
L 156.54212 32.075094 
L 155.618619 32.437541 
L 154.70094 32.814485 
L 153.789311 33.205833 
L 152.883957 33.611488 
L 151.985103 34.031349 
L 151.092972 34.465311 
L 150.207785 34.913268 
L 149.329762 35.375108 
L 148.45912 35.850717 
L 147.596075 36.339977 
L 146.740841 36.842766 
L 145.893631 37.35896 
L 145.054654 37.88843 
L 144.224118 38.431046 
L 143.40223 38.986673 
L 142.589193 39.555173 
L 141.785209 40.136405 
L 140.990477 40.730225 
L 140.205194 41.336486 
L 139.429555 41.955037 
L 138.663753 42.585726 
L 137.907976 43.228395 
L 137.162413 43.882885 
L 136.427249 44.549034 
L 135.702666 45.226678 
L 134.988843 45.915646 
L 134.285957 46.61577 
L 133.594183 47.326875 
L 132.913693 48.048785 
L 132.244655 48.781321 
L 131.587234 49.524302 
L 130.941595 50.277542 
L 130.307897 51.040856 
L 129.686296 51.814054 
L 129.076949 52.596944 
L 128.480004 53.389332 
L 127.895612 54.191022 
L 127.323915 55.001814 
L 126.765057 55.821509 
L 126.219176 56.649902 
L 125.686406 57.486788 
L 125.166881 58.331959 
L 124.660729 59.185207 
L 124.168076 60.046319 
L 123.689043 60.915082 
L 123.22375 61.79128 
L 122.772312 62.674697 
L 122.33484 63.565113 
L 121.911444 64.462307 
L 121.502228 65.366057 
L 121.107295 66.276138 
L 120.72674 67.192326 
L 120.36066 68.114392 
L 120.009145 69.042109 
L 119.672282 69.975246 
L 119.350154 70.913572 
L 119.042842 71.856854 
L 118.750421 72.804858 
L 118.472965 73.757349 
L 118.210542 74.714091 
L 117.963216 75.674847 
L 117.73105 76.639378 
L 117.514101 77.607445 
L 117.312423 78.578809 
L 117.126066 79.553228 
L 116.955075 80.53046 
L 116.799494 81.510264 
L 116.659361 82.492397 
L 116.53471 83.476614 
L 116.425573 84.462672 
L 116.331977 85.450327 
L 116.253945 86.439332 
L 116.191496 87.429444 
L 116.144645 88.420417 
L 116.113405 89.412004 
L 116.097783 90.40396 
L 116.097783 91.39604 
L 116.113405 92.387996 
L 116.144645 93.379583 
L 116.191496 94.370556 
L 116.253945 95.360668 
L 116.331977 96.349673 
L 116.425573 97.337328 
L 116.53471 98.323386 
L 116.659361 99.307603 
L 116.799494 100.289736 
L 116.955075 101.26954 
L 117.126066 102.246772 
L 117.312423 103.221191 
L 117.514101 104.192555 
L 117.73105 105.160622 
L 117.963216 106.125153 
L 118.210542 107.085909 
L 118.472965 108.042651 
L 118.750421 108.995142 
L 119.042842 109.943146 
L 119.350154 110.886428 
L 119.672282 111.824754 
L 120.009145 112.757891 
L 120.36066 113.685608 
L 120.72674 114.607674 
L 121.107295 115.523862 
L 121.502228 116.433943 
L 121.911444 117.337693 
L 122.33484 118.234887 
L 122.772312 119.125303 
L 123.22375 120.00872 
L 123.689043 120.884918 
L 124.168076 121.753681 
L 124.660729 122.614793 
L 125.166881 123.468041 
L 125.686406 124.313212 
L 126.219176 125.150098 
L 126.765057 125.978491 
L 127.323915 126.798186 
L 127.895612 127.608978 
L 128.480004 128.410668 
L 129.076949 129.203056 
L 129.686296 129.985946 
L 130.307897 130.759144 
L 130.941595 131.522458 
L 131.587234 132.275698 
L 132.244655 133.018679 
L 132.913693 133.751215 
L 133.594183 134.473125 
L 134.285957 135.18423 
L 134.988843 135.884354 
L 135.702666 136.573322 
L 136.427249 137.250966 
L 137.162413 137.917115 
L 137.907976 138.571605 
L 138.663753 139.214274 
L 139.429555 139.844963 
L 140.205194 140.463514 
L 140.990477 141.069775 
L 141.785209 141.663595 
L 142.589193 142.244827 
L 143.40223 142.813327 
L 144.224118 143.368954 
L 145.054654 143.91157 
L 145.893631 144.44104 
L 146.740841 144.957234 
L 147.596075 145.460023 
L 148.45912 145.949283 
L 149.329762 146.424892 
L 150.207785 146.886732 
L 151.092972 147.334689 
L 151.985103 147.768651 
L 152.883957 148.188512 
L 153.789311 148.594167 
L 154.70094 148.985515 
L 155.618619 149.362459 
L 156.54212 149.724906 
L 157.471213 150.072767 
L 158.405669 150.405954 
L 159.345256 150.724385 
L 160.28974 151.027981 
L 161.238888 151.316667 
L 162.192464 151.590372 
L 163.150232 151.849026 
L 164.111954 152.092567 
L 165.077391 152.320934 
L 166.046305 152.534071 
L 167.018455 152.731923 
L 167.9936 152.914443 
L 168.971499 153.081585 
L 169.951908 153.233308 
L 170.934584 153.369573 
L 171.919284 153.490348 
L 172.905765 153.595602 
L 173.89378 153.68531 
L 174.883085 153.759448 
L 175.873435 153.817998 
L 176.864584 153.860947 
L 177.856287 153.888283 
L 178.848297 153.9 
L 179.840369 153.896094 
L 180.832256 153.876567 
L 181.823713 153.841424 
L 182.814493 153.790673 
L 183.804351 153.724326 
L 184.793042 153.642401 
L 185.78032 153.544917 
L 186.765941 153.431899 
L 187.74966 153.303375 
L 188.731233 153.159376 
L 189.710417 152.999939 
L 190.686969 152.825103 
L 191.660647 152.634911 
L 192.631209 152.42941 
L 193.598415 152.208651 
L 194.562024 151.97269 
L 195.521799 151.721584 
L 196.477501 151.455396 
L 197.428892 151.174192 
L 198.375737 150.878042 
L 199.317802 150.567019 
L 200.254852 150.2412 
L 201.186656 149.900665 
L 202.112982 149.545501 
L 203.0336 149.175793 
L 203.948282 148.791635 
L 204.856802 148.393121 
L 205.758934 147.980351 
L 206.654454 147.553426 
L 207.543141 147.112453 
L 208.424773 146.65754 
L 209.299133 146.188801 
L 210.166004 145.706352 
L 211.025169 145.210312 
L 211.876418 144.700805 
L 212.719538 144.177957 
L 213.55432 143.641897 
L 214.380557 143.092758 
L 215.198045 142.530678 
L 216.006581 141.955794 
L 216.805964 141.368249 
L 217.595996 140.76819 
L 218.376481 140.155765 
L 219.147225 139.531126 
L 219.908038 138.894427 
L 220.658731 138.245828 
L 221.399118 137.585487 
L 222.129014 136.91357 
L 222.84824 136.230243 
L 223.556616 135.535675 
L 224.253967 134.830039 
L 224.94012 134.113509 
L 225.614906 133.386263 
L 226.278156 132.648482 
L 226.929706 131.900349 
L 227.569395 131.142048 
L 228.197063 130.373769 
L 228.812556 129.595701 
L 229.415721 128.808037 
L 230.006408 128.010974 
L 230.58447 127.204707 
L 231.149765 126.389439 
L 231.702152 125.565369 
L 232.241494 124.732704 
L 232.767658 123.891649 
L 233.280512 123.042413 
L 233.77993 122.185207 
L 234.265788 121.320243 
L 234.737966 120.447735 
L 235.196346 119.5679 
L 235.640814 118.680956 
L 236.071261 117.787124 
L 236.48758 116.886624 
L 236.889668 115.97968 
L 237.277424 115.066517 
L 237.650752 114.147361 
L 238.009561 113.222441 
L 238.353761 112.291985 
L 238.683267 111.356225 
L 238.997996 110.415392 
L 239.297872 109.46972 
L 239.582819 108.519443 
L 239.852768 107.564797 
L 240.10765 106.606018 
L 240.347403 105.643345 
L 240.571967 104.677016 
L 240.781287 103.70727 
L 240.975311 102.734348 
L 241.153991 101.758492 
L 241.317282 100.779944 
L 241.465144 99.798945 
L 241.597539 98.81574 
L 241.714437 97.830572 
L 241.815806 96.843685 
L 241.901623 95.855324 
L 241.971866 94.865735 
L 242.026518 93.875162 
L 242.065564 92.883851 
L 242.088996 91.892049 
L 242.096807 90.9 
z
" clip-path="url(#p4a41e8342d)" style="fill: #ffffff"/>
   </g>
   <g id="matplotlib.axis_1"/>
   <g id="matplotlib.axis_2">
    <g id="ytick_1">
     <g id="line2d_1">
      <defs>
       <path id="mf73b67e6a9" d="M 0 0 
L -3.5 0 
" style="stroke: #000000; stroke-width: 0.8"/>
      </defs>
      <g>
       <use xlink:href="#mf73b67e6a9" x="36" y="153.900488" style="stroke: #000000; stroke-width: 0.8"/>
      </g>
     </g>
     <g id="text_1">
      <!-- −2 -->
      <g transform="translate(14.257812 157.699707) scale(0.1 -0.1)">
       <defs>
        <path id="DejaVuSans-2212" d="M 678 2272 
L 4684 2272 
L 4684 1741 
L 678 1741 
L 678 2272 
z
" transform="scale(0.015625)"/>
        <path id="DejaVuSans-32" d="M 1228 531 
L 3431 531 
L 3431 0 
L 469 0 
L 469 531 
Q 828 903 1448 1529 
Q 2069 2156 2228 2338 
Q 2531 2678 2651 2914 
Q 2772 3150 2772 3378 
Q 2772 3750 2511 3984 
Q 2250 4219 1831 4219 
Q 1534 4219 1204 4116 
Q 875 4013 500 3803 
L 500 4441 
Q 881 4594 1212 4672 
Q 1544 4750 1819 4750 
Q 2544 4750 2975 4387 
Q 3406 4025 3406 3419 
Q 3406 3131 3298 2873 
Q 3191 2616 2906 2266 
Q 2828 2175 2409 1742 
Q 1991 1309 1228 531 
z
" transform="scale(0.015625)"/>
       </defs>
       <use xlink:href="#DejaVuSans-2212"/>
       <use xlink:href="#DejaVuSans-32" x="83.789062"/>
      </g>
     </g>
    </g>
    <g id="ytick_2">
     <g id="line2d_2">
      <g>
       <use xlink:href="#mf73b67e6a9" x="36" y="122.400244" style="stroke: #000000; stroke-width: 0.8"/>
      </g>
     </g>
     <g id="text_2">
      <!-- −1 -->
      <g transform="translate(14.257812 126.199463) scale(0.1 -0.1)">
       <defs>
        <path id="DejaVuSans-31" d="M 794 531 
L 1825 531 
L 1825 4091 
L 703 3866 
L 703 4441 
L 1819 4666 
L 2450 4666 
L 2450 531 
L 3481 531 
L 3481 0 
L 794 0 
L 794 531 
z
" transform="scale(0.015625)"/>
       </defs>
       <use xlink:href="#DejaVuSans-2212"/>
       <use xlink:href="#DejaVuSans-31" x="83.789062"/>
      </g>
     </g>
    </g>
    <g id="ytick_3">
     <g id="line2d_3">
      <g>
       <use xlink:href="#mf73b67e6a9" x="36" y="90.9" style="stroke: #000000; stroke-width: 0.8"/>
      </g>
     </g>
     <g id="text_3">
      <!-- 0 -->
      <g transform="translate(22.6375 94.699219) scale(0.1 -0.1)">
       <defs>
        <path id="DejaVuSans-30" d="M 2034 4250 
Q 1547 4250 1301 3770 
Q 1056 3291 1056 2328 
Q 1056 1369 1301 889 
Q 1547 409 2034 409 
Q 2525 409 2770 889 
Q 3016 1369 3016 2328 
Q 3016 3291 2770 3770 
Q 2525 4250 2034 4250 
z
M 2034 4750 
Q 2819 4750 3233 4129 
Q 3647 3509 3647 2328 
Q 3647 1150 3233 529 
Q 2819 -91 2034 -91 
Q 1250 -91 836 529 
Q 422 1150 422 2328 
Q 422 3509 836 4129 
Q 1250 4750 2034 4750 
z
" transform="scale(0.015625)"/>
       </defs>
       <use xlink:href="#DejaVuSans-30"/>
      </g>
     </g>
    </g>
    <g id="ytick_4">
     <g id="line2d_4">
      <g>
       <use xlink:href="#mf73b67e6a9" x="36" y="59.399756" style="stroke: #000000; stroke-width: 0.8"/>
      </g>
     </g>
     <g id="text_4">
      <!-- 1 -->
      <g transform="translate(22.6375 63.198975) scale(0.1 -0.1)">
       <use xlink:href="#DejaVuSans-31"/>
      </g>
     </g>
    </g>
    <g id="ytick_5">
     <g id="line2d_5">
      <g>
       <use xlink:href="#mf73b67e6a9" x="36" y="27.899512" style="stroke: #000000; stroke-width: 0.8"/>
      </g>
     </g>
     <g id="text_5">
      <!-- 2 -->
      <g transform="translate(22.6375 31.698731) scale(0.1 -0.1)">
       <use xlink:href="#DejaVuSans-32"/>
      </g>
     </g>
    </g>
   </g>
   <g id="line2d_6">
    <path d="M 242.096807 90.9 
L 241.971238 86.924314 
L 241.595031 82.964477 
L 240.969685 79.036273 
L 240.097695 75.155361 
L 238.982535 71.337212 
L 237.628651 67.597046 
L 236.04144 63.949773 
L 234.227228 60.409931 
L 232.193249 56.991631 
L 229.94761 53.7085 
L 227.499263 50.573625 
L 224.857968 47.599503 
L 222.034253 44.79799 
L 219.039375 42.180253 
L 215.885272 39.756726 
L 212.584518 37.537072 
L 209.15027 35.530139 
L 205.596218 33.743925 
L 201.936529 32.185553 
L 198.185793 30.861233 
L 194.358961 29.776246 
L 190.471287 28.934916 
L 186.538269 28.340597 
L 182.575586 27.995658 
L 178.599033 27.901474 
L 174.624462 28.058421 
L 170.667718 28.465873 
L 166.744572 29.122206 
L 162.870664 30.024803 
L 159.061437 31.170066 
L 155.332074 32.55343 
L 151.697443 34.169381 
L 148.172031 36.011477 
L 144.769893 38.072375 
L 141.50459 40.343859 
L 138.389138 42.816874 
L 135.435958 45.481563 
L 132.65682 48.327304 
L 130.062804 51.342751 
L 127.66425 54.515885 
L 125.470719 57.834058 
L 123.490955 61.28404 
L 121.732851 64.852081 
L 120.203415 68.523956 
L 118.908742 72.285028 
L 117.853996 76.120306 
L 117.043379 80.014499 
L 116.480123 83.952086 
L 116.166474 87.917369 
L 116.103681 91.894541 
L 116.291996 95.867749 
L 116.730667 99.821154 
L 117.417946 103.738997 
L 118.351093 107.605659 
L 119.526388 111.405728 
L 120.939147 115.124055 
L 122.583737 118.745818 
L 124.453603 122.25658 
L 126.54129 125.642344 
L 128.838478 128.889616 
L 131.336008 131.98545 
L 134.023924 134.917505 
L 136.891513 137.674094 
L 139.927342 140.244227 
L 143.11931 142.61766 
L 146.454693 144.784931 
L 149.920195 146.737401 
L 153.502002 148.467286 
L 157.185835 149.967692 
L 160.95701 151.232636 
L 164.800493 152.257077 
L 168.700964 153.03693 
L 172.642874 153.569088 
L 176.610509 153.851428 
L 180.588053 153.882825 
L 184.559651 153.663154 
L 188.50947 153.193291 
L 192.421765 152.475109 
L 196.280942 151.51147 
L 200.071616 150.306216 
L 203.778675 148.864151 
L 207.387344 147.191024 
L 210.883237 145.293505 
L 214.252417 143.179157 
L 217.481455 140.856409 
L 220.557479 138.334521 
L 223.468226 135.623544 
L 226.202094 132.734286 
L 228.748184 129.678265 
L 231.096347 126.467662 
L 233.237223 123.115275 
L 235.162278 119.63447 
L 236.863837 116.03912 
L 238.335118 112.343558 
L 239.570256 108.562516 
L 240.564326 104.711066 
L 241.313368 100.804561 
L 241.814394 96.858574 
L 242.065407 92.888834 
L 242.096807 90.9 
L 242.096807 90.9 
" clip-path="url(#p4a41e8342d)" style="fill: none; stroke: #0000ff; stroke-width: 1.5; stroke-linecap: square"/>
   </g>
   <g id="line2d_7">
    <path d="M 179.096319 90.9 
L 178.97075 86.924314 
L 178.594543 82.964477 
L 177.969197 79.036273 
L 177.097207 75.155361 
L 175.982047 71.337212 
L 174.628162 67.597046 
L 173.040951 63.949773 
L 171.22674 60.409931 
L 169.192761 56.991631 
L 166.947122 53.7085 
L 164.498775 50.573625 
L 161.85748 47.599503 
L 159.033765 44.79799 
L 156.038887 42.180253 
L 152.884784 39.756726 
L 149.58403 37.537072 
L 146.149781 35.530139 
L 142.595729 33.743925 
L 138.936041 32.185553 
L 135.185305 30.861233 
L 131.358473 29.776246 
L 127.470799 28.934916 
L 123.537781 28.340597 
L 119.575098 27.995658 
L 115.598545 27.901474 
L 111.623974 28.058421 
L 107.66723 28.465873 
L 103.744084 29.122206 
L 99.870176 30.024803 
L 96.060949 31.170066 
L 92.331586 32.55343 
L 88.696954 34.169381 
L 85.171543 36.011477 
L 81.769405 38.072375 
L 78.504102 40.343859 
L 75.38865 42.816874 
L 72.43547 45.481563 
L 69.656332 48.327304 
L 67.062316 51.342751 
L 64.663762 54.515885 
L 62.470231 57.834058 
L 60.490467 61.28404 
L 58.732363 64.852081 
L 57.202926 68.523956 
L 55.908254 72.285028 
L 54.853507 76.120306 
L 54.04289 80.014499 
L 53.479635 83.952086 
L 53.165985 87.917369 
L 53.103193 91.894541 
L 53.291508 95.867749 
L 53.730179 99.821154 
L 54.417458 103.738997 
L 55.350605 107.605659 
L 56.5259 111.405728 
L 57.938659 115.124055 
L 59.583249 118.745818 
L 61.453114 122.25658 
L 63.540802 125.642344 
L 65.83799 128.889616 
L 68.33552 131.98545 
L 71.023436 134.917505 
L 73.891025 137.674094 
L 76.926854 140.244227 
L 80.118822 142.61766 
L 83.454205 144.784931 
L 86.919707 146.737401 
L 90.501514 148.467286 
L 94.185347 149.967692 
L 97.956522 151.232636 
L 101.800005 152.257077 
L 105.700476 153.03693 
L 109.642385 153.569088 
L 113.61002 153.851428 
L 117.587565 153.882825 
L 121.559162 153.663154 
L 125.508982 153.193291 
L 129.421277 152.475109 
L 133.280454 151.51147 
L 137.071127 150.306216 
L 140.778187 148.864151 
L 144.386856 147.191024 
L 147.882748 145.293505 
L 151.251929 143.179157 
L 154.480967 140.856409 
L 157.55699 138.334521 
L 160.467738 135.623544 
L 163.201605 132.734286 
L 165.747696 129.678265 
L 168.095859 126.467662 
L 170.236735 123.115275 
L 172.16179 119.63447 
L 173.863349 116.03912 
L 175.33463 112.343558 
L 176.569767 108.562516 
L 177.563838 104.711066 
L 178.31288 100.804561 
L 178.813905 96.858574 
L 179.064919 92.888834 
L 179.096319 90.9 
L 179.096319 90.9 
" clip-path="url(#p4a41e8342d)" style="fill: none; stroke: #008000; stroke-width: 1.5; stroke-linecap: square"/>
   </g>
   <g id="patch_4">
    <path d="M 36 160.2 
L 36 21.6 
" style="fill: none; stroke: #000000; stroke-width: 0.8; stroke-linejoin: miter; stroke-linecap: square"/>
   </g>
   <g id="patch_5">
    <path d="M 259.2 160.2 
L 259.2 21.6 
" style="fill: none; stroke: #000000; stroke-width: 0.8; stroke-linejoin: miter; stroke-linecap: square"/>
   </g>
   <g id="patch_6">
    <path d="M 36 160.2 
L 259.2 160.2 
" style="fill: none; stroke: #000000; stroke-width: 0.8; stroke-linejoin: miter; stroke-linecap: square"/>
   </g>
   <g id="patch_7">
    <path d="M 36 21.6 
L 259.2 21.6 
" style="fill: none; stroke: #000000; stroke-width: 0.8; stroke-linejoin: miter; stroke-linecap: square"/>
   </g>
   <g id="text_6">
    <!-- $A$ -->
    <g style="fill: #1f77b4" transform="translate(210.596563 34.199561) scale(0.1 -0.1)">
     <defs>
      <path id="DejaVuSans-Oblique-41" d="M 2356 4666 
L 3072 4666 
L 3938 0 
L 3278 0 
L 3084 1197 
L 984 1197 
L 325 0 
L -341 0 
L 2356 4666 
z
M 2584 4044 
L 1275 1722 
L 2988 1722 
L 2584 4044 
z
" transform="scale(0.015625)"/>
     </defs>
     <use xlink:href="#DejaVuSans-Oblique-41" transform="translate(0 0.09375)"/>
    </g>
   </g>
   <g id="text_7">
    <!-- $B$ -->
    <g style="fill: #2ca02c" transform="translate(78.295538 34.199561) scale(0.1 -0.1)">
     <defs>
      <path id="DejaVuSans-Oblique-42" d="M 1081 4666 
L 2694 4666 
Q 3350 4666 3675 4422 
Q 4000 4178 4000 3688 
Q 4000 3238 3720 2911 
Q 3441 2584 2988 2516 
Q 3375 2428 3569 2181 
Q 3763 1934 3763 1522 
Q 3763 819 3242 409 
Q 2722 0 1819 0 
L 172 0 
L 1081 4666 
z
M 1234 2228 
L 903 519 
L 1919 519 
Q 2491 519 2800 781 
Q 3109 1044 3109 1522 
Q 3109 1891 2904 2059 
Q 2700 2228 2247 2228 
L 1234 2228 
z
M 1606 4147 
L 1331 2741 
L 2272 2741 
Q 2775 2741 3058 2959 
Q 3341 3178 3341 3566 
Q 3341 3869 3150 4008 
Q 2959 4147 2541 4147 
L 1606 4147 
z
" transform="scale(0.015625)"/>
     </defs>
     <use xlink:href="#DejaVuSans-Oblique-42" transform="translate(0 0.09375)"/>
    </g>
   </g>
   <g id="text_8">
    <!-- $A^c$ -->
    <g style="fill: #ffffff" transform="translate(134.995977 31.049536) scale(0.1 -0.1)">
     <defs>
      <path id="DejaVuSans-Oblique-63" d="M 3431 3366 
L 3316 2797 
Q 3109 2947 2876 3022 
Q 2644 3097 2394 3097 
Q 2119 3097 1870 3000 
Q 1622 2903 1453 2725 
Q 1184 2453 1037 2087 
Q 891 1722 891 1331 
Q 891 859 1127 628 
Q 1363 397 1844 397 
Q 2081 397 2348 469 
Q 2616 541 2906 684 
L 2797 116 
Q 2547 13 2283 -39 
Q 2019 -91 1741 -91 
Q 1044 -91 669 257 
Q 294 606 294 1253 
Q 294 1797 489 2255 
Q 684 2713 1069 3078 
Q 1331 3328 1684 3456 
Q 2038 3584 2456 3584 
Q 2700 3584 2940 3529 
Q 3181 3475 3431 3366 
z
" transform="scale(0.015625)"/>
     </defs>
     <use xlink:href="#DejaVuSans-Oblique-41" transform="translate(0 0.51875)"/>
     <use xlink:href="#DejaVuSans-Oblique-63" transform="translate(75.424974 38.8) scale(0.7)"/>
    </g>
   </g>
  </g>
 </g>
 <defs>
  <clipPath id="p4a41e8342d">
   <rect x="36" y="21.6" width="223.2" height="138.6"/>
  </clipPath>
 </defs>
</svg>
