<?xml version="1.0" encoding="utf-8" standalone="no"?>
<!DOCTYPE svg PUBLIC "-//W3C//DTD SVG 1.1//EN"
  "http://www.w3.org/Graphics/SVG/1.1/DTD/svg11.dtd">
<svg xmlns:xlink="http://www.w3.org/1999/xlink" width="288pt" height="180pt" viewBox="0 0 288 180" xmlns="http://www.w3.org/2000/svg" version="1.1">
 <metadata>
  <rdf:RDF xmlns:dc="http://purl.org/dc/elements/1.1/" xmlns:cc="http://creativecommons.org/ns#" xmlns:rdf="http://www.w3.org/1999/02/22-rdf-syntax-ns#">
   <cc:Work>
    <dc:type rdf:resource="http://purl.org/dc/dcmitype/StillImage"/>
    <dc:date>2024-11-05T08:35:19.373106</dc:date>
    <dc:format>image/svg+xml</dc:format>
    <dc:creator>
     <cc:Agent>
      <dc:title>Matplotlib v3.9.2, https://matplotlib.org/</dc:title>
     </cc:Agent>
    </dc:creator>
   </cc:Work>
  </rdf:RDF>
 </metadata>
 <defs>
  <style type="text/css">*{stroke-linejoin: round; stroke-linecap: butt}</style>
 </defs>
 <g id="figure_1">
  <g id="patch_1">
   <path d="M 0 180 
L 288 180 
L 288 0 
L 0 0 
z
" style="fill: #ffffff"/>
  </g>
  <g id="axes_1">
   <g id="patch_2">
    <path d="M 36 160.2 
L 259.2 160.2 
L 259.2 21.6 
L 36 21.6 
z
" style="fill: #ffffff"/>
   </g>
   <g id="patch_3">
    <path d="M 147.596075 36.3387 
L 147.023594 36.673251 
L 146.454666 37.013808 
L 145.889354 37.360334 
L 145.32772 37.712791 
L 144.769827 38.071138 
L 144.215735 38.435338 
L 143.665508 38.805349 
L 143.119205 39.18113 
L 142.576887 39.562639 
L 142.038615 39.949836 
L 141.504447 40.342675 
L 140.974443 40.741115 
L 140.448662 41.145111 
L 139.927162 41.554618 
L 139.410001 41.969591 
L 138.897235 42.389983 
L 138.388923 42.815749 
L 137.885119 43.246841 
L 137.385881 43.683211 
L 136.891262 44.124811 
L 136.401319 44.571593 
L 135.916104 45.023506 
L 135.435673 45.4805 
L 134.960078 45.942526 
L 134.489372 46.409531 
L 134.023607 46.881464 
L 133.562834 47.358274 
L 133.107105 47.839906 
L 132.65647 48.326307 
L 132.21098 48.817425 
L 131.770682 49.313203 
L 131.335627 49.813588 
L 130.905862 50.318524 
L 130.481435 50.827956 
L 130.062394 51.341825 
L 129.648783 51.860077 
L 129.24065 52.382653 
L 128.838039 52.909495 
L 128.440995 53.440545 
L 128.049562 53.975744 
L 127.663783 54.515034 
L 127.283702 55.058354 
L 126.909359 55.605643 
L 126.540798 56.156842 
L 126.178057 56.71189 
L 125.821179 57.270724 
L 125.470201 57.833284 
L 125.125164 58.399506 
L 124.786104 58.969328 
L 124.453061 59.542686 
L 124.12607 60.119519 
L 123.805169 60.69976 
L 123.490391 61.283347 
L 123.181773 61.870214 
L 122.879349 62.460297 
L 122.583151 63.05353 
L 122.293214 63.649847 
L 122.009568 64.249183 
L 121.732246 64.851471 
L 121.461278 65.456644 
L 121.196694 66.064635 
L 120.938523 66.675378 
L 120.686794 67.288803 
L 120.441535 67.904844 
L 120.202773 68.523432 
L 119.970535 69.144499 
L 119.744846 69.767975 
L 119.525731 70.393792 
L 119.313215 71.02188 
L 119.107321 71.652171 
L 118.908071 72.284593 
L 118.715488 72.919077 
L 118.529594 73.555553 
L 118.350408 74.19395 
L 118.177952 74.834197 
L 118.012242 75.476224 
L 117.853299 76.11996 
L 117.70114 76.765332 
L 117.555782 77.412271 
L 117.41724 78.060703 
L 117.28553 78.710557 
L 117.160666 79.361762 
L 117.042663 80.014245 
L 116.931534 80.667933 
L 116.827291 81.322755 
L 116.729945 81.978637 
L 116.639507 82.635508 
L 116.555987 83.293294 
L 116.479394 83.951923 
L 116.409738 84.611322 
L 116.347025 85.271416 
L 116.291263 85.932135 
L 116.242458 86.593404 
L 116.200614 87.255149 
L 116.165738 87.917299 
L 116.137832 88.579779 
L 116.1169 89.242515 
L 116.102944 89.905436 
L 116.095966 90.568466 
L 116.095966 91.231534 
L 116.102944 91.894564 
L 116.1169 92.557485 
L 116.137832 93.220221 
L 116.165738 93.882701 
L 116.200614 94.544851 
L 116.242458 95.206596 
L 116.291263 95.867865 
L 116.347025 96.528584 
L 116.409738 97.188678 
L 116.479394 97.848077 
L 116.555987 98.506706 
L 116.639507 99.164492 
L 116.729945 99.821363 
L 116.827291 100.477245 
L 116.931534 101.132067 
L 117.042663 101.785755 
L 117.160666 102.438238 
L 117.28553 103.089443 
L 117.41724 103.739297 
L 117.555782 104.387729 
L 117.70114 105.034668 
L 117.853299 105.68004 
L 118.012242 106.323776 
L 118.177952 106.965803 
L 118.350408 107.60605 
L 118.529594 108.244447 
L 118.715488 108.880923 
L 118.908071 109.515407 
L 119.107321 110.147829 
L 119.313215 110.77812 
L 119.525731 111.406208 
L 119.744846 112.032025 
L 119.970535 112.655501 
L 120.202773 113.276568 
L 120.441535 113.895156 
L 120.686794 114.511197 
L 120.938523 115.124622 
L 121.196694 115.735365 
L 121.461278 116.343356 
L 121.732246 116.948529 
L 122.009568 117.550817 
L 122.293214 118.150153 
L 122.583151 118.74647 
L 122.879349 119.339703 
L 123.181773 119.929786 
L 123.490391 120.516653 
L 123.805169 121.10024 
L 124.12607 121.680481 
L 124.453061 122.257314 
L 124.786104 122.830672 
L 125.125164 123.400494 
L 125.470201 123.966716 
L 125.821179 124.529276 
L 126.178057 125.08811 
L 126.540798 125.643158 
L 126.909359 126.194357 
L 127.283702 126.741646 
L 127.663783 127.284966 
L 128.049562 127.824256 
L 128.440995 128.359455 
L 128.838039 128.890505 
L 129.24065 129.417347 
L 129.648783 129.939923 
L 130.062394 130.458175 
L 130.481435 130.972044 
L 130.905862 131.481476 
L 131.335627 131.986412 
L 131.770682 132.486797 
L 132.21098 132.982575 
L 132.65647 133.473693 
L 133.107105 133.960094 
L 133.562834 134.441726 
L 134.023607 134.918536 
L 134.489372 135.390469 
L 134.960078 135.857474 
L 135.435673 136.3195 
L 135.916104 136.776494 
L 136.401319 137.228407 
L 136.891262 137.675189 
L 137.385881 138.116789 
L 137.885119 138.553159 
L 138.388923 138.984251 
L 138.897235 139.410017 
L 139.410001 139.830409 
L 139.927162 140.245382 
L 140.448662 140.654889 
L 140.974443 141.058885 
L 141.504447 141.457325 
L 142.038615 141.850164 
L 142.576887 142.237361 
L 143.119205 142.61887 
L 143.665508 142.994651 
L 144.215735 143.364662 
L 144.769827 143.728862 
L 145.32772 144.087209 
L 145.889354 144.439666 
L 146.454666 144.786192 
L 147.023594 145.126749 
L 147.596075 145.4613 
L 147.596075 145.4613 
L 148.168555 145.126749 
L 148.737483 144.786192 
L 149.302795 144.439666 
L 149.864429 144.087209 
L 150.422323 143.728862 
L 150.976414 143.364662 
L 151.526641 142.994651 
L 152.072944 142.61887 
L 152.615262 142.237361 
L 153.153534 141.850164 
L 153.687702 141.457325 
L 154.217706 141.058885 
L 154.743487 140.654889 
L 155.264987 140.245382 
L 155.782148 139.830409 
L 156.294914 139.410017 
L 156.803226 138.984251 
L 157.30703 138.553159 
L 157.806269 138.116789 
L 158.300887 137.675189 
L 158.790831 137.228407 
L 159.276045 136.776494 
L 159.756476 136.3195 
L 160.232071 135.857474 
L 160.702777 135.390469 
L 161.168543 134.918536 
L 161.629315 134.441726 
L 162.085044 133.960094 
L 162.535679 133.473693 
L 162.98117 132.982575 
L 163.421467 132.486797 
L 163.856522 131.986412 
L 164.286287 131.481476 
L 164.710714 130.972044 
L 165.129756 130.458175 
L 165.543366 129.939923 
L 165.9515 129.417347 
L 166.354111 128.890505 
L 166.751154 128.359455 
L 167.142587 127.824256 
L 167.528366 127.284966 
L 167.908448 126.741646 
L 168.28279 126.194357 
L 168.651352 125.643158 
L 169.014092 125.08811 
L 169.370971 124.529276 
L 169.721948 123.966716 
L 170.066986 123.400494 
L 170.406045 122.830672 
L 170.739088 122.257314 
L 171.066079 121.680481 
L 171.386981 121.10024 
L 171.701758 120.516653 
L 172.010376 119.929786 
L 172.3128 119.339703 
L 172.608998 118.74647 
L 172.898935 118.150153 
L 173.182581 117.550817 
L 173.459903 116.948529 
L 173.730872 116.343356 
L 173.995456 115.735365 
L 174.253626 115.124622 
L 174.505355 114.511197 
L 174.750614 113.895156 
L 174.989376 113.276568 
L 175.221614 112.655501 
L 175.447303 112.032025 
L 175.666418 111.406208 
L 175.878934 110.77812 
L 176.084829 110.147829 
L 176.284078 109.515407 
L 176.476661 108.880923 
L 176.662555 108.244447 
L 176.841741 107.60605 
L 177.014198 106.965803 
L 177.179907 106.323776 
L 177.33885 105.68004 
L 177.491009 105.034668 
L 177.636368 104.387729 
L 177.77491 103.739297 
L 177.90662 103.089443 
L 178.031483 102.438238 
L 178.149486 101.785755 
L 178.260615 101.132067 
L 178.364859 100.477245 
L 178.462205 99.821363 
L 178.552643 99.164492 
L 178.636162 98.506706 
L 178.712755 97.848077 
L 178.782411 97.188678 
L 178.845124 96.528584 
L 178.900886 95.867865 
L 178.949692 95.206596 
L 178.991535 94.544851 
L 179.026411 93.882701 
L 179.054317 93.220221 
L 179.075249 92.557485 
L 179.089205 91.894564 
L 179.096184 91.231534 
L 179.096184 90.568466 
L 179.089205 89.905436 
L 179.075249 89.242515 
L 179.054317 88.579779 
L 179.026411 87.917299 
L 178.991535 87.255149 
L 178.949692 86.593404 
L 178.900886 85.932135 
L 178.845124 85.271416 
L 178.782411 84.611322 
L 178.712755 83.951923 
L 178.636162 83.293294 
L 178.552643 82.635508 
L 178.462205 81.978637 
L 178.364859 81.322755 
L 178.260615 80.667933 
L 178.149486 80.014245 
L 178.031483 79.361762 
L 177.90662 78.710557 
L 177.77491 78.060703 
L 177.636368 77.412271 
L 177.491009 76.765332 
L 177.33885 76.11996 
L 177.179907 75.476224 
L 177.014198 74.834197 
L 176.841741 74.19395 
L 176.662555 73.555553 
L 176.476661 72.919077 
L 176.284078 72.284593 
L 176.084829 71.652171 
L 175.878934 71.02188 
L 175.666418 70.393792 
L 175.447303 69.767975 
L 175.221614 69.144499 
L 174.989376 68.523432 
L 174.750614 67.904844 
L 174.505355 67.288803 
L 174.253626 66.675378 
L 173.995456 66.064635 
L 173.730872 65.456644 
L 173.459903 64.851471 
L 173.182581 64.249183 
L 172.898935 63.649847 
L 172.608998 63.05353 
L 172.3128 62.460297 
L 172.010376 61.870214 
L 171.701758 61.283347 
L 171.386981 60.69976 
L 171.066079 60.119519 
L 170.739088 59.542686 
L 170.406045 58.969328 
L 170.066986 58.399506 
L 169.721948 57.833284 
L 169.370971 57.270724 
L 169.014092 56.71189 
L 168.651352 56.156842 
L 168.28279 55.605643 
L 167.908448 55.058354 
L 167.528366 54.515034 
L 167.142587 53.975744 
L 166.751154 53.440545 
L 166.354111 52.909495 
L 165.9515 52.382653 
L 165.543366 51.860077 
L 165.129756 51.341825 
L 164.710714 50.827956 
L 164.286287 50.318524 
L 163.856522 49.813588 
L 163.421467 49.313203 
L 162.98117 48.817425 
L 162.535679 48.326307 
L 162.085044 47.839906 
L 161.629315 47.358274 
L 161.168543 46.881464 
L 160.702777 46.409531 
L 160.232071 45.942526 
L 159.756476 45.4805 
L 159.276045 45.023506 
L 158.790831 44.571593 
L 158.300887 44.124811 
L 157.806269 43.683211 
L 157.30703 43.246841 
L 156.803226 42.815749 
L 156.294914 42.389983 
L 155.782148 41.969591 
L 155.264987 41.554618 
L 154.743487 41.145111 
L 154.217706 40.741115 
L 153.687702 40.342675 
L 153.153534 39.949836 
L 152.615262 39.562639 
L 152.072944 39.18113 
L 151.526641 38.805349 
L 150.976414 38.435338 
L 150.422323 38.071138 
L 149.864429 37.712791 
L 149.302795 37.360334 
L 148.737483 37.013808 
L 148.168555 36.673251 
L 147.596075 36.3387 
z
" clip-path="url(#pa06700e9aa)" style="fill: #ff0000"/>
   </g>
   <g id="matplotlib.axis_1"/>
   <g id="matplotlib.axis_2"/>
   <g id="line2d_1">
    <path d="M 242.099019 90.9 
L 241.973447 86.924221 
L 241.597231 82.964291 
L 240.971871 79.035995 
L 240.09986 75.154993 
L 238.984674 71.336755 
L 237.630758 67.596501 
L 236.043509 63.949142 
L 234.229256 60.409217 
L 232.195229 56.990838 
L 229.949538 53.70763 
L 227.501133 50.572682 
L 224.859776 47.59849 
L 222.035995 44.796911 
L 219.041047 42.179112 
L 215.88687 39.755529 
L 212.586039 37.535823 
L 209.15171 35.528843 
L 205.597575 33.742588 
L 201.937801 32.184179 
L 198.186977 30.859828 
L 194.360055 29.774816 
L 190.47229 28.933466 
L 186.539181 28.339133 
L 182.576404 27.994186 
L 178.599758 27.9 
L 174.625095 28.056951 
L 170.668258 28.464412 
L 166.74502 29.12076 
L 162.871022 30.023378 
L 159.061705 31.168668 
L 155.332255 32.552065 
L 151.697538 34.168054 
L 148.172044 36.010193 
L 144.769827 38.071138 
L 141.504447 40.342675 
L 138.388923 42.815749 
L 135.435673 45.4805 
L 132.65647 48.326307 
L 130.062394 51.341825 
L 127.663783 54.515034 
L 125.470201 57.833284 
L 123.490391 61.283347 
L 121.732246 64.851471 
L 120.202773 68.523432 
L 118.908071 72.284593 
L 117.853299 76.11996 
L 117.042663 80.014245 
L 116.479394 83.951923 
L 116.165738 87.917299 
L 116.102944 91.894564 
L 116.291263 95.867865 
L 116.729945 99.821363 
L 117.41724 103.739297 
L 118.350408 107.60605 
L 119.525731 111.406208 
L 120.938523 115.124622 
L 122.583151 118.74647 
L 124.453061 122.257314 
L 126.540798 125.643158 
L 128.838039 128.890505 
L 131.335627 131.986412 
L 134.023607 134.918536 
L 136.891262 137.675189 
L 139.927162 140.245382 
L 143.119205 142.61887 
L 146.454666 144.786192 
L 149.920249 146.738708 
L 153.50214 148.468634 
L 157.186059 149.969074 
L 160.957322 151.234048 
L 164.800896 152.258513 
L 168.701458 153.038385 
L 172.64346 153.570554 
L 176.611188 153.852901 
L 180.588825 153.884299 
L 184.560516 153.664623 
L 188.510427 153.194749 
L 192.422814 152.47655 
L 196.282081 151.512888 
L 200.072844 150.307606 
L 203.77999 148.865508 
L 207.388743 147.192342 
L 210.884718 145.294778 
L 214.253977 143.180381 
L 217.483091 140.857579 
L 220.559186 138.335631 
L 223.470001 135.624591 
L 226.203933 132.735265 
L 228.750083 129.679172 
L 231.098302 126.468494 
L 233.239228 123.116029 
L 235.164327 119.635142 
L 236.865926 116.039708 
L 238.337242 112.34406 
L 239.572408 108.56293 
L 240.566502 104.71139 
L 241.315561 100.804793 
L 241.816599 96.858714 
L 242.067618 92.888881 
L 242.099019 90.9 
L 242.099019 90.9 
" clip-path="url(#pa06700e9aa)" style="fill: none; stroke: #0000ff; stroke-width: 1.5; stroke-linecap: square"/>
   </g>
   <g id="line2d_2">
    <path d="M 179.097056 90.9 
L 178.971484 86.924221 
L 178.595268 82.964291 
L 177.969908 79.035995 
L 177.097897 75.154993 
L 175.982711 71.336755 
L 174.628795 67.596501 
L 173.041547 63.949142 
L 171.227293 60.409217 
L 169.193267 56.990838 
L 166.947575 53.70763 
L 164.499171 50.572682 
L 161.857813 47.59849 
L 159.034032 44.796911 
L 156.039084 42.179112 
L 152.884908 39.755529 
L 149.584076 37.535823 
L 146.149747 35.528843 
L 142.595612 33.742588 
L 138.935838 32.184179 
L 135.185014 30.859828 
L 131.358092 29.774816 
L 127.470328 28.933466 
L 123.537218 28.339133 
L 119.574442 27.994186 
L 115.597796 27.9 
L 111.623132 28.056951 
L 107.666295 28.464412 
L 103.743058 29.12076 
L 99.869059 30.023378 
L 96.059742 31.168668 
L 92.330292 32.552065 
L 88.695576 34.168054 
L 85.170082 36.010193 
L 81.767864 38.071138 
L 78.502484 40.342675 
L 75.38696 42.815749 
L 72.43371 45.4805 
L 69.654508 48.326307 
L 67.060431 51.341825 
L 64.661821 54.515034 
L 62.468238 57.833284 
L 60.488429 61.283347 
L 58.730283 64.851471 
L 57.200811 68.523432 
L 55.906108 72.284593 
L 54.851337 76.11996 
L 54.040701 80.014245 
L 53.477432 83.951923 
L 53.163775 87.917299 
L 53.100981 91.894564 
L 53.2893 95.867865 
L 53.727982 99.821363 
L 54.415277 103.739297 
L 55.348446 107.60605 
L 56.523769 111.406208 
L 57.93656 115.124622 
L 59.581189 118.74647 
L 61.451098 122.257314 
L 63.538835 125.643158 
L 65.836076 128.890505 
L 68.333664 131.986412 
L 71.021644 134.918536 
L 73.889299 137.675189 
L 76.9252 140.245382 
L 80.117242 142.61887 
L 83.452703 144.786192 
L 86.918287 146.738708 
L 90.500177 148.468634 
L 94.184097 149.969074 
L 97.95536 151.234048 
L 101.798933 152.258513 
L 105.699495 153.038385 
L 109.641497 153.570554 
L 113.609225 153.852901 
L 117.586862 153.884299 
L 121.558553 153.664623 
L 125.508465 153.194749 
L 129.420852 152.47655 
L 133.280119 151.512888 
L 137.070881 150.307606 
L 140.778028 148.865508 
L 144.386781 147.192342 
L 147.882755 145.294778 
L 151.252014 143.180381 
L 154.481128 140.857579 
L 157.557223 138.335631 
L 160.468039 135.624591 
L 163.201971 132.735265 
L 165.74812 129.679172 
L 168.096339 126.468494 
L 170.237265 123.116029 
L 172.162365 119.635142 
L 173.863964 116.039708 
L 175.335279 112.34406 
L 176.570445 108.56293 
L 177.56454 104.71139 
L 178.313598 100.804793 
L 178.814636 96.858714 
L 179.065655 92.888881 
L 179.097056 90.9 
L 179.097056 90.9 
" clip-path="url(#pa06700e9aa)" style="fill: none; stroke: #008000; stroke-width: 1.5; stroke-linecap: square"/>
   </g>
   <g id="patch_4">
    <path d="M 36 160.2 
L 36 21.6 
" style="fill: none; stroke: #000000; stroke-width: 0.8; stroke-linejoin: miter; stroke-linecap: square"/>
   </g>
   <g id="patch_5">
    <path d="M 259.2 160.2 
L 259.2 21.6 
" style="fill: none; stroke: #000000; stroke-width: 0.8; stroke-linejoin: miter; stroke-linecap: square"/>
   </g>
   <g id="patch_6">
    <path d="M 36 160.2 
L 259.2 160.2 
" style="fill: none; stroke: #000000; stroke-width: 0.8; stroke-linejoin: miter; stroke-linecap: square"/>
   </g>
   <g id="patch_7">
    <path d="M 36 21.6 
L 259.2 21.6 
" style="fill: none; stroke: #000000; stroke-width: 0.8; stroke-linejoin: miter; stroke-linecap: square"/>
   </g>
   <g id="text_1">
    <!-- $A$ -->
    <g style="fill: #1f77b4" transform="translate(210.598037 34.198234) scale(0.1 -0.1)">
     <defs>
      <path id="DejaVuSans-Oblique-41" d="M 2356 4666 
L 3072 4666 
L 3938 0 
L 3278 0 
L 3084 1197 
L 984 1197 
L 325 0 
L -341 0 
L 2356 4666 
z
M 2584 4044 
L 1275 1722 
L 2988 1722 
L 2584 4044 
z
" transform="scale(0.015625)"/>
     </defs>
     <use xlink:href="#DejaVuSans-Oblique-41" transform="translate(0 0.09375)"/>
    </g>
   </g>
   <g id="text_2">
    <!-- $B$ -->
    <g style="fill: #2ca02c" transform="translate(78.293916 34.198234) scale(0.1 -0.1)">
     <defs>
      <path id="DejaVuSans-Oblique-42" d="M 1081 4666 
L 2694 4666 
Q 3350 4666 3675 4422 
Q 4000 4178 4000 3688 
Q 4000 3238 3720 2911 
Q 3441 2584 2988 2516 
Q 3375 2428 3569 2181 
Q 3763 1934 3763 1522 
Q 3763 819 3242 409 
Q 2722 0 1819 0 
L 172 0 
L 1081 4666 
z
M 1234 2228 
L 903 519 
L 1919 519 
Q 2491 519 2800 781 
Q 3109 1044 3109 1522 
Q 3109 1891 2904 2059 
Q 2700 2228 2247 2228 
L 1234 2228 
z
M 1606 4147 
L 1331 2741 
L 2272 2741 
Q 2775 2741 3058 2959 
Q 3341 3178 3341 3566 
Q 3341 3869 3150 4008 
Q 2959 4147 2541 4147 
L 1606 4147 
z
" transform="scale(0.015625)"/>
     </defs>
     <use xlink:href="#DejaVuSans-Oblique-42" transform="translate(0 0.09375)"/>
    </g>
   </g>
   <g id="text_3">
    <!-- $A \cap B$ -->
    <g style="fill: #d62728" transform="translate(134.995682 31.048135) scale(0.1 -0.1)">
     <defs>
      <path id="DejaVuSans-2229" d="M 825 1850 
Q 825 2775 1208 3240 
Q 1591 3706 2344 3706 
Q 3094 3706 3476 3240 
Q 3859 2775 3859 1850 
L 3859 0 
L 3322 0 
L 3322 1772 
Q 3322 2534 3090 2864 
Q 2859 3194 2344 3194 
Q 1825 3194 1594 2864 
Q 1363 2534 1363 1772 
L 1363 0 
L 825 0 
L 825 1850 
z
" transform="scale(0.015625)"/>
     </defs>
     <use xlink:href="#DejaVuSans-Oblique-41" transform="translate(0 0.09375)"/>
     <use xlink:href="#DejaVuSans-2229" transform="translate(87.890625 0.09375)"/>
     <use xlink:href="#DejaVuSans-Oblique-42" transform="translate(180.566406 0.09375)"/>
    </g>
   </g>
  </g>
 </g>
 <defs>
  <clipPath id="pa06700e9aa">
   <rect x="36" y="21.6" width="223.2" height="138.6"/>
  </clipPath>
 </defs>
</svg>
