<?xml version="1.0" encoding="utf-8" standalone="no"?>
<!DOCTYPE svg PUBLIC "-//W3C//DTD SVG 1.1//EN"
  "http://www.w3.org/Graphics/SVG/1.1/DTD/svg11.dtd">
<svg xmlns:xlink="http://www.w3.org/1999/xlink" width="288pt" height="180pt" viewBox="0 0 288 180" xmlns="http://www.w3.org/2000/svg" version="1.1">
 <metadata>
  <rdf:RDF xmlns:dc="http://purl.org/dc/elements/1.1/" xmlns:cc="http://creativecommons.org/ns#" xmlns:rdf="http://www.w3.org/1999/02/22-rdf-syntax-ns#">
   <cc:Work>
    <dc:type rdf:resource="http://purl.org/dc/dcmitype/StillImage"/>
    <dc:date>2024-11-05T08:35:19.391644</dc:date>
    <dc:format>image/svg+xml</dc:format>
    <dc:creator>
     <cc:Agent>
      <dc:title>Matplotlib v3.9.2, https://matplotlib.org/</dc:title>
     </cc:Agent>
    </dc:creator>
   </cc:Work>
  </rdf:RDF>
 </metadata>
 <defs>
  <style type="text/css">*{stroke-linejoin: round; stroke-linecap: butt}</style>
 </defs>
 <g id="figure_1">
  <g id="patch_1">
   <path d="M 0 180 
L 288 180 
L 288 0 
L 0 0 
z
" style="fill: #ffffff"/>
  </g>
  <g id="axes_1">
   <g id="patch_2">
    <path d="M 36 160.2 
L 259.2 160.2 
L 259.2 21.6 
L 36 21.6 
z
" style="fill: #ffffff"/>
   </g>
   <g id="patch_3">
    <path d="M 147.598255 145.459789 
L 148.753588 146.110706 
L 149.922366 146.737161 
L 151.10407 147.338878 
L 152.298177 147.915589 
L 153.504157 148.467039 
L 154.721477 148.992985 
L 155.949598 149.493191 
L 157.187975 149.967439 
L 158.436059 150.415516 
L 159.693297 150.837224 
L 160.959133 151.232377 
L 162.233006 151.6008 
L 163.514351 151.94233 
L 164.8026 152.256814 
L 166.097183 152.544114 
L 167.397527 152.804102 
L 168.703054 153.036664 
L 170.013187 153.241696 
L 171.327346 153.419107 
L 172.644947 153.568819 
L 173.965407 153.690765 
L 175.288142 153.784892 
L 176.612565 153.851158 
L 177.938089 153.889533 
L 179.264127 153.9 
L 180.590092 153.882555 
L 181.915396 153.837205 
L 183.239452 153.763971 
L 184.561673 153.662885 
L 185.881473 153.533992 
L 187.198268 153.377348 
L 188.511475 153.193024 
L 189.820511 152.981101 
L 191.124797 152.741672 
L 192.423754 152.474844 
L 193.716807 152.180736 
L 195.003384 151.859477 
L 196.282914 151.51121 
L 197.55483 151.136088 
L 198.818569 150.734279 
L 200.073571 150.305961 
L 201.31928 149.851322 
L 202.555144 149.370565 
L 203.780615 148.863902 
L 204.995151 148.331559 
L 206.198213 147.77377 
L 207.389269 147.190783 
L 208.56779 146.582856 
L 209.733254 145.950259 
L 210.885146 145.293272 
L 212.022955 144.612185 
L 213.146176 143.907302 
L 214.254312 143.178933 
L 215.346872 142.427402 
L 216.423373 141.653042 
L 217.483336 140.856195 
L 218.526293 140.037215 
L 219.551781 139.196465 
L 220.559346 138.334317 
L 221.548542 137.451153 
L 222.518931 136.547365 
L 223.470081 135.623352 
L 224.401573 134.679525 
L 225.312993 133.716301 
L 226.203937 132.734107 
L 227.074011 131.733378 
L 227.92283 130.714558 
L 228.750017 129.678098 
L 229.555205 128.624458 
L 230.338038 127.554103 
L 231.09817 126.467509 
L 231.835263 125.365157 
L 232.548991 124.247534 
L 233.239037 123.115137 
L 233.905096 121.968467 
L 234.546873 120.808032 
L 235.164083 119.634346 
L 235.756453 118.44793 
L 236.323721 117.249308 
L 236.865635 116.039012 
L 237.381955 114.817578 
L 237.872452 113.585548 
L 238.33691 112.343466 
L 238.775121 111.091884 
L 239.186893 109.831356 
L 239.572042 108.562441 
L 239.930398 107.2857 
L 240.261803 106.001699 
L 240.566109 104.711007 
L 240.843181 103.414197 
L 241.092897 102.111841 
L 241.315147 100.804519 
L 241.509831 99.492808 
L 241.676863 98.177291 
L 241.81617 96.858549 
L 241.92769 95.537167 
L 242.011373 94.21373 
L 242.067183 92.888826 
L 242.095093 91.56304 
L 242.095093 90.23696 
L 242.067183 88.911174 
L 242.011373 87.58627 
L 241.92769 86.262833 
L 241.81617 84.941451 
L 241.676863 83.622709 
L 241.509831 82.307192 
L 241.315147 80.995481 
L 241.092897 79.688159 
L 240.843181 78.385803 
L 240.566109 77.088993 
L 240.261803 75.798301 
L 239.930398 74.5143 
L 239.572042 73.237559 
L 239.186893 71.968644 
L 238.775121 70.708116 
L 238.33691 69.456534 
L 237.872452 68.214452 
L 237.381955 66.982422 
L 236.865635 65.760988 
L 236.323721 64.550692 
L 235.756453 63.35207 
L 235.164083 62.165654 
L 234.546873 60.991968 
L 233.905096 59.831533 
L 233.239037 58.684863 
L 232.548991 57.552466 
L 231.835263 56.434843 
L 231.09817 55.332491 
L 230.338038 54.245897 
L 229.555205 53.175542 
L 228.750017 52.121902 
L 227.92283 51.085442 
L 227.074011 50.066622 
L 226.203937 49.065893 
L 225.312993 48.083699 
L 224.401573 47.120475 
L 223.470081 46.176648 
L 222.518931 45.252635 
L 221.548542 44.348847 
L 220.559346 43.465683 
L 219.551781 42.603535 
L 218.526293 41.762785 
L 217.483336 40.943805 
L 216.423373 40.146958 
L 215.346872 39.372598 
L 214.254312 38.621067 
L 213.146176 37.892698 
L 212.022955 37.187815 
L 210.885146 36.506728 
L 209.733254 35.849741 
L 208.56779 35.217144 
L 207.389269 34.609217 
L 206.198213 34.02623 
L 204.995151 33.468441 
L 203.780615 32.936098 
L 202.555144 32.429435 
L 201.31928 31.948678 
L 200.073571 31.494039 
L 198.818569 31.065721 
L 197.55483 30.663912 
L 196.282914 30.28879 
L 195.003384 29.940523 
L 193.716807 29.619264 
L 192.423754 29.325156 
L 191.124797 29.058328 
L 189.820511 28.818899 
L 188.511475 28.606976 
L 187.198268 28.422652 
L 185.881473 28.266008 
L 184.561673 28.137115 
L 183.239452 28.036029 
L 181.915396 27.962795 
L 180.590092 27.917445 
L 179.264127 27.9 
L 177.938089 27.910467 
L 176.612565 27.948842 
L 175.288142 28.015108 
L 173.965407 28.109235 
L 172.644947 28.231181 
L 171.327346 28.380893 
L 170.013187 28.558304 
L 168.703054 28.763336 
L 167.397527 28.995898 
L 166.097183 29.255886 
L 164.8026 29.543186 
L 163.514351 29.85767 
L 162.233006 30.1992 
L 160.959133 30.567623 
L 159.693297 30.962776 
L 158.436059 31.384484 
L 157.187975 31.832561 
L 155.949598 32.306809 
L 154.721477 32.807015 
L 153.504157 33.332961 
L 152.298177 33.884411 
L 151.10407 34.461122 
L 149.922366 35.062839 
L 148.753588 35.689294 
L 147.598255 36.340211 
L 147.598255 36.340211 
L 146.442922 35.689294 
L 145.274145 35.062839 
L 144.092441 34.461122 
L 142.898334 33.884411 
L 141.692354 33.332961 
L 140.475033 32.807015 
L 139.246913 32.306809 
L 138.008536 31.832561 
L 136.760452 31.384484 
L 135.503214 30.962776 
L 134.237378 30.567623 
L 132.963505 30.1992 
L 131.68216 29.85767 
L 130.393911 29.543186 
L 129.099328 29.255886 
L 127.798984 28.995898 
L 126.493457 28.763336 
L 125.183324 28.558304 
L 123.869165 28.380893 
L 122.551564 28.231181 
L 121.231103 28.109235 
L 119.908369 28.015108 
L 118.583946 27.948842 
L 117.258422 27.910467 
L 115.932384 27.9 
L 114.606419 27.917445 
L 113.281115 27.962795 
L 111.957059 28.036029 
L 110.634838 28.137115 
L 109.315038 28.266008 
L 107.998242 28.422652 
L 106.685036 28.606976 
L 105.376 28.818899 
L 104.071714 29.058328 
L 102.772757 29.325156 
L 101.479704 29.619264 
L 100.193127 29.940523 
L 98.913597 30.28879 
L 97.641681 30.663912 
L 96.377942 31.065721 
L 95.12294 31.494039 
L 93.877231 31.948678 
L 92.641367 32.429435 
L 91.415896 32.936098 
L 90.20136 33.468441 
L 88.998298 34.02623 
L 87.807242 34.609217 
L 86.628721 35.217144 
L 85.463257 35.849741 
L 84.311365 36.506728 
L 83.173556 37.187815 
L 82.050335 37.892698 
L 80.942199 38.621067 
L 79.849639 39.372598 
L 78.773138 40.146958 
L 77.713175 40.943805 
L 76.670218 41.762785 
L 75.64473 42.603535 
L 74.637164 43.465683 
L 73.647969 44.348847 
L 72.67758 45.252635 
L 71.72643 46.176648 
L 70.794938 47.120475 
L 69.883518 48.083699 
L 68.992574 49.065893 
L 68.122499 50.066622 
L 67.273681 51.085442 
L 66.446494 52.121902 
L 65.641306 53.175542 
L 64.858472 54.245897 
L 64.098341 55.332491 
L 63.361248 56.434843 
L 62.64752 57.552466 
L 61.957474 58.684863 
L 61.291415 59.831533 
L 60.649638 60.991968 
L 60.032428 62.165654 
L 59.440057 63.35207 
L 58.87279 64.550692 
L 58.330876 65.760988 
L 57.814556 66.982422 
L 57.324059 68.214452 
L 56.859601 69.456534 
L 56.42139 70.708116 
L 56.009618 71.968644 
L 55.624469 73.237559 
L 55.266113 74.5143 
L 54.934708 75.798301 
L 54.630402 77.088993 
L 54.35333 78.385803 
L 54.103614 79.688159 
L 53.881364 80.995481 
L 53.68668 82.307192 
L 53.519648 83.622709 
L 53.38034 84.941451 
L 53.268821 86.262833 
L 53.185138 87.58627 
L 53.129328 88.911174 
L 53.101417 90.23696 
L 53.101417 91.56304 
L 53.129328 92.888826 
L 53.185138 94.21373 
L 53.268821 95.537167 
L 53.38034 96.858549 
L 53.519648 98.177291 
L 53.68668 99.492808 
L 53.881364 100.804519 
L 54.103614 102.111841 
L 54.35333 103.414197 
L 54.630402 104.711007 
L 54.934708 106.001699 
L 55.266113 107.2857 
L 55.624469 108.562441 
L 56.009618 109.831356 
L 56.42139 111.091884 
L 56.859601 112.343466 
L 57.324059 113.585548 
L 57.814556 114.817578 
L 58.330876 116.039012 
L 58.87279 117.249308 
L 59.440057 118.44793 
L 60.032428 119.634346 
L 60.649638 120.808032 
L 61.291415 121.968467 
L 61.957474 123.115137 
L 62.64752 124.247534 
L 63.361248 125.365157 
L 64.098341 126.467509 
L 64.858472 127.554103 
L 65.641306 128.624458 
L 66.446494 129.678098 
L 67.273681 130.714558 
L 68.122499 131.733378 
L 68.992574 132.734107 
L 69.883518 133.716301 
L 70.794938 134.679525 
L 71.72643 135.623352 
L 72.67758 136.547365 
L 73.647969 137.451153 
L 74.637164 138.334317 
L 75.64473 139.196465 
L 76.670218 140.037215 
L 77.713175 140.856195 
L 78.773138 141.653042 
L 79.849639 142.427402 
L 80.942199 143.178933 
L 82.050335 143.907302 
L 83.173556 144.612185 
L 84.311365 145.293272 
L 85.463257 145.950259 
L 86.628721 146.582856 
L 87.807242 147.190783 
L 88.998298 147.77377 
L 90.20136 148.331559 
L 91.415896 148.863902 
L 92.641367 149.370565 
L 93.877231 149.851322 
L 95.12294 150.305961 
L 96.377942 150.734279 
L 97.641681 151.136088 
L 98.913597 151.51121 
L 100.193127 151.859477 
L 101.479704 152.180736 
L 102.772757 152.474844 
L 104.071714 152.741672 
L 105.376 152.981101 
L 106.685036 153.193024 
L 107.998242 153.377348 
L 109.315038 153.533992 
L 110.634838 153.662885 
L 111.957059 153.763971 
L 113.281115 153.837205 
L 114.606419 153.882555 
L 115.932384 153.9 
L 117.258422 153.889533 
L 118.583946 153.851158 
L 119.908369 153.784892 
L 121.231103 153.690765 
L 122.551564 153.568819 
L 123.869165 153.419107 
L 125.183324 153.241696 
L 126.493457 153.036664 
L 127.798984 152.804102 
L 129.099328 152.544114 
L 130.393911 152.256814 
L 131.68216 151.94233 
L 132.963505 151.6008 
L 134.237378 151.232377 
L 135.503214 150.837224 
L 136.760452 150.415516 
L 138.008536 149.967439 
L 139.246913 149.493191 
L 140.475033 148.992985 
L 141.692354 148.467039 
L 142.898334 147.915589 
L 144.092441 147.338878 
L 145.274145 146.737161 
L 146.442922 146.110706 
L 147.598255 145.459789 
z
" clip-path="url(#p60174255c5)" style="fill: #ff0000"/>
   </g>
   <g id="matplotlib.axis_1"/>
   <g id="matplotlib.axis_2"/>
   <g id="line2d_1">
    <path d="M 242.098583 90.9 
L 241.973014 86.924331 
L 241.596808 82.964511 
L 240.971466 79.036324 
L 240.099479 75.155429 
L 238.984324 71.337296 
L 237.630445 67.597146 
L 236.043241 63.949888 
L 234.229038 60.410062 
L 232.195067 56.991777 
L 229.949438 53.70866 
L 227.501101 50.573798 
L 224.859817 47.599689 
L 222.036114 44.798188 
L 219.041249 42.180461 
L 215.88716 39.756946 
L 212.58642 37.537301 
L 209.152186 35.530376 
L 205.59815 33.74417 
L 201.938477 32.185805 
L 198.187757 30.861491 
L 194.360941 29.776508 
L 190.473284 28.935182 
L 186.540283 28.340865 
L 182.577616 27.995928 
L 178.601081 27.901745 
L 174.626527 28.058691 
L 170.6698 28.466141 
L 166.746671 29.122471 
L 162.87278 30.025064 
L 159.063568 31.170322 
L 155.334222 32.553681 
L 151.699606 34.169625 
L 148.174209 36.011713 
L 144.772086 38.072601 
L 141.506797 40.344076 
L 138.391359 42.817081 
L 135.438191 45.481758 
L 132.659065 48.327486 
L 130.06506 51.342921 
L 127.666516 54.516041 
L 125.472995 57.834199 
L 123.49324 61.284167 
L 121.735143 64.852192 
L 120.205713 68.524052 
L 118.911046 72.285108 
L 117.856304 76.120369 
L 117.04569 80.014546 
L 116.482437 83.952116 
L 116.168789 87.917381 
L 116.105997 91.894537 
L 116.294311 95.867728 
L 116.73298 99.821116 
L 117.420256 103.738941 
L 118.353399 107.605588 
L 119.528689 111.40564 
L 120.941442 115.123951 
L 122.586025 118.745699 
L 124.455883 122.256445 
L 126.543561 125.642196 
L 128.840739 128.889453 
L 131.338258 131.985274 
L 134.026163 134.917317 
L 136.893739 137.673893 
L 139.929555 140.244016 
L 143.12151 142.617438 
L 146.456879 144.7847 
L 149.922366 146.737161 
L 153.504157 148.467039 
L 157.187975 149.967439 
L 160.959133 151.232377 
L 164.8026 152.256814 
L 168.703054 153.036664 
L 172.644947 153.568819 
L 176.612565 153.851158 
L 180.590092 153.882555 
L 184.561673 153.662885 
L 188.511475 153.193024 
L 192.423754 152.474844 
L 196.282914 151.51121 
L 200.073571 150.305961 
L 203.780615 148.863902 
L 207.389269 147.190783 
L 210.885146 145.293272 
L 214.254312 143.178933 
L 217.483336 140.856195 
L 220.559346 138.334317 
L 223.470081 135.623352 
L 226.203937 132.734107 
L 228.750017 129.678098 
L 231.09817 126.467509 
L 233.239037 123.115137 
L 235.164083 119.634346 
L 236.865635 116.039012 
L 238.33691 112.343466 
L 239.572042 108.562441 
L 240.566109 104.711007 
L 241.315147 100.804519 
L 241.81617 96.858549 
L 242.067183 92.888826 
L 242.098583 90.9 
L 242.098583 90.9 
" clip-path="url(#p60174255c5)" style="fill: none; stroke: #0000ff; stroke-width: 1.5; stroke-linecap: square"/>
   </g>
   <g id="line2d_2">
    <path d="M 179.098364 90.9 
L 178.972796 86.924331 
L 178.59659 82.964511 
L 177.971248 79.036324 
L 177.099261 75.155429 
L 175.984106 71.337296 
L 174.630227 67.597146 
L 173.043023 63.949888 
L 171.22882 60.410062 
L 169.194849 56.991777 
L 166.94922 53.70866 
L 164.500883 50.573798 
L 161.859599 47.599689 
L 159.035896 44.798188 
L 156.041031 42.180461 
L 152.886942 39.756946 
L 149.586202 37.537301 
L 146.151968 35.530376 
L 142.597932 33.74417 
L 138.938259 32.185805 
L 135.187539 30.861491 
L 131.360723 29.776508 
L 127.473066 28.935182 
L 123.540065 28.340865 
L 119.577398 27.995928 
L 115.600863 27.901745 
L 111.626309 28.058691 
L 107.669582 28.466141 
L 103.746453 29.122471 
L 99.872562 30.025064 
L 96.06335 31.170322 
L 92.334004 32.553681 
L 88.699388 34.169625 
L 85.173991 36.011713 
L 81.771868 38.072601 
L 78.506579 40.344076 
L 75.39114 42.817081 
L 72.437973 45.481758 
L 69.658847 48.327486 
L 67.064842 51.342921 
L 64.666298 54.516041 
L 62.472776 57.834199 
L 60.493021 61.284167 
L 58.734925 64.852192 
L 57.205495 68.524052 
L 55.910828 72.285108 
L 54.856086 76.120369 
L 54.045472 80.014546 
L 53.482219 83.952116 
L 53.168571 87.917381 
L 53.105779 91.894537 
L 53.294093 95.867728 
L 53.732762 99.821116 
L 54.420038 103.738941 
L 55.353181 107.605588 
L 56.528471 111.40564 
L 57.941224 115.123951 
L 59.585807 118.745699 
L 61.455665 122.256445 
L 63.543343 125.642196 
L 65.840521 128.889453 
L 68.33804 131.985274 
L 71.025945 134.917317 
L 73.893521 137.673893 
L 76.929337 140.244016 
L 80.121292 142.617438 
L 83.456661 144.7847 
L 86.922148 146.737161 
L 90.503939 148.467039 
L 94.187757 149.967439 
L 97.958915 151.232377 
L 101.802382 152.256814 
L 105.702836 153.036664 
L 109.644729 153.568819 
L 113.612347 153.851158 
L 117.589874 153.882555 
L 121.561455 153.662885 
L 125.511257 153.193024 
L 129.423536 152.474844 
L 133.282696 151.51121 
L 137.073353 150.305961 
L 140.780397 148.863902 
L 144.38905 147.190783 
L 147.884928 145.293272 
L 151.254094 143.178933 
L 154.483118 140.856195 
L 157.559128 138.334317 
L 160.469863 135.623352 
L 163.203719 132.734107 
L 165.749799 129.678098 
L 168.097952 126.467509 
L 170.238819 123.115137 
L 172.163865 119.634346 
L 173.865417 116.039012 
L 175.336692 112.343466 
L 176.571824 108.562441 
L 177.56589 104.711007 
L 178.314929 100.804519 
L 178.815952 96.858549 
L 179.066964 92.888826 
L 179.098364 90.9 
L 179.098364 90.9 
" clip-path="url(#p60174255c5)" style="fill: none; stroke: #008000; stroke-width: 1.5; stroke-linecap: square"/>
   </g>
   <g id="patch_4">
    <path d="M 36 160.2 
L 36 21.6 
" style="fill: none; stroke: #000000; stroke-width: 0.8; stroke-linejoin: miter; stroke-linecap: square"/>
   </g>
   <g id="patch_5">
    <path d="M 259.2 160.2 
L 259.2 21.6 
" style="fill: none; stroke: #000000; stroke-width: 0.8; stroke-linejoin: miter; stroke-linecap: square"/>
   </g>
   <g id="patch_6">
    <path d="M 36 160.2 
L 259.2 160.2 
" style="fill: none; stroke: #000000; stroke-width: 0.8; stroke-linejoin: miter; stroke-linecap: square"/>
   </g>
   <g id="patch_7">
    <path d="M 36 21.6 
L 259.2 21.6 
" style="fill: none; stroke: #000000; stroke-width: 0.8; stroke-linejoin: miter; stroke-linecap: square"/>
   </g>
   <g id="text_1">
    <!-- $A$ -->
    <g style="fill: #1f77b4" transform="translate(210.598474 34.199804) scale(0.1 -0.1)">
     <defs>
      <path id="DejaVuSans-Oblique-41" d="M 2356 4666 
L 3072 4666 
L 3938 0 
L 3278 0 
L 3084 1197 
L 984 1197 
L 325 0 
L -341 0 
L 2356 4666 
z
M 2584 4044 
L 1275 1722 
L 2988 1722 
L 2584 4044 
z
" transform="scale(0.015625)"/>
     </defs>
     <use xlink:href="#DejaVuSans-Oblique-41" transform="translate(0 0.09375)"/>
    </g>
   </g>
   <g id="text_2">
    <!-- $B$ -->
    <g style="fill: #2ca02c" transform="translate(78.298016 34.199804) scale(0.1 -0.1)">
     <defs>
      <path id="DejaVuSans-Oblique-42" d="M 1081 4666 
L 2694 4666 
Q 3350 4666 3675 4422 
Q 4000 4178 4000 3688 
Q 4000 3238 3720 2911 
Q 3441 2584 2988 2516 
Q 3375 2428 3569 2181 
Q 3763 1934 3763 1522 
Q 3763 819 3242 409 
Q 2722 0 1819 0 
L 172 0 
L 1081 4666 
z
M 1234 2228 
L 903 519 
L 1919 519 
Q 2491 519 2800 781 
Q 3109 1044 3109 1522 
Q 3109 1891 2904 2059 
Q 2700 2228 2247 2228 
L 1234 2228 
z
M 1606 4147 
L 1331 2741 
L 2272 2741 
Q 2775 2741 3058 2959 
Q 3341 3178 3341 3566 
Q 3341 3869 3150 4008 
Q 2959 4147 2541 4147 
L 1606 4147 
z
" transform="scale(0.015625)"/>
     </defs>
     <use xlink:href="#DejaVuSans-Oblique-42" transform="translate(0 0.09375)"/>
    </g>
   </g>
   <g id="text_3">
    <!-- $A \cup B$ -->
    <g style="fill: #d62728" transform="translate(134.998212 31.049793) scale(0.1 -0.1)">
     <defs>
      <path id="DejaVuSans-222a" d="M 825 1856 
L 825 3706 
L 1363 3706 
L 1363 1934 
Q 1363 1172 1594 842 
Q 1825 513 2344 513 
Q 2859 513 3090 842 
Q 3322 1172 3322 1934 
L 3322 3706 
L 3859 3706 
L 3859 1856 
Q 3859 931 3476 465 
Q 3094 0 2344 0 
Q 1591 0 1208 465 
Q 825 931 825 1856 
z
" transform="scale(0.015625)"/>
     </defs>
     <use xlink:href="#DejaVuSans-Oblique-41" transform="translate(0 0.09375)"/>
     <use xlink:href="#DejaVuSans-222a" transform="translate(87.890625 0.09375)"/>
     <use xlink:href="#DejaVuSans-Oblique-42" transform="translate(180.566406 0.09375)"/>
    </g>
   </g>
  </g>
 </g>
 <defs>
  <clipPath id="p60174255c5">
   <rect x="36" y="21.6" width="223.2" height="138.6"/>
  </clipPath>
 </defs>
</svg>
