<?xml version="1.0" encoding="utf-8" standalone="no"?>
<!DOCTYPE svg PUBLIC "-//W3C//DTD SVG 1.1//EN"
  "http://www.w3.org/Graphics/SVG/1.1/DTD/svg11.dtd">
<svg xmlns:xlink="http://www.w3.org/1999/xlink" width="288pt" height="180pt" viewBox="0 0 288 180" xmlns="http://www.w3.org/2000/svg" version="1.1">
 <metadata>
  <rdf:RDF xmlns:dc="http://purl.org/dc/elements/1.1/" xmlns:cc="http://creativecommons.org/ns#" xmlns:rdf="http://www.w3.org/1999/02/22-rdf-syntax-ns#">
   <cc:Work>
    <dc:type rdf:resource="http://purl.org/dc/dcmitype/StillImage"/>
    <dc:date>2024-11-05T08:35:19.408192</dc:date>
    <dc:format>image/svg+xml</dc:format>
    <dc:creator>
     <cc:Agent>
      <dc:title>Matplotlib v3.9.2, https://matplotlib.org/</dc:title>
     </cc:Agent>
    </dc:creator>
   </cc:Work>
  </rdf:RDF>
 </metadata>
 <defs>
  <style type="text/css">*{stroke-linejoin: round; stroke-linecap: butt}</style>
 </defs>
 <g id="figure_1">
  <g id="patch_1">
   <path d="M 0 180 
L 288 180 
L 288 0 
L 0 0 
z
" style="fill: #ffffff"/>
  </g>
  <g id="axes_1">
   <g id="patch_2">
    <path d="M 36 160.2 
L 259.2 160.2 
L 259.2 21.6 
L 36 21.6 
z
" style="fill: #ffffff"/>
   </g>
   <g id="patch_3">
    <path d="M 147.596075 145.459789 
L 148.751408 146.110706 
L 149.920185 146.737161 
L 151.101889 147.338878 
L 152.295996 147.915589 
L 153.501977 148.467039 
L 154.719297 148.992985 
L 155.947417 149.493191 
L 157.185794 149.967439 
L 158.433878 150.415516 
L 159.691117 150.837224 
L 160.956953 151.232377 
L 162.230825 151.6008 
L 163.51217 151.94233 
L 164.800419 152.256814 
L 166.095003 152.544114 
L 167.395346 152.804102 
L 168.700873 153.036664 
L 170.011007 153.241696 
L 171.325165 153.419107 
L 172.642766 153.568819 
L 173.963227 153.690765 
L 175.285961 153.784892 
L 176.610384 153.851158 
L 177.935908 153.889533 
L 179.261947 153.9 
L 180.587911 153.882555 
L 181.913215 153.837205 
L 183.237271 153.763971 
L 184.559492 153.662885 
L 185.879293 153.533992 
L 187.196088 153.377348 
L 188.509294 153.193024 
L 189.81833 152.981101 
L 191.122616 152.741672 
L 192.421573 152.474844 
L 193.714627 152.180736 
L 195.001203 151.859477 
L 196.280733 151.51121 
L 197.552649 151.136088 
L 198.816389 150.734279 
L 200.071391 150.305961 
L 201.317099 149.851322 
L 202.552963 149.370565 
L 203.778435 148.863902 
L 204.99297 148.331559 
L 206.196032 147.77377 
L 207.387088 147.190783 
L 208.565609 146.582856 
L 209.731074 145.950259 
L 210.882965 145.293272 
L 212.020774 144.612185 
L 213.143995 143.907302 
L 214.252131 143.178933 
L 215.344692 142.427402 
L 216.421192 141.653042 
L 217.481155 140.856195 
L 218.524112 140.037215 
L 219.549601 139.196465 
L 220.557166 138.334317 
L 221.546362 137.451153 
L 222.51675 136.547365 
L 223.467901 135.623352 
L 224.399392 134.679525 
L 225.310812 133.716301 
L 226.201757 132.734107 
L 227.071831 131.733378 
L 227.920649 130.714558 
L 228.747836 129.678098 
L 229.553024 128.624458 
L 230.335858 127.554103 
L 231.095989 126.467509 
L 231.833082 125.365157 
L 232.54681 124.247534 
L 233.236856 123.115137 
L 233.902915 121.968467 
L 234.544692 120.808032 
L 235.161902 119.634346 
L 235.754273 118.44793 
L 236.32154 117.249308 
L 236.863454 116.039012 
L 237.379774 114.817578 
L 237.870272 113.585548 
L 238.334729 112.343466 
L 238.77294 111.091884 
L 239.184712 109.831356 
L 239.569861 108.562441 
L 239.928218 107.2857 
L 240.259622 106.001699 
L 240.563928 104.711007 
L 240.841 103.414197 
L 241.090717 102.111841 
L 241.312966 100.804519 
L 241.50765 99.492808 
L 241.674683 98.177291 
L 241.81399 96.858549 
L 241.925509 95.537167 
L 242.009193 94.21373 
L 242.065002 92.888826 
L 242.092913 91.56304 
L 242.092913 90.23696 
L 242.065002 88.911174 
L 242.009193 87.58627 
L 241.925509 86.262833 
L 241.81399 84.941451 
L 241.674683 83.622709 
L 241.50765 82.307192 
L 241.312966 80.995481 
L 241.090717 79.688159 
L 240.841 78.385803 
L 240.563928 77.088993 
L 240.259622 75.798301 
L 239.928218 74.5143 
L 239.569861 73.237559 
L 239.184712 71.968644 
L 238.77294 70.708116 
L 238.334729 69.456534 
L 237.870272 68.214452 
L 237.379774 66.982422 
L 236.863454 65.760988 
L 236.32154 64.550692 
L 235.754273 63.35207 
L 235.161902 62.165654 
L 234.544692 60.991968 
L 233.902915 59.831533 
L 233.236856 58.684863 
L 232.54681 57.552466 
L 231.833082 56.434843 
L 231.095989 55.332491 
L 230.335858 54.245897 
L 229.553024 53.175542 
L 228.747836 52.121902 
L 227.920649 51.085442 
L 227.071831 50.066622 
L 226.201757 49.065893 
L 225.310812 48.083699 
L 224.399392 47.120475 
L 223.467901 46.176648 
L 222.51675 45.252635 
L 221.546362 44.348847 
L 220.557166 43.465683 
L 219.549601 42.603535 
L 218.524112 41.762785 
L 217.481155 40.943805 
L 216.421192 40.146958 
L 215.344692 39.372598 
L 214.252131 38.621067 
L 213.143995 37.892698 
L 212.020774 37.187815 
L 210.882965 36.506728 
L 209.731074 35.849741 
L 208.565609 35.217144 
L 207.387088 34.609217 
L 206.196032 34.02623 
L 204.99297 33.468441 
L 203.778435 32.936098 
L 202.552963 32.429435 
L 201.317099 31.948678 
L 200.071391 31.494039 
L 198.816389 31.065721 
L 197.552649 30.663912 
L 196.280733 30.28879 
L 195.001203 29.940523 
L 193.714627 29.619264 
L 192.421573 29.325156 
L 191.122616 29.058328 
L 189.81833 28.818899 
L 188.509294 28.606976 
L 187.196088 28.422652 
L 185.879293 28.266008 
L 184.559492 28.137115 
L 183.237271 28.036029 
L 181.913215 27.962795 
L 180.587911 27.917445 
L 179.261947 27.9 
L 177.935908 27.910467 
L 176.610384 27.948842 
L 175.285961 28.015108 
L 173.963227 28.109235 
L 172.642766 28.231181 
L 171.325165 28.380893 
L 170.011007 28.558304 
L 168.700873 28.763336 
L 167.395346 28.995898 
L 166.095003 29.255886 
L 164.800419 29.543186 
L 163.51217 29.85767 
L 162.230825 30.1992 
L 160.956953 30.567623 
L 159.691117 30.962776 
L 158.433878 31.384484 
L 157.185794 31.832561 
L 155.947417 32.306809 
L 154.719297 32.807015 
L 153.501977 33.332961 
L 152.295996 33.884411 
L 151.101889 34.461122 
L 149.920185 35.062839 
L 148.751408 35.689294 
L 147.596075 36.340211 
L 147.596075 36.340211 
L 148.168539 36.674752 
L 148.737452 37.0153 
L 149.302748 37.361817 
L 149.864367 37.714263 
L 150.422245 38.072601 
L 150.97632 38.436791 
L 151.526533 38.806791 
L 152.07282 39.182562 
L 152.615123 39.564061 
L 153.153381 39.951247 
L 153.687534 40.344076 
L 154.217523 40.742504 
L 154.743289 41.146489 
L 155.264775 41.555984 
L 155.781922 41.970946 
L 156.294673 42.391326 
L 156.802972 42.817081 
L 157.306761 43.24816 
L 157.805986 43.684519 
L 158.300591 44.126107 
L 158.790521 44.572876 
L 159.275722 45.024776 
L 159.75614 45.481758 
L 160.231721 45.943771 
L 160.702415 46.410763 
L 161.168167 46.882683 
L 161.628927 47.359479 
L 162.084643 47.841098 
L 162.535265 48.327486 
L 162.980744 48.81859 
L 163.421029 49.314355 
L 163.856072 49.814726 
L 164.285825 50.319648 
L 164.71024 50.829065 
L 165.12927 51.342921 
L 165.542869 51.861158 
L 165.950991 52.383719 
L 166.353591 52.910547 
L 166.750624 53.441582 
L 167.142046 53.976767 
L 167.527814 54.516041 
L 167.907885 55.059346 
L 168.282217 55.606621 
L 168.650769 56.157804 
L 169.013499 56.712837 
L 169.370368 57.271656 
L 169.721336 57.834199 
L 170.066364 58.400406 
L 170.405413 58.970212 
L 170.738448 59.543555 
L 171.065429 60.120371 
L 171.386322 60.700597 
L 171.701091 61.284167 
L 172.0097 61.871018 
L 172.312116 62.461085 
L 172.608305 63.054301 
L 172.898235 63.650602 
L 173.181873 64.249921 
L 173.459187 64.852192 
L 173.730148 65.457349 
L 173.994725 66.065323 
L 174.252888 66.676049 
L 174.50461 67.289457 
L 174.749862 67.905481 
L 174.988617 68.524052 
L 175.220849 69.145101 
L 175.446532 69.76856 
L 175.665641 70.39436 
L 175.878151 71.022431 
L 176.08404 71.652704 
L 176.283284 72.285108 
L 176.475861 72.919575 
L 176.661751 73.556033 
L 176.840931 74.194412 
L 177.013383 74.834642 
L 177.179088 75.476652 
L 177.338026 76.120369 
L 177.490181 76.765724 
L 177.635536 77.412644 
L 177.774074 78.061059 
L 177.90578 78.710895 
L 178.03064 79.362081 
L 178.14864 80.014546 
L 178.259766 80.668216 
L 178.364007 81.32302 
L 178.46135 81.978884 
L 178.551786 82.635737 
L 178.635303 83.293505 
L 178.711893 83.952116 
L 178.781548 84.611496 
L 178.844259 85.271572 
L 178.900019 85.932272 
L 178.948824 86.593523 
L 178.990666 87.25525 
L 179.025541 87.917381 
L 179.053446 88.579843 
L 179.074378 89.242561 
L 179.088333 89.905463 
L 179.095312 90.568476 
L 179.095312 91.231524 
L 179.088333 91.894537 
L 179.074378 92.557439 
L 179.053446 93.220157 
L 179.025541 93.882619 
L 178.990666 94.54475 
L 178.948824 95.206477 
L 178.900019 95.867728 
L 178.844259 96.528428 
L 178.781548 97.188504 
L 178.711893 97.847884 
L 178.635303 98.506495 
L 178.551786 99.164263 
L 178.46135 99.821116 
L 178.364007 100.47698 
L 178.259766 101.131784 
L 178.14864 101.785454 
L 178.03064 102.437919 
L 177.90578 103.089105 
L 177.774074 103.738941 
L 177.635536 104.387356 
L 177.490181 105.034276 
L 177.338026 105.679631 
L 177.179088 106.323348 
L 177.013383 106.965358 
L 176.840931 107.605588 
L 176.661751 108.243967 
L 176.475861 108.880425 
L 176.283284 109.514892 
L 176.08404 110.147296 
L 175.878151 110.777569 
L 175.665641 111.40564 
L 175.446532 112.03144 
L 175.220849 112.654899 
L 174.988617 113.275948 
L 174.749862 113.894519 
L 174.50461 114.510543 
L 174.252888 115.123951 
L 173.994725 115.734677 
L 173.730148 116.342651 
L 173.459187 116.947808 
L 173.181873 117.550079 
L 172.898235 118.149398 
L 172.608305 118.745699 
L 172.312116 119.338915 
L 172.0097 119.928982 
L 171.701091 120.515833 
L 171.386322 121.099403 
L 171.065429 121.679629 
L 170.738448 122.256445 
L 170.405413 122.829788 
L 170.066364 123.399594 
L 169.721336 123.965801 
L 169.370368 124.528344 
L 169.013499 125.087163 
L 168.650769 125.642196 
L 168.282217 126.193379 
L 167.907885 126.740654 
L 167.527814 127.283959 
L 167.142046 127.823233 
L 166.750624 128.358418 
L 166.353591 128.889453 
L 165.950991 129.416281 
L 165.542869 129.938842 
L 165.12927 130.457079 
L 164.71024 130.970935 
L 164.285825 131.480352 
L 163.856072 131.985274 
L 163.421029 132.485645 
L 162.980744 132.98141 
L 162.535265 133.472514 
L 162.084643 133.958902 
L 161.628927 134.440521 
L 161.168167 134.917317 
L 160.702415 135.389237 
L 160.231721 135.856229 
L 159.75614 136.318242 
L 159.275722 136.775224 
L 158.790521 137.227124 
L 158.300591 137.673893 
L 157.805986 138.115481 
L 157.306761 138.55184 
L 156.802972 138.982919 
L 156.294673 139.408674 
L 155.781922 139.829054 
L 155.264775 140.244016 
L 154.743289 140.653511 
L 154.217523 141.057496 
L 153.687534 141.455924 
L 153.153381 141.848753 
L 152.615123 142.235939 
L 152.07282 142.617438 
L 151.526533 142.993209 
L 150.97632 143.363209 
L 150.422245 143.727399 
L 149.864367 144.085737 
L 149.302748 144.438183 
L 148.737452 144.7847 
L 148.168539 145.125248 
L 147.596075 145.459789 
z
" clip-path="url(#pb41899c8f6)" style="fill: #ff0000"/>
   </g>
   <g id="matplotlib.axis_1"/>
   <g id="matplotlib.axis_2"/>
   <g id="line2d_1">
    <path d="M 242.096402 90.9 
L 241.970833 86.924331 
L 241.594628 82.964511 
L 240.969285 79.036324 
L 240.097298 75.155429 
L 238.982143 71.337296 
L 237.628265 67.597146 
L 236.04106 63.949888 
L 234.226857 60.410062 
L 232.192887 56.991777 
L 229.947257 53.70866 
L 227.498921 50.573798 
L 224.857637 47.599689 
L 222.033934 44.798188 
L 219.039069 42.180461 
L 215.884979 39.756946 
L 212.584239 37.537301 
L 209.150006 35.530376 
L 205.595969 33.74417 
L 201.936296 32.185805 
L 198.185576 30.861491 
L 194.35876 29.776508 
L 190.471103 28.935182 
L 186.538102 28.340865 
L 182.575436 27.995928 
L 178.5989 27.901745 
L 174.624346 28.058691 
L 170.667619 28.466141 
L 166.74449 29.122471 
L 162.870599 30.025064 
L 159.061388 31.170322 
L 155.332041 32.553681 
L 151.697425 34.169625 
L 148.172029 36.011713 
L 144.769905 38.072601 
L 141.504616 40.344076 
L 138.389178 42.817081 
L 135.43601 45.481758 
L 132.656884 48.327486 
L 130.062879 51.342921 
L 127.664335 54.516041 
L 125.470814 57.834199 
L 123.491059 61.284167 
L 121.732962 64.852192 
L 120.203532 68.524052 
L 118.908866 72.285108 
L 117.854123 76.120369 
L 117.04351 80.014546 
L 116.480256 83.952116 
L 116.166608 87.917381 
L 116.103816 91.894537 
L 116.29213 95.867728 
L 116.730799 99.821116 
L 117.418075 103.738941 
L 118.351218 107.605588 
L 119.526509 111.40564 
L 120.939261 115.123951 
L 122.583844 118.745699 
L 124.453702 122.256445 
L 126.541381 125.642196 
L 128.838558 128.889453 
L 131.336078 131.985274 
L 134.023983 134.917317 
L 136.891559 137.673893 
L 139.927375 140.244016 
L 143.119329 142.617438 
L 146.454698 144.7847 
L 149.920185 146.737161 
L 153.501977 148.467039 
L 157.185794 149.967439 
L 160.956953 151.232377 
L 164.800419 152.256814 
L 168.700873 153.036664 
L 172.642766 153.568819 
L 176.610384 153.851158 
L 180.587911 153.882555 
L 184.559492 153.662885 
L 188.509294 153.193024 
L 192.421573 152.474844 
L 196.280733 151.51121 
L 200.071391 150.305961 
L 203.778435 148.863902 
L 207.387088 147.190783 
L 210.882965 145.293272 
L 214.252131 143.178933 
L 217.481155 140.856195 
L 220.557166 138.334317 
L 223.467901 135.623352 
L 226.201757 132.734107 
L 228.747836 129.678098 
L 231.095989 126.467509 
L 233.236856 123.115137 
L 235.161902 119.634346 
L 236.863454 116.039012 
L 238.334729 112.343466 
L 239.569861 108.562441 
L 240.563928 104.711007 
L 241.312966 100.804519 
L 241.81399 96.858549 
L 242.065002 92.888826 
L 242.096402 90.9 
L 242.096402 90.9 
" clip-path="url(#pb41899c8f6)" style="fill: none; stroke: #0000ff; stroke-width: 1.5; stroke-linecap: square"/>
   </g>
   <g id="line2d_2">
    <path d="M 179.096184 90.9 
L 178.970615 86.924331 
L 178.59441 82.964511 
L 177.969067 79.036324 
L 177.09708 75.155429 
L 175.981925 71.337296 
L 174.628047 67.597146 
L 173.040842 63.949888 
L 171.226639 60.410062 
L 169.192669 56.991777 
L 166.947039 53.70866 
L 164.498703 50.573798 
L 161.857418 47.599689 
L 159.033716 44.798188 
L 156.038851 42.180461 
L 152.884761 39.756946 
L 149.584021 37.537301 
L 146.149788 35.530376 
L 142.595751 33.74417 
L 138.936078 32.185805 
L 135.185358 30.861491 
L 131.358542 29.776508 
L 127.470885 28.935182 
L 123.537884 28.340865 
L 119.575218 27.995928 
L 115.598682 27.901745 
L 111.624128 28.058691 
L 107.667401 28.466141 
L 103.744272 29.122471 
L 99.870381 30.025064 
L 96.06117 31.170322 
L 92.331823 32.553681 
L 88.697207 34.169625 
L 85.171811 36.011713 
L 81.769687 38.072601 
L 78.504398 40.344076 
L 75.38896 42.817081 
L 72.435792 45.481758 
L 69.656666 48.327486 
L 67.062661 51.342921 
L 64.664117 54.516041 
L 62.470596 57.834199 
L 60.490841 61.284167 
L 58.732744 64.852192 
L 57.203314 68.524052 
L 55.908647 72.285108 
L 54.853905 76.120369 
L 54.043292 80.014546 
L 53.480038 83.952116 
L 53.16639 87.917381 
L 53.103598 91.894537 
L 53.291912 95.867728 
L 53.730581 99.821116 
L 54.417857 103.738941 
L 55.351 107.605588 
L 56.526291 111.40564 
L 57.939043 115.123951 
L 59.583626 118.745699 
L 61.453484 122.256445 
L 63.541163 125.642196 
L 65.83834 128.889453 
L 68.335859 131.985274 
L 71.023765 134.917317 
L 73.891341 137.673893 
L 76.927157 140.244016 
L 80.119111 142.617438 
L 83.45448 144.7847 
L 86.919967 146.737161 
L 90.501758 148.467039 
L 94.185576 149.967439 
L 97.956734 151.232377 
L 101.800201 152.256814 
L 105.700655 153.036664 
L 109.642548 153.568819 
L 113.610166 153.851158 
L 117.587693 153.882555 
L 121.559274 153.662885 
L 125.509076 153.193024 
L 129.421355 152.474844 
L 133.280515 151.51121 
L 137.071172 150.305961 
L 140.778216 148.863902 
L 144.38687 147.190783 
L 147.882747 145.293272 
L 151.251913 143.178933 
L 154.480937 140.856195 
L 157.556948 138.334317 
L 160.467682 135.623352 
L 163.201538 132.734107 
L 165.747618 129.678098 
L 168.095771 126.467509 
L 170.236638 123.115137 
L 172.161684 119.634346 
L 173.863236 116.039012 
L 175.334511 112.343466 
L 176.569643 108.562441 
L 177.56371 104.711007 
L 178.312748 100.804519 
L 178.813772 96.858549 
L 179.064784 92.888826 
L 179.096184 90.9 
L 179.096184 90.9 
" clip-path="url(#pb41899c8f6)" style="fill: none; stroke: #008000; stroke-width: 1.5; stroke-linecap: square"/>
   </g>
   <g id="patch_4">
    <path d="M 36 160.2 
L 36 21.6 
" style="fill: none; stroke: #000000; stroke-width: 0.8; stroke-linejoin: miter; stroke-linecap: square"/>
   </g>
   <g id="patch_5">
    <path d="M 259.2 160.2 
L 259.2 21.6 
" style="fill: none; stroke: #000000; stroke-width: 0.8; stroke-linejoin: miter; stroke-linecap: square"/>
   </g>
   <g id="patch_6">
    <path d="M 36 160.2 
L 259.2 160.2 
" style="fill: none; stroke: #000000; stroke-width: 0.8; stroke-linejoin: miter; stroke-linecap: square"/>
   </g>
   <g id="patch_7">
    <path d="M 36 21.6 
L 259.2 21.6 
" style="fill: none; stroke: #000000; stroke-width: 0.8; stroke-linejoin: miter; stroke-linecap: square"/>
   </g>
   <g id="text_1">
    <!-- $A$ -->
    <g style="fill: #1f77b4" transform="translate(210.596293 34.199804) scale(0.1 -0.1)">
     <defs>
      <path id="DejaVuSans-Oblique-41" d="M 2356 4666 
L 3072 4666 
L 3938 0 
L 3278 0 
L 3084 1197 
L 984 1197 
L 325 0 
L -341 0 
L 2356 4666 
z
M 2584 4044 
L 1275 1722 
L 2988 1722 
L 2584 4044 
z
" transform="scale(0.015625)"/>
     </defs>
     <use xlink:href="#DejaVuSans-Oblique-41" transform="translate(0 0.09375)"/>
    </g>
   </g>
   <g id="text_2">
    <!-- $B$ -->
    <g style="fill: #2ca02c" transform="translate(78.295835 34.199804) scale(0.1 -0.1)">
     <defs>
      <path id="DejaVuSans-Oblique-42" d="M 1081 4666 
L 2694 4666 
Q 3350 4666 3675 4422 
Q 4000 4178 4000 3688 
Q 4000 3238 3720 2911 
Q 3441 2584 2988 2516 
Q 3375 2428 3569 2181 
Q 3763 1934 3763 1522 
Q 3763 819 3242 409 
Q 2722 0 1819 0 
L 172 0 
L 1081 4666 
z
M 1234 2228 
L 903 519 
L 1919 519 
Q 2491 519 2800 781 
Q 3109 1044 3109 1522 
Q 3109 1891 2904 2059 
Q 2700 2228 2247 2228 
L 1234 2228 
z
M 1606 4147 
L 1331 2741 
L 2272 2741 
Q 2775 2741 3058 2959 
Q 3341 3178 3341 3566 
Q 3341 3869 3150 4008 
Q 2959 4147 2541 4147 
L 1606 4147 
z
" transform="scale(0.015625)"/>
     </defs>
     <use xlink:href="#DejaVuSans-Oblique-42" transform="translate(0 0.09375)"/>
    </g>
   </g>
   <g id="text_3">
    <!-- $A \backslash B$ -->
    <g style="fill: #d62728" transform="translate(134.996031 31.049793) scale(0.1 -0.1)">
     <defs>
      <path id="DejaVuSans-5c" d="M 531 4666 
L 2156 -594 
L 1625 -594 
L 0 4666 
L 531 4666 
z
" transform="scale(0.015625)"/>
     </defs>
     <use xlink:href="#DejaVuSans-Oblique-41" transform="translate(0 0.09375)"/>
     <use xlink:href="#DejaVuSans-5c" transform="translate(68.408203 0.09375)"/>
     <use xlink:href="#DejaVuSans-Oblique-42" transform="translate(102.099609 0.09375)"/>
    </g>
   </g>
  </g>
 </g>
 <defs>
  <clipPath id="pb41899c8f6">
   <rect x="36" y="21.6" width="223.2" height="138.6"/>
  </clipPath>
 </defs>
</svg>
