<?xml version="1.0" encoding="utf-8" standalone="no"?>
<!DOCTYPE svg PUBLIC "-//W3C//DTD SVG 1.1//EN"
  "http://www.w3.org/Graphics/SVG/1.1/DTD/svg11.dtd">
<svg xmlns:xlink="http://www.w3.org/1999/xlink" width="388.8pt" height="216pt" viewBox="0 0 388.8 216" xmlns="http://www.w3.org/2000/svg" version="1.1">
 <metadata>
  <rdf:RDF xmlns:dc="http://purl.org/dc/elements/1.1/" xmlns:cc="http://creativecommons.org/ns#" xmlns:rdf="http://www.w3.org/1999/02/22-rdf-syntax-ns#">
   <cc:Work>
    <dc:type rdf:resource="http://purl.org/dc/dcmitype/StillImage"/>
    <dc:date>2024-05-20T14:10:24.296816</dc:date>
    <dc:format>image/svg+xml</dc:format>
    <dc:creator>
     <cc:Agent>
      <dc:title>Matplotlib v3.8.0, https://matplotlib.org/</dc:title>
     </cc:Agent>
    </dc:creator>
   </cc:Work>
  </rdf:RDF>
 </metadata>
 <defs>
  <style type="text/css">*{stroke-linejoin: round; stroke-linecap: butt}</style>
 </defs>
 <g id="figure_1">
  <g id="patch_1">
   <path d="M 0 216 
L 388.8 216 
L 388.8 0 
L 0 0 
z
" style="fill: #ffffff"/>
  </g>
  <g id="axes_1">
   <g id="patch_2">
    <path d="M 38.88 205.2 
L 381.024 205.2 
L 381.024 6.48 
L 38.88 6.48 
z
" style="fill: #ffffff"/>
   </g>
   <g id="patch_3">
    <path d="M 45.862531 51.428571 
L 101.722776 51.428571 
L 101.722776 15.942857 
L 45.862531 15.942857 
z
" clip-path="url(#pbea26daaa9)" style="fill: #fcffa4"/>
   </g>
   <g id="patch_4">
    <path d="M 45.862531 98.742857 
L 101.722776 98.742857 
L 101.722776 51.428571 
L 45.862531 51.428571 
z
" clip-path="url(#pbea26daaa9)" style="fill: #fac228"/>
   </g>
   <g id="patch_5">
    <path d="M 45.862531 169.714286 
L 101.722776 169.714286 
L 101.722776 98.742857 
L 45.862531 98.742857 
z
" clip-path="url(#pbea26daaa9)" style="fill: #f57d15"/>
   </g>
   <g id="patch_6">
    <path d="M 45.862531 181.542857 
L 101.722776 181.542857 
L 101.722776 169.714286 
L 45.862531 169.714286 
z
" clip-path="url(#pbea26daaa9)" style="fill: #d44842"/>
   </g>
   <g id="patch_7">
    <path d="M 45.862531 193.371429 
L 101.722776 193.371429 
L 101.722776 181.542857 
L 45.862531 181.542857 
z
" clip-path="url(#pbea26daaa9)" style="fill: #9f2a63"/>
   </g>
   <g id="patch_8">
    <path d="M 45.862531 197.807143 
L 101.722776 197.807143 
L 101.722776 193.371429 
L 45.862531 193.371429 
z
" clip-path="url(#pbea26daaa9)" style="fill: #65156e"/>
   </g>
   <g id="patch_9">
    <path d="M 45.862531 203.721429 
L 101.722776 203.721429 
L 101.722776 197.807143 
L 45.862531 197.807143 
z
" clip-path="url(#pbea26daaa9)" style="fill: #280b53"/>
   </g>
   <g id="patch_10">
    <path d="M 45.862531 205.2 
L 101.722776 205.2 
L 101.722776 203.721429 
L 45.862531 203.721429 
z
" clip-path="url(#pbea26daaa9)" style="fill: #000004"/>
   </g>
   <g id="patch_11">
    <path d="M 129.652898 205.2 
L 185.513143 205.2 
L 185.513143 195.737143 
L 129.652898 195.737143 
z
" clip-path="url(#pbea26daaa9)" style="fill: #008000"/>
   </g>
   <g id="matplotlib.axis_1"/>
   <g id="matplotlib.axis_2">
    <g id="ytick_1">
     <g id="line2d_1">
      <defs>
       <path id="mbd8b2276ed" d="M 0 0 
L -3.5 0 
" style="stroke: #000000; stroke-width: 0.8"/>
      </defs>
      <g>
       <use xlink:href="#mbd8b2276ed" x="38.88" y="205.2" style="stroke: #000000; stroke-width: 0.8"/>
      </g>
     </g>
     <g id="text_1">
      <!-- 0\% -->
      <g transform="translate(18.596439 208.659249) scale(0.1 -0.1)">
       <defs>
        <path id="CMSS17-30" d="M 2758 2073 
C 2758 2439 2752 3120 2490 3647 
C 2227 4153 1805 4288 1504 4288 
C 1069 4288 698 4031 506 3621 
C 301 3191 243 2748 243 2073 
C 243 1611 262 1046 493 551 
C 755 6 1197 -128 1498 -128 
C 1894 -128 2278 83 2496 525 
C 2720 988 2758 1495 2758 2073 
z
M 1498 262 
C 1011 262 864 821 819 1007 
C 742 1328 730 1636 730 2144 
C 730 2542 730 2992 851 3345 
C 998 3756 1254 3897 1498 3897 
C 1971 3897 2125 3422 2176 3255 
C 2272 2915 2272 2516 2272 2144 
C 2272 1546 2272 262 1498 262 
z
" transform="scale(0.015625)"/>
        <path id="CMSS17-25" d="M 3923 4582 
C 3962 4646 3962 4678 3962 4684 
C 3962 4755 3904 4800 3853 4800 
C 3782 4800 3750 4748 3718 4684 
L 1101 -109 
C 1088 -135 1062 -173 1062 -212 
C 1062 -282 1120 -327 1178 -327 
C 1235 -327 1248 -301 1299 -212 
L 3923 4582 
z
M 4678 953 
C 4678 1690 4282 2233 3846 2233 
C 3418 2233 3008 1703 3008 953 
C 3008 203 3418 -327 3846 -327 
C 4288 -327 4678 216 4678 953 
z
M 3846 64 
C 3712 64 3494 184 3494 953 
C 3494 1716 3712 1843 3846 1843 
C 4083 1843 4211 1379 4211 953 
C 4211 527 4083 64 3846 64 
z
M 2003 3516 
C 2003 4256 1606 4800 1171 4800 
C 742 4800 333 4269 333 3516 
C 333 2764 742 2233 1171 2233 
C 1613 2233 2003 2777 2003 3516 
z
M 1171 2624 
C 1037 2624 819 2745 819 3516 
C 819 4282 1037 4409 1171 4409 
C 1408 4409 1536 3944 1536 3516 
C 1536 3089 1408 2624 1171 2624 
z
" transform="scale(0.015625)"/>
       </defs>
       <use xlink:href="#CMSS17-30" transform="scale(0.996264)"/>
       <use xlink:href="#CMSS17-25" transform="translate(46.843624 0) scale(0.996264)"/>
      </g>
     </g>
    </g>
    <g id="ytick_2">
     <g id="line2d_2">
      <g>
       <use xlink:href="#mbd8b2276ed" x="38.88" y="167.348571" style="stroke: #000000; stroke-width: 0.8"/>
      </g>
     </g>
     <g id="text_2">
      <!-- 20\% -->
      <g transform="translate(13.615104 170.807821) scale(0.1 -0.1)">
       <defs>
        <path id="CMSS17-32" d="M 1651 1353 
C 1830 1538 2099 1761 2285 1984 
C 2464 2201 2701 2507 2701 2953 
C 2701 3655 2227 4288 1421 4288 
C 787 4288 422 3891 250 3272 
L 499 2928 
C 640 3508 838 3878 1338 3878 
C 1888 3878 2195 3431 2195 2940 
C 2195 2354 1747 1901 1408 1563 
C 1030 1187 659 805 301 409 
L 301 0 
L 2701 0 
L 2701 435 
L 1613 435 
C 1536 435 1459 428 1382 428 
L 742 428 
L 742 435 
L 1651 1353 
z
" transform="scale(0.015625)"/>
       </defs>
       <use xlink:href="#CMSS17-32" transform="scale(0.996264)"/>
       <use xlink:href="#CMSS17-30" transform="translate(46.843624 0) scale(0.996264)"/>
       <use xlink:href="#CMSS17-25" transform="translate(93.687247 0) scale(0.996264)"/>
      </g>
     </g>
    </g>
    <g id="ytick_3">
     <g id="line2d_3">
      <g>
       <use xlink:href="#mbd8b2276ed" x="38.88" y="129.497143" style="stroke: #000000; stroke-width: 0.8"/>
      </g>
     </g>
     <g id="text_3">
      <!-- 40\% -->
      <g transform="translate(13.615104 132.956392) scale(0.1 -0.1)">
       <defs>
        <path id="CMSS17-34" d="M 2253 1088 
L 2835 1088 
L 2835 1478 
L 2253 1478 
L 2253 4224 
L 1690 4224 
L 166 1478 
L 166 1088 
L 1747 1088 
L 1747 0 
L 2253 0 
L 2253 1088 
z
M 659 1478 
C 1030 2139 1766 3474 1766 3927 
L 1766 1478 
L 659 1478 
z
" transform="scale(0.015625)"/>
       </defs>
       <use xlink:href="#CMSS17-34" transform="scale(0.996264)"/>
       <use xlink:href="#CMSS17-30" transform="translate(46.843624 0) scale(0.996264)"/>
       <use xlink:href="#CMSS17-25" transform="translate(93.687247 0) scale(0.996264)"/>
      </g>
     </g>
    </g>
    <g id="ytick_4">
     <g id="line2d_4">
      <g>
       <use xlink:href="#mbd8b2276ed" x="38.88" y="91.645714" style="stroke: #000000; stroke-width: 0.8"/>
      </g>
     </g>
     <g id="text_4">
      <!-- 60\% -->
      <g transform="translate(13.615104 95.104963) scale(0.1 -0.1)">
       <defs>
        <path id="CMSS17-36" d="M 2496 4159 
C 2227 4268 2035 4288 1856 4288 
C 1024 4288 250 3408 250 2023 
C 250 268 986 -128 1510 -128 
C 1798 -128 2086 -39 2362 281 
C 2643 619 2752 900 2752 1392 
C 2752 2183 2362 2886 1779 2886 
C 1357 2886 992 2662 768 2381 
C 832 3290 1254 3897 1862 3897 
C 2029 3897 2246 3871 2496 3760 
L 2496 4159 
z
M 774 1372 
C 774 1423 774 1455 781 1551 
C 781 2049 1069 2496 1536 2496 
C 1837 2496 1990 2336 2106 2138 
C 2240 1889 2246 1653 2246 1392 
C 2246 1143 2246 894 2099 638 
C 1978 441 1818 268 1510 268 
C 902 268 800 1117 774 1372 
z
" transform="scale(0.015625)"/>
       </defs>
       <use xlink:href="#CMSS17-36" transform="scale(0.996264)"/>
       <use xlink:href="#CMSS17-30" transform="translate(46.843624 0) scale(0.996264)"/>
       <use xlink:href="#CMSS17-25" transform="translate(93.687247 0) scale(0.996264)"/>
      </g>
     </g>
    </g>
    <g id="ytick_5">
     <g id="line2d_5">
      <g>
       <use xlink:href="#mbd8b2276ed" x="38.88" y="53.794286" style="stroke: #000000; stroke-width: 0.8"/>
      </g>
     </g>
     <g id="text_5">
      <!-- 80\% -->
      <g transform="translate(13.615104 57.253535) scale(0.1 -0.1)">
       <defs>
        <path id="CMSS17-38" d="M 1933 2246 
C 2419 2406 2669 2793 2669 3174 
C 2669 3774 2157 4288 1504 4288 
C 826 4288 333 3755 333 3174 
C 333 2799 576 2412 1069 2246 
C 442 2003 250 1516 250 1152 
C 250 448 819 -128 1498 -128 
C 2202 -128 2752 460 2752 1152 
C 2752 1574 2502 2022 1933 2246 
z
M 1504 2438 
C 1075 2438 787 2728 787 3167 
C 787 3613 1075 3897 1504 3897 
C 1901 3897 2214 3639 2214 3167 
C 2214 2703 1907 2438 1504 2438 
z
M 1504 268 
C 1139 268 749 518 749 1158 
C 749 1817 1184 2048 1498 2048 
C 1843 2048 2253 1804 2253 1158 
C 2253 492 1830 268 1504 268 
z
" transform="scale(0.015625)"/>
       </defs>
       <use xlink:href="#CMSS17-38" transform="scale(0.996264)"/>
       <use xlink:href="#CMSS17-30" transform="translate(46.843624 0) scale(0.996264)"/>
       <use xlink:href="#CMSS17-25" transform="translate(93.687247 0) scale(0.996264)"/>
      </g>
     </g>
    </g>
    <g id="ytick_6">
     <g id="line2d_6">
      <g>
       <use xlink:href="#mbd8b2276ed" x="38.88" y="15.942857" style="stroke: #000000; stroke-width: 0.8"/>
      </g>
     </g>
     <g id="text_6">
      <!-- 100\% -->
      <g transform="translate(8.633769 19.402106) scale(0.1 -0.1)">
       <defs>
        <path id="CMSS17-31" d="M 1818 4288 
L 1696 4288 
C 1350 3949 947 3902 538 3891 
L 538 3520 
C 723 3526 1024 3539 1325 3673 
L 1325 371 
L 570 371 
L 570 0 
L 2573 0 
L 2573 371 
L 1818 371 
L 1818 4288 
z
" transform="scale(0.015625)"/>
       </defs>
       <use xlink:href="#CMSS17-31" transform="scale(0.996264)"/>
       <use xlink:href="#CMSS17-30" transform="translate(46.843624 0) scale(0.996264)"/>
       <use xlink:href="#CMSS17-30" transform="translate(93.687247 0) scale(0.996264)"/>
       <use xlink:href="#CMSS17-25" transform="translate(140.530871 0) scale(0.996264)"/>
      </g>
     </g>
    </g>
   </g>
   <g id="patch_12">
    <path d="M 38.88 205.2 
L 38.88 6.48 
" style="fill: none; stroke: #000000; stroke-width: 0.8; stroke-linejoin: miter; stroke-linecap: square"/>
   </g>
   <g id="patch_13">
    <path d="M 381.024 205.2 
L 381.024 6.48 
" style="fill: none; stroke: #000000; stroke-width: 0.8; stroke-linejoin: miter; stroke-linecap: square"/>
   </g>
   <g id="patch_14">
    <path d="M 38.88 205.2 
L 381.024 205.2 
" style="fill: none; stroke: #000000; stroke-width: 0.8; stroke-linejoin: miter; stroke-linecap: square"/>
   </g>
   <g id="patch_15">
    <path d="M 38.88 6.48 
L 381.024 6.48 
" style="fill: none; stroke: #000000; stroke-width: 0.8; stroke-linejoin: miter; stroke-linecap: square"/>
   </g>
   <g id="legend_1">
    <g id="patch_16">
     <path d="M 210.848884 134.181121 
L 374.024 134.181121 
Q 376.024 134.181121 376.024 132.181121 
L 376.024 13.48 
Q 376.024 11.48 374.024 11.48 
L 210.848884 11.48 
Q 208.848884 11.48 208.848884 13.48 
L 208.848884 132.181121 
Q 208.848884 134.181121 210.848884 134.181121 
z
" style="fill: #ffffff; opacity: 0.8; stroke: #cccccc; stroke-linejoin: miter"/>
    </g>
    <g id="patch_17">
     <path d="M 212.848884 22.95198 
L 232.848884 22.95198 
L 232.848884 15.95198 
L 212.848884 15.95198 
z
" style="fill: #fcffa4"/>
    </g>
    <g id="text_7">
     <!-- (1,2,1) -->
     <g transform="translate(240.848884 22.95198) scale(0.1 -0.1)">
      <defs>
       <path id="CMSS17-28" d="M 1613 4800 
C 1267 4447 474 3627 474 1603 
C 474 -428 1267 -1242 1613 -1600 
L 2003 -1600 
C 1216 -781 960 366 960 1596 
C 960 2820 1203 3973 2003 4800 
L 1613 4800 
z
" transform="scale(0.015625)"/>
       <path id="CMSS17-2c" d="M 1088 6 
L 1088 512 
L 576 512 
L 576 0 
L 736 0 
L 570 -775 
L 826 -775 
L 1088 6 
z
" transform="scale(0.015625)"/>
       <path id="CMSS17-29" d="M 723 -1600 
C 1069 -1248 1862 -428 1862 1596 
C 1862 3627 1069 4440 723 4800 
L 333 4800 
C 1120 3979 1376 2833 1376 1603 
C 1376 379 1133 -774 333 -1600 
L 723 -1600 
z
" transform="scale(0.015625)"/>
      </defs>
      <use xlink:href="#CMSS17-28" transform="scale(0.996264)"/>
      <use xlink:href="#CMSS17-31" transform="translate(36.433914 0) scale(0.996264)"/>
      <use xlink:href="#CMSS17-2c" transform="translate(83.277538 0) scale(0.996264)"/>
      <use xlink:href="#CMSS17-32" transform="translate(109.301743 0) scale(0.996264)"/>
      <use xlink:href="#CMSS17-2c" transform="translate(156.145366 0) scale(0.996264)"/>
      <use xlink:href="#CMSS17-31" transform="translate(182.169571 0) scale(0.996264)"/>
      <use xlink:href="#CMSS17-29" transform="translate(229.013195 0) scale(0.996264)"/>
     </g>
    </g>
    <g id="patch_18">
     <path d="M 212.848884 37.91462 
L 232.848884 37.91462 
L 232.848884 30.91462 
L 212.848884 30.91462 
z
" style="fill: #fac228"/>
    </g>
    <g id="text_8">
     <!-- (0,3,1), (1,3,0) -->
     <g transform="translate(240.848884 37.91462) scale(0.1 -0.1)">
      <defs>
       <path id="CMSS17-33" d="M 1005 2060 
L 1440 2060 
C 2042 2060 2214 1532 2214 1164 
C 2214 662 1933 268 1472 268 
C 1114 268 608 449 320 926 
C 275 700 275 687 250 533 
C 550 89 1037 -128 1485 -128 
C 2214 -128 2752 481 2752 1158 
C 2752 1667 2400 2092 1920 2252 
C 2304 2463 2586 2860 2586 3321 
C 2586 3859 2093 4288 1491 4288 
C 941 4288 512 3948 333 3583 
C 378 3519 493 3334 550 3238 
C 691 3615 1056 3897 1485 3897 
C 1843 3897 2080 3660 2080 3321 
C 2080 2969 1856 2585 1478 2496 
C 1453 2496 1056 2457 1005 2451 
L 1005 2060 
z
" transform="scale(0.015625)"/>
      </defs>
      <use xlink:href="#CMSS17-28" transform="scale(0.996264)"/>
      <use xlink:href="#CMSS17-30" transform="translate(36.433914 0) scale(0.996264)"/>
      <use xlink:href="#CMSS17-2c" transform="translate(83.277538 0) scale(0.996264)"/>
      <use xlink:href="#CMSS17-33" transform="translate(109.301743 0) scale(0.996264)"/>
      <use xlink:href="#CMSS17-2c" transform="translate(156.145366 0) scale(0.996264)"/>
      <use xlink:href="#CMSS17-31" transform="translate(182.169571 0) scale(0.996264)"/>
      <use xlink:href="#CMSS17-29" transform="translate(229.013195 0) scale(0.996264)"/>
      <use xlink:href="#CMSS17-2c" transform="translate(265.447109 0) scale(0.996264)"/>
      <use xlink:href="#CMSS17-28" transform="translate(322.700426 0) scale(0.996264)"/>
      <use xlink:href="#CMSS17-31" transform="translate(359.134341 0) scale(0.996264)"/>
      <use xlink:href="#CMSS17-2c" transform="translate(405.977964 0) scale(0.996264)"/>
      <use xlink:href="#CMSS17-33" transform="translate(432.002169 0) scale(0.996264)"/>
      <use xlink:href="#CMSS17-2c" transform="translate(478.845793 0) scale(0.996264)"/>
      <use xlink:href="#CMSS17-30" transform="translate(504.869997 0) scale(0.996264)"/>
      <use xlink:href="#CMSS17-29" transform="translate(551.713621 0) scale(0.996264)"/>
     </g>
    </g>
    <g id="patch_19">
     <path d="M 212.848884 52.87726 
L 232.848884 52.87726 
L 232.848884 45.87726 
L 212.848884 45.87726 
z
" style="fill: #f57d15"/>
    </g>
    <g id="text_9">
     <!-- (0,2,2), (2,2,0), (1,1,2), (2,1,1) -->
     <g transform="translate(240.848884 52.87726) scale(0.1 -0.1)">
      <use xlink:href="#CMSS17-28" transform="scale(0.996264)"/>
      <use xlink:href="#CMSS17-30" transform="translate(36.433914 0) scale(0.996264)"/>
      <use xlink:href="#CMSS17-2c" transform="translate(83.277538 0) scale(0.996264)"/>
      <use xlink:href="#CMSS17-32" transform="translate(109.301743 0) scale(0.996264)"/>
      <use xlink:href="#CMSS17-2c" transform="translate(156.145366 0) scale(0.996264)"/>
      <use xlink:href="#CMSS17-32" transform="translate(182.169571 0) scale(0.996264)"/>
      <use xlink:href="#CMSS17-29" transform="translate(229.013195 0) scale(0.996264)"/>
      <use xlink:href="#CMSS17-2c" transform="translate(265.447109 0) scale(0.996264)"/>
      <use xlink:href="#CMSS17-28" transform="translate(322.700426 0) scale(0.996264)"/>
      <use xlink:href="#CMSS17-32" transform="translate(359.134341 0) scale(0.996264)"/>
      <use xlink:href="#CMSS17-2c" transform="translate(405.977964 0) scale(0.996264)"/>
      <use xlink:href="#CMSS17-32" transform="translate(432.002169 0) scale(0.996264)"/>
      <use xlink:href="#CMSS17-2c" transform="translate(478.845793 0) scale(0.996264)"/>
      <use xlink:href="#CMSS17-30" transform="translate(504.869997 0) scale(0.996264)"/>
      <use xlink:href="#CMSS17-29" transform="translate(551.713621 0) scale(0.996264)"/>
      <use xlink:href="#CMSS17-2c" transform="translate(588.147535 0) scale(0.996264)"/>
      <use xlink:href="#CMSS17-28" transform="translate(645.400853 0) scale(0.996264)"/>
      <use xlink:href="#CMSS17-31" transform="translate(681.834767 0) scale(0.996264)"/>
      <use xlink:href="#CMSS17-2c" transform="translate(728.67839 0) scale(0.996264)"/>
      <use xlink:href="#CMSS17-31" transform="translate(754.702595 0) scale(0.996264)"/>
      <use xlink:href="#CMSS17-2c" transform="translate(801.546219 0) scale(0.996264)"/>
      <use xlink:href="#CMSS17-32" transform="translate(827.570424 0) scale(0.996264)"/>
      <use xlink:href="#CMSS17-29" transform="translate(874.414047 0) scale(0.996264)"/>
      <use xlink:href="#CMSS17-2c" transform="translate(910.847962 0) scale(0.996264)"/>
      <use xlink:href="#CMSS17-28" transform="translate(968.101279 0) scale(0.996264)"/>
      <use xlink:href="#CMSS17-32" transform="translate(1004.535193 0) scale(0.996264)"/>
      <use xlink:href="#CMSS17-2c" transform="translate(1051.378817 0) scale(0.996264)"/>
      <use xlink:href="#CMSS17-31" transform="translate(1077.403022 0) scale(0.996264)"/>
      <use xlink:href="#CMSS17-2c" transform="translate(1124.246645 0) scale(0.996264)"/>
      <use xlink:href="#CMSS17-31" transform="translate(1150.27085 0) scale(0.996264)"/>
      <use xlink:href="#CMSS17-29" transform="translate(1197.114474 0) scale(0.996264)"/>
     </g>
    </g>
    <g id="patch_20">
     <path d="M 212.848884 67.8399 
L 232.848884 67.8399 
L 232.848884 60.8399 
L 212.848884 60.8399 
z
" style="fill: #d44842"/>
    </g>
    <g id="text_10">
     <!-- (0,4,0) -->
     <g transform="translate(240.848884 67.8399) scale(0.1 -0.1)">
      <use xlink:href="#CMSS17-28" transform="scale(0.996264)"/>
      <use xlink:href="#CMSS17-30" transform="translate(36.433914 0) scale(0.996264)"/>
      <use xlink:href="#CMSS17-2c" transform="translate(83.277538 0) scale(0.996264)"/>
      <use xlink:href="#CMSS17-34" transform="translate(109.301743 0) scale(0.996264)"/>
      <use xlink:href="#CMSS17-2c" transform="translate(156.145366 0) scale(0.996264)"/>
      <use xlink:href="#CMSS17-30" transform="translate(182.169571 0) scale(0.996264)"/>
      <use xlink:href="#CMSS17-29" transform="translate(229.013195 0) scale(0.996264)"/>
     </g>
    </g>
    <g id="patch_21">
     <path d="M 212.848884 82.80254 
L 232.848884 82.80254 
L 232.848884 75.80254 
L 212.848884 75.80254 
z
" style="fill: #9f2a63"/>
    </g>
    <g id="text_11">
     <!-- (0,1,3), (3,1,0) -->
     <g transform="translate(240.848884 82.80254) scale(0.1 -0.1)">
      <use xlink:href="#CMSS17-28" transform="scale(0.996264)"/>
      <use xlink:href="#CMSS17-30" transform="translate(36.433914 0) scale(0.996264)"/>
      <use xlink:href="#CMSS17-2c" transform="translate(83.277538 0) scale(0.996264)"/>
      <use xlink:href="#CMSS17-31" transform="translate(109.301743 0) scale(0.996264)"/>
      <use xlink:href="#CMSS17-2c" transform="translate(156.145366 0) scale(0.996264)"/>
      <use xlink:href="#CMSS17-33" transform="translate(182.169571 0) scale(0.996264)"/>
      <use xlink:href="#CMSS17-29" transform="translate(229.013195 0) scale(0.996264)"/>
      <use xlink:href="#CMSS17-2c" transform="translate(265.447109 0) scale(0.996264)"/>
      <use xlink:href="#CMSS17-28" transform="translate(322.700426 0) scale(0.996264)"/>
      <use xlink:href="#CMSS17-33" transform="translate(359.134341 0) scale(0.996264)"/>
      <use xlink:href="#CMSS17-2c" transform="translate(405.977964 0) scale(0.996264)"/>
      <use xlink:href="#CMSS17-31" transform="translate(432.002169 0) scale(0.996264)"/>
      <use xlink:href="#CMSS17-2c" transform="translate(478.845793 0) scale(0.996264)"/>
      <use xlink:href="#CMSS17-30" transform="translate(504.869997 0) scale(0.996264)"/>
      <use xlink:href="#CMSS17-29" transform="translate(551.713621 0) scale(0.996264)"/>
     </g>
    </g>
    <g id="patch_22">
     <path d="M 212.848884 97.765181 
L 232.848884 97.765181 
L 232.848884 90.765181 
L 212.848884 90.765181 
z
" style="fill: #65156e"/>
    </g>
    <g id="text_12">
     <!-- (2,0,2) -->
     <g transform="translate(240.848884 97.765181) scale(0.1 -0.1)">
      <use xlink:href="#CMSS17-28" transform="scale(0.996264)"/>
      <use xlink:href="#CMSS17-32" transform="translate(36.433914 0) scale(0.996264)"/>
      <use xlink:href="#CMSS17-2c" transform="translate(83.277538 0) scale(0.996264)"/>
      <use xlink:href="#CMSS17-30" transform="translate(109.301743 0) scale(0.996264)"/>
      <use xlink:href="#CMSS17-2c" transform="translate(156.145366 0) scale(0.996264)"/>
      <use xlink:href="#CMSS17-32" transform="translate(182.169571 0) scale(0.996264)"/>
      <use xlink:href="#CMSS17-29" transform="translate(229.013195 0) scale(0.996264)"/>
     </g>
    </g>
    <g id="patch_23">
     <path d="M 212.848884 112.727821 
L 232.848884 112.727821 
L 232.848884 105.727821 
L 212.848884 105.727821 
z
" style="fill: #280b53"/>
    </g>
    <g id="text_13">
     <!-- (1,0,3), (3,0,1) -->
     <g transform="translate(240.848884 112.727821) scale(0.1 -0.1)">
      <use xlink:href="#CMSS17-28" transform="scale(0.996264)"/>
      <use xlink:href="#CMSS17-31" transform="translate(36.433914 0) scale(0.996264)"/>
      <use xlink:href="#CMSS17-2c" transform="translate(83.277538 0) scale(0.996264)"/>
      <use xlink:href="#CMSS17-30" transform="translate(109.301743 0) scale(0.996264)"/>
      <use xlink:href="#CMSS17-2c" transform="translate(156.145366 0) scale(0.996264)"/>
      <use xlink:href="#CMSS17-33" transform="translate(182.169571 0) scale(0.996264)"/>
      <use xlink:href="#CMSS17-29" transform="translate(229.013195 0) scale(0.996264)"/>
      <use xlink:href="#CMSS17-2c" transform="translate(265.447109 0) scale(0.996264)"/>
      <use xlink:href="#CMSS17-28" transform="translate(322.700426 0) scale(0.996264)"/>
      <use xlink:href="#CMSS17-33" transform="translate(359.134341 0) scale(0.996264)"/>
      <use xlink:href="#CMSS17-2c" transform="translate(405.977964 0) scale(0.996264)"/>
      <use xlink:href="#CMSS17-30" transform="translate(432.002169 0) scale(0.996264)"/>
      <use xlink:href="#CMSS17-2c" transform="translate(478.845793 0) scale(0.996264)"/>
      <use xlink:href="#CMSS17-31" transform="translate(504.869997 0) scale(0.996264)"/>
      <use xlink:href="#CMSS17-29" transform="translate(551.713621 0) scale(0.996264)"/>
     </g>
    </g>
    <g id="patch_24">
     <path d="M 212.848884 127.690461 
L 232.848884 127.690461 
L 232.848884 120.690461 
L 212.848884 120.690461 
z
" style="fill: #000004"/>
    </g>
    <g id="text_14">
     <!-- (4,0,0), (0,0,4) -->
     <g transform="translate(240.848884 127.690461) scale(0.1 -0.1)">
      <use xlink:href="#CMSS17-28" transform="scale(0.996264)"/>
      <use xlink:href="#CMSS17-34" transform="translate(36.433914 0) scale(0.996264)"/>
      <use xlink:href="#CMSS17-2c" transform="translate(83.277538 0) scale(0.996264)"/>
      <use xlink:href="#CMSS17-30" transform="translate(109.301743 0) scale(0.996264)"/>
      <use xlink:href="#CMSS17-2c" transform="translate(156.145366 0) scale(0.996264)"/>
      <use xlink:href="#CMSS17-30" transform="translate(182.169571 0) scale(0.996264)"/>
      <use xlink:href="#CMSS17-29" transform="translate(229.013195 0) scale(0.996264)"/>
      <use xlink:href="#CMSS17-2c" transform="translate(265.447109 0) scale(0.996264)"/>
      <use xlink:href="#CMSS17-28" transform="translate(322.700426 0) scale(0.996264)"/>
      <use xlink:href="#CMSS17-30" transform="translate(359.134341 0) scale(0.996264)"/>
      <use xlink:href="#CMSS17-2c" transform="translate(405.977964 0) scale(0.996264)"/>
      <use xlink:href="#CMSS17-30" transform="translate(432.002169 0) scale(0.996264)"/>
      <use xlink:href="#CMSS17-2c" transform="translate(478.845793 0) scale(0.996264)"/>
      <use xlink:href="#CMSS17-34" transform="translate(504.869997 0) scale(0.996264)"/>
      <use xlink:href="#CMSS17-29" transform="translate(551.713621 0) scale(0.996264)"/>
     </g>
    </g>
   </g>
  </g>
 </g>
 <defs>
  <clipPath id="pbea26daaa9">
   <rect x="38.88" y="6.48" width="342.144" height="198.72"/>
  </clipPath>
 </defs>
</svg>
