<?xml version="1.0" encoding="utf-8" standalone="no"?>
<!DOCTYPE svg PUBLIC "-//W3C//DTD SVG 1.1//EN"
  "http://www.w3.org/Graphics/SVG/1.1/DTD/svg11.dtd">
<svg xmlns:xlink="http://www.w3.org/1999/xlink" width="324pt" height="201.6pt" viewBox="0 0 324 201.6" xmlns="http://www.w3.org/2000/svg" version="1.1">
 <metadata>
  <rdf:RDF xmlns:dc="http://purl.org/dc/elements/1.1/" xmlns:cc="http://creativecommons.org/ns#" xmlns:rdf="http://www.w3.org/1999/02/22-rdf-syntax-ns#">
   <cc:Work>
    <dc:type rdf:resource="http://purl.org/dc/dcmitype/StillImage"/>
    <dc:date>2023-12-05T11:20:31.918097</dc:date>
    <dc:format>image/svg+xml</dc:format>
    <dc:creator>
     <cc:Agent>
      <dc:title>Matplotlib v3.8.0, https://matplotlib.org/</dc:title>
     </cc:Agent>
    </dc:creator>
   </cc:Work>
  </rdf:RDF>
 </metadata>
 <defs>
  <style type="text/css">*{stroke-linejoin: round; stroke-linecap: butt}</style>
 </defs>
 <g id="figure_1">
  <g id="patch_1">
   <path d="M 0 201.6 
L 324 201.6 
L 324 0 
L 0 0 
z
" style="fill: #ffffff"/>
  </g>
  <g id="axes_1">
   <g id="patch_2">
    <path d="M 51.84 80.201739 
L 311.04 80.201739 
L 311.04 10.08 
L 51.84 10.08 
z
" style="fill: #ffffff"/>
   </g>
   <g id="patch_3">
    <path d="M 53.021404 80.201739 
L 62.472634 80.201739 
L 62.472634 76.854144 
L 53.021404 76.854144 
z
" clip-path="url(#pa32a58294d)" style="fill: #1f77b4"/>
   </g>
   <g id="patch_4">
    <path d="M 64.835442 80.201739 
L 74.286673 80.201739 
L 74.286673 64.479326 
L 64.835442 64.479326 
z
" clip-path="url(#pa32a58294d)" style="fill: #1f77b4"/>
   </g>
   <g id="patch_5">
    <path d="M 76.64948 80.201739 
L 86.100711 80.201739 
L 86.100711 44.252177 
L 76.64948 44.252177 
z
" clip-path="url(#pa32a58294d)" style="fill: #1f77b4"/>
   </g>
   <g id="patch_6">
    <path d="M 88.463519 80.201739 
L 97.914749 80.201739 
L 97.914749 26.883287 
L 88.463519 26.883287 
z
" clip-path="url(#pa32a58294d)" style="fill: #1f77b4"/>
   </g>
   <g id="patch_7">
    <path d="M 100.277557 80.201739 
L 109.728788 80.201739 
L 109.728788 22.53993 
L 100.277557 22.53993 
z
" clip-path="url(#pa32a58294d)" style="fill: #1f77b4"/>
   </g>
   <g id="patch_8">
    <path d="M 112.091595 80.201739 
L 121.542826 80.201739 
L 121.542826 31.739904 
L 112.091595 31.739904 
z
" clip-path="url(#pa32a58294d)" style="fill: #1f77b4"/>
   </g>
   <g id="patch_9">
    <path d="M 123.905634 80.201739 
L 133.356864 80.201739 
L 133.356864 47.258582 
L 123.905634 47.258582 
z
" clip-path="url(#pa32a58294d)" style="fill: #1f77b4"/>
   </g>
   <g id="patch_10">
    <path d="M 135.719672 80.201739 
L 145.170902 80.201739 
L 145.170902 61.588591 
L 135.719672 61.588591 
z
" clip-path="url(#pa32a58294d)" style="fill: #1f77b4"/>
   </g>
   <g id="patch_11">
    <path d="M 147.53371 80.201739 
L 156.984941 80.201739 
L 156.984941 71.287296 
L 147.53371 71.287296 
z
" clip-path="url(#pa32a58294d)" style="fill: #1f77b4"/>
   </g>
   <g id="patch_12">
    <path d="M 159.347748 80.201739 
L 168.798979 80.201739 
L 168.798979 76.529122 
L 159.347748 76.529122 
z
" clip-path="url(#pa32a58294d)" style="fill: #ff7f0e"/>
   </g>
   <g id="patch_13">
    <path d="M 171.161787 80.201739 
L 180.613017 80.201739 
L 180.613017 78.885374 
L 171.161787 78.885374 
z
" clip-path="url(#pa32a58294d)" style="fill: #ff7f0e"/>
   </g>
   <g id="patch_14">
    <path d="M 182.975825 80.201739 
L 192.427056 80.201739 
L 192.427056 79.787602 
L 182.975825 79.787602 
z
" clip-path="url(#pa32a58294d)" style="fill: #ff7f0e"/>
   </g>
   <g id="patch_15">
    <path d="M 194.789863 80.201739 
L 204.241094 80.201739 
L 204.241094 80.086572 
L 194.789863 80.086572 
z
" clip-path="url(#pa32a58294d)" style="fill: #ff7f0e"/>
   </g>
   <g id="patch_16">
    <path d="M 206.603902 80.201739 
L 216.055132 80.201739 
L 216.055132 80.173271 
L 206.603902 80.173271 
z
" clip-path="url(#pa32a58294d)" style="fill: #ff7f0e"/>
   </g>
   <g id="patch_17">
    <path d="M 218.41794 80.201739 
L 227.86917 80.201739 
L 227.86917 80.195456 
L 218.41794 80.195456 
z
" clip-path="url(#pa32a58294d)" style="fill: #ff7f0e"/>
   </g>
   <g id="patch_18">
    <path d="M 230.231978 80.201739 
L 239.683209 80.201739 
L 239.683209 80.200497 
L 230.231978 80.200497 
z
" clip-path="url(#pa32a58294d)" style="fill: #ff7f0e"/>
   </g>
   <g id="patch_19">
    <path d="M 242.046016 80.201739 
L 251.497247 80.201739 
L 251.497247 80.201518 
L 242.046016 80.201518 
z
" clip-path="url(#pa32a58294d)" style="fill: #ff7f0e"/>
   </g>
   <g id="patch_20">
    <path d="M 253.860055 80.201739 
L 263.311285 80.201739 
L 263.311285 80.201704 
L 253.860055 80.201704 
z
" clip-path="url(#pa32a58294d)" style="fill: #ff7f0e"/>
   </g>
   <g id="patch_21">
    <path d="M 265.674093 80.201739 
L 275.125324 80.201739 
L 275.125324 80.201734 
L 265.674093 80.201734 
z
" clip-path="url(#pa32a58294d)" style="fill: #ff7f0e"/>
   </g>
   <g id="patch_22">
    <path d="M 277.488131 80.201739 
L 286.939362 80.201739 
L 286.939362 80.201738 
L 277.488131 80.201738 
z
" clip-path="url(#pa32a58294d)" style="fill: #ff7f0e"/>
   </g>
   <g id="patch_23">
    <path d="M 289.30217 80.201739 
L 298.7534 80.201739 
L 298.7534 80.201739 
L 289.30217 80.201739 
z
" clip-path="url(#pa32a58294d)" style="fill: #ff7f0e"/>
   </g>
   <g id="matplotlib.axis_1">
    <g id="xtick_1">
     <g id="line2d_1">
      <defs>
       <path id="m09327f749e" d="M 0 0 
L 0 3.5 
" style="stroke: #000000; stroke-width: 0.8"/>
      </defs>
      <g>
       <use xlink:href="#m09327f749e" x="57.747019" y="80.201739" style="stroke: #000000; stroke-width: 0.8"/>
      </g>
     </g>
     <g id="text_1">
      <!-- 0 -->
      <g transform="translate(54.565769 94.800177) scale(0.1 -0.1)">
       <defs>
        <path id="DejaVuSans-30" d="M 2034 4250 
Q 1547 4250 1301 3770 
Q 1056 3291 1056 2328 
Q 1056 1369 1301 889 
Q 1547 409 2034 409 
Q 2525 409 2770 889 
Q 3016 1369 3016 2328 
Q 3016 3291 2770 3770 
Q 2525 4250 2034 4250 
z
M 2034 4750 
Q 2819 4750 3233 4129 
Q 3647 3509 3647 2328 
Q 3647 1150 3233 529 
Q 2819 -91 2034 -91 
Q 1250 -91 836 529 
Q 422 1150 422 2328 
Q 422 3509 836 4129 
Q 1250 4750 2034 4750 
z
" transform="scale(0.015625)"/>
       </defs>
       <use xlink:href="#DejaVuSans-30"/>
      </g>
     </g>
    </g>
    <g id="xtick_2">
     <g id="line2d_2">
      <g>
       <use xlink:href="#m09327f749e" x="116.817211" y="80.201739" style="stroke: #000000; stroke-width: 0.8"/>
      </g>
     </g>
     <g id="text_2">
      <!-- 5 -->
      <g transform="translate(113.635961 94.800177) scale(0.1 -0.1)">
       <defs>
        <path id="DejaVuSans-35" d="M 691 4666 
L 3169 4666 
L 3169 4134 
L 1269 4134 
L 1269 2991 
Q 1406 3038 1543 3061 
Q 1681 3084 1819 3084 
Q 2600 3084 3056 2656 
Q 3513 2228 3513 1497 
Q 3513 744 3044 326 
Q 2575 -91 1722 -91 
Q 1428 -91 1123 -41 
Q 819 9 494 109 
L 494 744 
Q 775 591 1075 516 
Q 1375 441 1709 441 
Q 2250 441 2565 725 
Q 2881 1009 2881 1497 
Q 2881 1984 2565 2268 
Q 2250 2553 1709 2553 
Q 1456 2553 1204 2497 
Q 953 2441 691 2322 
L 691 4666 
z
" transform="scale(0.015625)"/>
       </defs>
       <use xlink:href="#DejaVuSans-35"/>
      </g>
     </g>
    </g>
    <g id="xtick_3">
     <g id="line2d_3">
      <g>
       <use xlink:href="#m09327f749e" x="175.887402" y="80.201739" style="stroke: #000000; stroke-width: 0.8"/>
      </g>
     </g>
     <g id="text_3">
      <!-- 10 -->
      <g transform="translate(169.524902 94.800177) scale(0.1 -0.1)">
       <defs>
        <path id="DejaVuSans-31" d="M 794 531 
L 1825 531 
L 1825 4091 
L 703 3866 
L 703 4441 
L 1819 4666 
L 2450 4666 
L 2450 531 
L 3481 531 
L 3481 0 
L 794 0 
L 794 531 
z
" transform="scale(0.015625)"/>
       </defs>
       <use xlink:href="#DejaVuSans-31"/>
       <use xlink:href="#DejaVuSans-30" x="63.623047"/>
      </g>
     </g>
    </g>
    <g id="xtick_4">
     <g id="line2d_4">
      <g>
       <use xlink:href="#m09327f749e" x="234.957593" y="80.201739" style="stroke: #000000; stroke-width: 0.8"/>
      </g>
     </g>
     <g id="text_4">
      <!-- 15 -->
      <g transform="translate(228.595093 94.800177) scale(0.1 -0.1)">
       <use xlink:href="#DejaVuSans-31"/>
       <use xlink:href="#DejaVuSans-35" x="63.623047"/>
      </g>
     </g>
    </g>
    <g id="xtick_5">
     <g id="line2d_5">
      <g>
       <use xlink:href="#m09327f749e" x="294.027785" y="80.201739" style="stroke: #000000; stroke-width: 0.8"/>
      </g>
     </g>
     <g id="text_5">
      <!-- 20 -->
      <g transform="translate(287.665285 94.800177) scale(0.1 -0.1)">
       <defs>
        <path id="DejaVuSans-32" d="M 1228 531 
L 3431 531 
L 3431 0 
L 469 0 
L 469 531 
Q 828 903 1448 1529 
Q 2069 2156 2228 2338 
Q 2531 2678 2651 2914 
Q 2772 3150 2772 3378 
Q 2772 3750 2511 3984 
Q 2250 4219 1831 4219 
Q 1534 4219 1204 4116 
Q 875 4013 500 3803 
L 500 4441 
Q 881 4594 1212 4672 
Q 1544 4750 1819 4750 
Q 2544 4750 2975 4387 
Q 3406 4025 3406 3419 
Q 3406 3131 3298 2873 
Q 3191 2616 2906 2266 
Q 2828 2175 2409 1742 
Q 1991 1309 1228 531 
z
" transform="scale(0.015625)"/>
       </defs>
       <use xlink:href="#DejaVuSans-32"/>
       <use xlink:href="#DejaVuSans-30" x="63.623047"/>
      </g>
     </g>
    </g>
   </g>
   <g id="matplotlib.axis_2">
    <g id="ytick_1">
     <g id="line2d_6">
      <defs>
       <path id="m518e4b19fa" d="M 0 0 
L -3.5 0 
" style="stroke: #000000; stroke-width: 0.8"/>
      </defs>
      <g>
       <use xlink:href="#m518e4b19fa" x="51.84" y="80.201739" style="stroke: #000000; stroke-width: 0.8"/>
      </g>
     </g>
     <g id="text_6">
      <!-- 0.0 -->
      <g transform="translate(28.936875 84.000958) scale(0.1 -0.1)">
       <defs>
        <path id="DejaVuSans-2e" d="M 684 794 
L 1344 794 
L 1344 0 
L 684 0 
L 684 794 
z
" transform="scale(0.015625)"/>
       </defs>
       <use xlink:href="#DejaVuSans-30"/>
       <use xlink:href="#DejaVuSans-2e" x="63.623047"/>
       <use xlink:href="#DejaVuSans-30" x="95.410156"/>
      </g>
     </g>
    </g>
    <g id="ytick_2">
     <g id="line2d_7">
      <g>
       <use xlink:href="#m518e4b19fa" x="51.84" y="52.153043" style="stroke: #000000; stroke-width: 0.8"/>
      </g>
     </g>
     <g id="text_7">
      <!-- 0.1 -->
      <g transform="translate(28.936875 55.952262) scale(0.1 -0.1)">
       <use xlink:href="#DejaVuSans-30"/>
       <use xlink:href="#DejaVuSans-2e" x="63.623047"/>
       <use xlink:href="#DejaVuSans-31" x="95.410156"/>
      </g>
     </g>
    </g>
    <g id="ytick_3">
     <g id="line2d_8">
      <g>
       <use xlink:href="#m518e4b19fa" x="51.84" y="24.104348" style="stroke: #000000; stroke-width: 0.8"/>
      </g>
     </g>
     <g id="text_8">
      <!-- 0.2 -->
      <g transform="translate(28.936875 27.903567) scale(0.1 -0.1)">
       <use xlink:href="#DejaVuSans-30"/>
       <use xlink:href="#DejaVuSans-2e" x="63.623047"/>
       <use xlink:href="#DejaVuSans-32" x="95.410156"/>
      </g>
     </g>
    </g>
    <g id="text_9">
     <!-- $B_{38,\,0.11}(k)$ -->
     <g transform="translate(22.436875 70.14087) rotate(-90) scale(0.1 -0.1)">
      <defs>
       <path id="DejaVuSans-Oblique-42" d="M 1081 4666 
L 2694 4666 
Q 3350 4666 3675 4422 
Q 4000 4178 4000 3688 
Q 4000 3238 3720 2911 
Q 3441 2584 2988 2516 
Q 3375 2428 3569 2181 
Q 3763 1934 3763 1522 
Q 3763 819 3242 409 
Q 2722 0 1819 0 
L 172 0 
L 1081 4666 
z
M 1234 2228 
L 903 519 
L 1919 519 
Q 2491 519 2800 781 
Q 3109 1044 3109 1522 
Q 3109 1891 2904 2059 
Q 2700 2228 2247 2228 
L 1234 2228 
z
M 1606 4147 
L 1331 2741 
L 2272 2741 
Q 2775 2741 3058 2959 
Q 3341 3178 3341 3566 
Q 3341 3869 3150 4008 
Q 2959 4147 2541 4147 
L 1606 4147 
z
" transform="scale(0.015625)"/>
       <path id="DejaVuSans-33" d="M 2597 2516 
Q 3050 2419 3304 2112 
Q 3559 1806 3559 1356 
Q 3559 666 3084 287 
Q 2609 -91 1734 -91 
Q 1441 -91 1130 -33 
Q 819 25 488 141 
L 488 750 
Q 750 597 1062 519 
Q 1375 441 1716 441 
Q 2309 441 2620 675 
Q 2931 909 2931 1356 
Q 2931 1769 2642 2001 
Q 2353 2234 1838 2234 
L 1294 2234 
L 1294 2753 
L 1863 2753 
Q 2328 2753 2575 2939 
Q 2822 3125 2822 3475 
Q 2822 3834 2567 4026 
Q 2313 4219 1838 4219 
Q 1578 4219 1281 4162 
Q 984 4106 628 3988 
L 628 4550 
Q 988 4650 1302 4700 
Q 1616 4750 1894 4750 
Q 2613 4750 3031 4423 
Q 3450 4097 3450 3541 
Q 3450 3153 3228 2886 
Q 3006 2619 2597 2516 
z
" transform="scale(0.015625)"/>
       <path id="DejaVuSans-38" d="M 2034 2216 
Q 1584 2216 1326 1975 
Q 1069 1734 1069 1313 
Q 1069 891 1326 650 
Q 1584 409 2034 409 
Q 2484 409 2743 651 
Q 3003 894 3003 1313 
Q 3003 1734 2745 1975 
Q 2488 2216 2034 2216 
z
M 1403 2484 
Q 997 2584 770 2862 
Q 544 3141 544 3541 
Q 544 4100 942 4425 
Q 1341 4750 2034 4750 
Q 2731 4750 3128 4425 
Q 3525 4100 3525 3541 
Q 3525 3141 3298 2862 
Q 3072 2584 2669 2484 
Q 3125 2378 3379 2068 
Q 3634 1759 3634 1313 
Q 3634 634 3220 271 
Q 2806 -91 2034 -91 
Q 1263 -91 848 271 
Q 434 634 434 1313 
Q 434 1759 690 2068 
Q 947 2378 1403 2484 
z
M 1172 3481 
Q 1172 3119 1398 2916 
Q 1625 2713 2034 2713 
Q 2441 2713 2670 2916 
Q 2900 3119 2900 3481 
Q 2900 3844 2670 4047 
Q 2441 4250 2034 4250 
Q 1625 4250 1398 4047 
Q 1172 3844 1172 3481 
z
" transform="scale(0.015625)"/>
       <path id="DejaVuSans-2c" d="M 750 794 
L 1409 794 
L 1409 256 
L 897 -744 
L 494 -744 
L 750 256 
L 750 794 
z
" transform="scale(0.015625)"/>
       <path id="DejaVuSans-28" d="M 1984 4856 
Q 1566 4138 1362 3434 
Q 1159 2731 1159 2009 
Q 1159 1288 1364 580 
Q 1569 -128 1984 -844 
L 1484 -844 
Q 1016 -109 783 600 
Q 550 1309 550 2009 
Q 550 2706 781 3412 
Q 1013 4119 1484 4856 
L 1984 4856 
z
" transform="scale(0.015625)"/>
       <path id="DejaVuSans-Oblique-6b" d="M 1172 4863 
L 1747 4863 
L 1197 2028 
L 3169 3500 
L 3916 3500 
L 1716 1825 
L 3322 0 
L 2625 0 
L 1131 1709 
L 800 0 
L 225 0 
L 1172 4863 
z
" transform="scale(0.015625)"/>
       <path id="DejaVuSans-29" d="M 513 4856 
L 1013 4856 
Q 1481 4119 1714 3412 
Q 1947 2706 1947 2009 
Q 1947 1309 1714 600 
Q 1481 -109 1013 -844 
L 513 -844 
Q 928 -128 1133 580 
Q 1338 1288 1338 2009 
Q 1338 2731 1133 3434 
Q 928 4138 513 4856 
z
" transform="scale(0.015625)"/>
      </defs>
      <use xlink:href="#DejaVuSans-Oblique-42" transform="translate(0 0.015625)"/>
      <use xlink:href="#DejaVuSans-33" transform="translate(68.603516 -16.390625) scale(0.7)"/>
      <use xlink:href="#DejaVuSans-38" transform="translate(113.139648 -16.390625) scale(0.7)"/>
      <use xlink:href="#DejaVuSans-2c" transform="translate(157.675781 -16.390625) scale(0.7)"/>
      <use xlink:href="#DejaVuSans-30" transform="translate(204.929427 -16.390625) scale(0.7)"/>
      <use xlink:href="#DejaVuSans-2e" transform="translate(249.465559 -16.390625) scale(0.7)"/>
      <use xlink:href="#DejaVuSans-31" transform="translate(271.716536 -16.390625) scale(0.7)"/>
      <use xlink:href="#DejaVuSans-31" transform="translate(316.252669 -16.390625) scale(0.7)"/>
      <use xlink:href="#DejaVuSans-28" transform="translate(363.523177 0.015625)"/>
      <use xlink:href="#DejaVuSans-Oblique-6b" transform="translate(402.536848 0.015625)"/>
      <use xlink:href="#DejaVuSans-29" transform="translate(460.447005 0.015625)"/>
     </g>
    </g>
   </g>
   <g id="patch_24">
    <path d="M 51.84 80.201739 
L 51.84 10.08 
" style="fill: none; stroke: #000000; stroke-width: 0.8; stroke-linejoin: miter; stroke-linecap: square"/>
   </g>
   <g id="patch_25">
    <path d="M 311.04 80.201739 
L 311.04 10.08 
" style="fill: none; stroke: #000000; stroke-width: 0.8; stroke-linejoin: miter; stroke-linecap: square"/>
   </g>
   <g id="patch_26">
    <path d="M 51.84 80.201739 
L 311.04 80.201739 
" style="fill: none; stroke: #000000; stroke-width: 0.8; stroke-linejoin: miter; stroke-linecap: square"/>
   </g>
   <g id="patch_27">
    <path d="M 51.84 10.08 
L 311.04 10.08 
" style="fill: none; stroke: #000000; stroke-width: 0.8; stroke-linejoin: miter; stroke-linecap: square"/>
   </g>
  </g>
  <g id="axes_2">
   <g id="patch_28">
    <path d="M 51.84 171.36 
L 311.04 171.36 
L 311.04 101.238261 
L 51.84 101.238261 
z
" style="fill: #ffffff"/>
   </g>
   <g id="patch_29">
    <path d="M 53.021404 171.36 
L 62.472634 171.36 
L 62.472634 170.776781 
L 53.021404 170.776781 
z
" clip-path="url(#p1f5f3ff04a)" style="fill: #ff7f0e"/>
   </g>
   <g id="patch_30">
    <path d="M 64.835442 171.36 
L 74.286673 171.36 
L 74.286673 167.449 
L 64.835442 167.449 
z
" clip-path="url(#p1f5f3ff04a)" style="fill: #ff7f0e"/>
   </g>
   <g id="patch_31">
    <path d="M 76.64948 171.36 
L 86.100711 171.36 
L 86.100711 158.591736 
L 76.64948 158.591736 
z
" clip-path="url(#p1f5f3ff04a)" style="fill: #ff7f0e"/>
   </g>
   <g id="patch_32">
    <path d="M 88.463519 171.36 
L 97.914749 171.36 
L 97.914749 144.321324 
L 88.463519 144.321324 
z
" clip-path="url(#p1f5f3ff04a)" style="fill: #ff7f0e"/>
   </g>
   <g id="patch_33">
    <path d="M 100.277557 171.36 
L 109.728788 171.36 
L 109.728788 129.609104 
L 100.277557 129.609104 
z
" clip-path="url(#p1f5f3ff04a)" style="fill: #ff7f0e"/>
   </g>
   <g id="patch_34">
    <path d="M 112.091595 171.36 
L 121.542826 171.36 
L 121.542826 121.258924 
L 112.091595 121.258924 
z
" clip-path="url(#p1f5f3ff04a)" style="fill: #ff7f0e"/>
   </g>
   <g id="patch_35">
    <path d="M 123.905634 171.36 
L 133.356864 171.36 
L 133.356864 122.732485 
L 123.905634 122.732485 
z
" clip-path="url(#p1f5f3ff04a)" style="fill: #ff7f0e"/>
   </g>
   <g id="patch_36">
    <path d="M 135.719672 171.36 
L 145.170902 171.36 
L 145.170902 132.131081 
L 135.719672 132.131081 
z
" clip-path="url(#p1f5f3ff04a)" style="fill: #ff7f0e"/>
   </g>
   <g id="patch_37">
    <path d="M 147.53371 171.36 
L 156.984941 171.36 
L 156.984941 144.534342 
L 147.53371 144.534342 
z
" clip-path="url(#p1f5f3ff04a)" style="fill: #ff7f0e"/>
   </g>
   <g id="patch_38">
    <path d="M 159.347748 171.36 
L 168.798979 171.36 
L 168.798979 155.580201 
L 159.347748 155.580201 
z
" clip-path="url(#p1f5f3ff04a)" style="fill: #1f77b4"/>
   </g>
   <g id="patch_39">
    <path d="M 171.161787 171.36 
L 180.613017 171.36 
L 180.613017 163.284456 
L 171.161787 163.284456 
z
" clip-path="url(#p1f5f3ff04a)" style="fill: #1f77b4"/>
   </g>
   <g id="patch_40">
    <path d="M 182.975825 171.36 
L 192.427056 171.36 
L 192.427056 167.732483 
L 182.975825 167.732483 
z
" clip-path="url(#p1f5f3ff04a)" style="fill: #1f77b4"/>
   </g>
   <g id="patch_41">
    <path d="M 194.789863 171.36 
L 204.241094 171.36 
L 204.241094 169.919662 
L 194.789863 169.919662 
z
" clip-path="url(#p1f5f3ff04a)" style="fill: #1f77b4"/>
   </g>
   <g id="patch_42">
    <path d="M 206.603902 171.36 
L 216.055132 171.36 
L 216.055132 170.851646 
L 206.603902 170.851646 
z
" clip-path="url(#p1f5f3ff04a)" style="fill: #1f77b4"/>
   </g>
   <g id="patch_43">
    <path d="M 218.41794 171.36 
L 227.86917 171.36 
L 227.86917 171.199804 
L 218.41794 171.199804 
z
" clip-path="url(#p1f5f3ff04a)" style="fill: #1f77b4"/>
   </g>
   <g id="patch_44">
    <path d="M 230.231978 171.36 
L 239.683209 171.36 
L 239.683209 171.314768 
L 230.231978 171.314768 
z
" clip-path="url(#p1f5f3ff04a)" style="fill: #1f77b4"/>
   </g>
   <g id="patch_45">
    <path d="M 242.046016 171.36 
L 251.497247 171.36 
L 251.497247 171.348526 
L 242.046016 171.348526 
z
" clip-path="url(#p1f5f3ff04a)" style="fill: #1f77b4"/>
   </g>
   <g id="patch_46">
    <path d="M 253.860055 171.36 
L 263.311285 171.36 
L 263.311285 171.35738 
L 253.860055 171.35738 
z
" clip-path="url(#p1f5f3ff04a)" style="fill: #1f77b4"/>
   </g>
   <g id="patch_47">
    <path d="M 265.674093 171.36 
L 275.125324 171.36 
L 275.125324 171.359461 
L 265.674093 171.359461 
z
" clip-path="url(#p1f5f3ff04a)" style="fill: #1f77b4"/>
   </g>
   <g id="patch_48">
    <path d="M 277.488131 171.36 
L 286.939362 171.36 
L 286.939362 171.3599 
L 277.488131 171.3599 
z
" clip-path="url(#p1f5f3ff04a)" style="fill: #1f77b4"/>
   </g>
   <g id="patch_49">
    <path d="M 289.30217 171.36 
L 298.7534 171.36 
L 298.7534 171.359983 
L 289.30217 171.359983 
z
" clip-path="url(#p1f5f3ff04a)" style="fill: #1f77b4"/>
   </g>
   <g id="matplotlib.axis_3">
    <g id="xtick_6">
     <g id="line2d_9">
      <g>
       <use xlink:href="#m09327f749e" x="57.747019" y="171.36" style="stroke: #000000; stroke-width: 0.8"/>
      </g>
     </g>
     <g id="text_10">
      <!-- 0 -->
      <g transform="translate(54.565769 185.958438) scale(0.1 -0.1)">
       <use xlink:href="#DejaVuSans-30"/>
      </g>
     </g>
    </g>
    <g id="xtick_7">
     <g id="line2d_10">
      <g>
       <use xlink:href="#m09327f749e" x="116.817211" y="171.36" style="stroke: #000000; stroke-width: 0.8"/>
      </g>
     </g>
     <g id="text_11">
      <!-- 5 -->
      <g transform="translate(113.635961 185.958438) scale(0.1 -0.1)">
       <use xlink:href="#DejaVuSans-35"/>
      </g>
     </g>
    </g>
    <g id="xtick_8">
     <g id="line2d_11">
      <g>
       <use xlink:href="#m09327f749e" x="175.887402" y="171.36" style="stroke: #000000; stroke-width: 0.8"/>
      </g>
     </g>
     <g id="text_12">
      <!-- 10 -->
      <g transform="translate(169.524902 185.958438) scale(0.1 -0.1)">
       <use xlink:href="#DejaVuSans-31"/>
       <use xlink:href="#DejaVuSans-30" x="63.623047"/>
      </g>
     </g>
    </g>
    <g id="xtick_9">
     <g id="line2d_12">
      <g>
       <use xlink:href="#m09327f749e" x="234.957593" y="171.36" style="stroke: #000000; stroke-width: 0.8"/>
      </g>
     </g>
     <g id="text_13">
      <!-- 15 -->
      <g transform="translate(228.595093 185.958438) scale(0.1 -0.1)">
       <use xlink:href="#DejaVuSans-31"/>
       <use xlink:href="#DejaVuSans-35" x="63.623047"/>
      </g>
     </g>
    </g>
    <g id="xtick_10">
     <g id="line2d_13">
      <g>
       <use xlink:href="#m09327f749e" x="294.027785" y="171.36" style="stroke: #000000; stroke-width: 0.8"/>
      </g>
     </g>
     <g id="text_14">
      <!-- 20 -->
      <g transform="translate(287.665285 185.958438) scale(0.1 -0.1)">
       <use xlink:href="#DejaVuSans-32"/>
       <use xlink:href="#DejaVuSans-30" x="63.623047"/>
      </g>
     </g>
    </g>
    <g id="text_15">
     <!-- $k$ -->
     <g transform="translate(178.54 199.636563) scale(0.1 -0.1)">
      <use xlink:href="#DejaVuSans-Oblique-6b" transform="translate(0 0.015625)"/>
     </g>
    </g>
   </g>
   <g id="matplotlib.axis_4">
    <g id="ytick_4">
     <g id="line2d_14">
      <g>
       <use xlink:href="#m518e4b19fa" x="51.84" y="171.36" style="stroke: #000000; stroke-width: 0.8"/>
      </g>
     </g>
     <g id="text_16">
      <!-- 0.0 -->
      <g transform="translate(28.936875 175.159219) scale(0.1 -0.1)">
       <use xlink:href="#DejaVuSans-30"/>
       <use xlink:href="#DejaVuSans-2e" x="63.623047"/>
       <use xlink:href="#DejaVuSans-30" x="95.410156"/>
      </g>
     </g>
    </g>
    <g id="ytick_5">
     <g id="line2d_15">
      <g>
       <use xlink:href="#m518e4b19fa" x="51.84" y="143.311304" style="stroke: #000000; stroke-width: 0.8"/>
      </g>
     </g>
     <g id="text_17">
      <!-- 0.1 -->
      <g transform="translate(28.936875 147.110523) scale(0.1 -0.1)">
       <use xlink:href="#DejaVuSans-30"/>
       <use xlink:href="#DejaVuSans-2e" x="63.623047"/>
       <use xlink:href="#DejaVuSans-31" x="95.410156"/>
      </g>
     </g>
    </g>
    <g id="ytick_6">
     <g id="line2d_16">
      <g>
       <use xlink:href="#m518e4b19fa" x="51.84" y="115.262609" style="stroke: #000000; stroke-width: 0.8"/>
      </g>
     </g>
     <g id="text_18">
      <!-- 0.2 -->
      <g transform="translate(28.936875 119.061827) scale(0.1 -0.1)">
       <use xlink:href="#DejaVuSans-30"/>
       <use xlink:href="#DejaVuSans-2e" x="63.623047"/>
       <use xlink:href="#DejaVuSans-32" x="95.410156"/>
      </g>
     </g>
    </g>
    <g id="text_19">
     <!-- $B_{38,\,0.15}(k)$ -->
     <g transform="translate(22.436875 161.29913) rotate(-90) scale(0.1 -0.1)">
      <use xlink:href="#DejaVuSans-Oblique-42" transform="translate(0 0.015625)"/>
      <use xlink:href="#DejaVuSans-33" transform="translate(68.603516 -16.390625) scale(0.7)"/>
      <use xlink:href="#DejaVuSans-38" transform="translate(113.139648 -16.390625) scale(0.7)"/>
      <use xlink:href="#DejaVuSans-2c" transform="translate(157.675781 -16.390625) scale(0.7)"/>
      <use xlink:href="#DejaVuSans-30" transform="translate(204.929427 -16.390625) scale(0.7)"/>
      <use xlink:href="#DejaVuSans-2e" transform="translate(249.465559 -16.390625) scale(0.7)"/>
      <use xlink:href="#DejaVuSans-31" transform="translate(271.716536 -16.390625) scale(0.7)"/>
      <use xlink:href="#DejaVuSans-35" transform="translate(316.252669 -16.390625) scale(0.7)"/>
      <use xlink:href="#DejaVuSans-28" transform="translate(363.523177 0.015625)"/>
      <use xlink:href="#DejaVuSans-Oblique-6b" transform="translate(402.536848 0.015625)"/>
      <use xlink:href="#DejaVuSans-29" transform="translate(460.447005 0.015625)"/>
     </g>
    </g>
   </g>
   <g id="patch_50">
    <path d="M 51.84 171.36 
L 51.84 101.238261 
" style="fill: none; stroke: #000000; stroke-width: 0.8; stroke-linejoin: miter; stroke-linecap: square"/>
   </g>
   <g id="patch_51">
    <path d="M 311.04 171.36 
L 311.04 101.238261 
" style="fill: none; stroke: #000000; stroke-width: 0.8; stroke-linejoin: miter; stroke-linecap: square"/>
   </g>
   <g id="patch_52">
    <path d="M 51.84 171.36 
L 311.04 171.36 
" style="fill: none; stroke: #000000; stroke-width: 0.8; stroke-linejoin: miter; stroke-linecap: square"/>
   </g>
   <g id="patch_53">
    <path d="M 51.84 101.238261 
L 311.04 101.238261 
" style="fill: none; stroke: #000000; stroke-width: 0.8; stroke-linejoin: miter; stroke-linecap: square"/>
   </g>
  </g>
 </g>
 <defs>
  <clipPath id="pa32a58294d">
   <rect x="51.84" y="10.08" width="259.2" height="70.121739"/>
  </clipPath>
  <clipPath id="p1f5f3ff04a">
   <rect x="51.84" y="101.238261" width="259.2" height="70.121739"/>
  </clipPath>
 </defs>
</svg>
