<?xml version="1.0" encoding="utf-8" standalone="no"?>
<!DOCTYPE svg PUBLIC "-//W3C//DTD SVG 1.1//EN"
  "http://www.w3.org/Graphics/SVG/1.1/DTD/svg11.dtd">
<svg xmlns:xlink="http://www.w3.org/1999/xlink" width="288pt" height="201.6pt" viewBox="0 0 288 201.6" xmlns="http://www.w3.org/2000/svg" version="1.1">
 <metadata>
  <rdf:RDF xmlns:dc="http://purl.org/dc/elements/1.1/" xmlns:cc="http://creativecommons.org/ns#" xmlns:rdf="http://www.w3.org/1999/02/22-rdf-syntax-ns#">
   <cc:Work>
    <dc:type rdf:resource="http://purl.org/dc/dcmitype/StillImage"/>
    <dc:date>2024-11-12T09:53:47.790442</dc:date>
    <dc:format>image/svg+xml</dc:format>
    <dc:creator>
     <cc:Agent>
      <dc:title>Matplotlib v3.9.2, https://matplotlib.org/</dc:title>
     </cc:Agent>
    </dc:creator>
   </cc:Work>
  </rdf:RDF>
 </metadata>
 <defs>
  <style type="text/css">*{stroke-linejoin: round; stroke-linecap: butt}</style>
 </defs>
 <g id="figure_1">
  <g id="patch_1">
   <path d="M 0 201.6 
L 288 201.6 
L 288 0 
L 0 0 
z
" style="fill: #ffffff"/>
  </g>
  <g id="axes_1">
   <g id="patch_2">
    <path d="M 77.76 167.328 
L 276.48 167.328 
L 276.48 24.192 
L 77.76 24.192 
z
" style="fill: #ffffff"/>
   </g>
   <g id="patch_3">
    <path d="M 78.69252 167.328 
L 80.55756 167.328 
L 80.55756 167.328 
L 78.69252 167.328 
z
" clip-path="url(#pecb4b64243)" style="fill: #1f77b4; stroke: #1f77b4; stroke-linejoin: miter"/>
   </g>
   <g id="patch_4">
    <path d="M 80.55756 167.328 
L 82.4226 167.328 
L 82.4226 167.328 
L 80.55756 167.328 
z
" clip-path="url(#pecb4b64243)" style="fill: #1f77b4; stroke: #1f77b4; stroke-linejoin: miter"/>
   </g>
   <g id="patch_5">
    <path d="M 82.4226 167.328 
L 84.28764 167.328 
L 84.28764 167.328 
L 82.4226 167.328 
z
" clip-path="url(#pecb4b64243)" style="fill: #1f77b4; stroke: #1f77b4; stroke-linejoin: miter"/>
   </g>
   <g id="patch_6">
    <path d="M 84.28764 167.328 
L 86.152679 167.328 
L 86.152679 167.328 
L 84.28764 167.328 
z
" clip-path="url(#pecb4b64243)" style="fill: #1f77b4; stroke: #1f77b4; stroke-linejoin: miter"/>
   </g>
   <g id="patch_7">
    <path d="M 86.152679 167.328 
L 88.017719 167.328 
L 88.017719 167.328 
L 86.152679 167.328 
z
" clip-path="url(#pecb4b64243)" style="fill: #1f77b4; stroke: #1f77b4; stroke-linejoin: miter"/>
   </g>
   <g id="patch_8">
    <path d="M 88.017719 167.328 
L 89.882759 167.328 
L 89.882759 167.328 
L 88.017719 167.328 
z
" clip-path="url(#pecb4b64243)" style="fill: #1f77b4; stroke: #1f77b4; stroke-linejoin: miter"/>
   </g>
   <g id="patch_9">
    <path d="M 89.882759 167.328 
L 91.747799 167.328 
L 91.747799 167.328 
L 89.882759 167.328 
z
" clip-path="url(#pecb4b64243)" style="fill: #1f77b4; stroke: #1f77b4; stroke-linejoin: miter"/>
   </g>
   <g id="patch_10">
    <path d="M 91.747799 167.328 
L 93.612839 167.328 
L 93.612839 167.328 
L 91.747799 167.328 
z
" clip-path="url(#pecb4b64243)" style="fill: #1f77b4; stroke: #1f77b4; stroke-linejoin: miter"/>
   </g>
   <g id="patch_11">
    <path d="M 93.612839 167.328 
L 95.477879 167.328 
L 95.477879 167.328 
L 93.612839 167.328 
z
" clip-path="url(#pecb4b64243)" style="fill: #1f77b4; stroke: #1f77b4; stroke-linejoin: miter"/>
   </g>
   <g id="patch_12">
    <path d="M 95.477879 167.328 
L 97.342919 167.328 
L 97.342919 167.328 
L 95.477879 167.328 
z
" clip-path="url(#pecb4b64243)" style="fill: #1f77b4; stroke: #1f77b4; stroke-linejoin: miter"/>
   </g>
   <g id="patch_13">
    <path d="M 97.342919 167.328 
L 99.207959 167.328 
L 99.207959 167.328 
L 97.342919 167.328 
z
" clip-path="url(#pecb4b64243)" style="fill: #1f77b4; stroke: #1f77b4; stroke-linejoin: miter"/>
   </g>
   <g id="patch_14">
    <path d="M 99.207959 167.328 
L 101.072999 167.328 
L 101.072999 167.328 
L 99.207959 167.328 
z
" clip-path="url(#pecb4b64243)" style="fill: #1f77b4; stroke: #1f77b4; stroke-linejoin: miter"/>
   </g>
   <g id="patch_15">
    <path d="M 101.072999 167.328 
L 102.938038 167.328 
L 102.938038 167.328 
L 101.072999 167.328 
z
" clip-path="url(#pecb4b64243)" style="fill: #1f77b4; stroke: #1f77b4; stroke-linejoin: miter"/>
   </g>
   <g id="patch_16">
    <path d="M 102.938038 167.328 
L 104.803078 167.328 
L 104.803078 167.328 
L 102.938038 167.328 
z
" clip-path="url(#pecb4b64243)" style="fill: #1f77b4; stroke: #1f77b4; stroke-linejoin: miter"/>
   </g>
   <g id="patch_17">
    <path d="M 104.803078 167.328 
L 106.668118 167.328 
L 106.668118 167.328 
L 104.803078 167.328 
z
" clip-path="url(#pecb4b64243)" style="fill: #1f77b4; stroke: #1f77b4; stroke-linejoin: miter"/>
   </g>
   <g id="patch_18">
    <path d="M 106.668118 167.328 
L 108.533158 167.328 
L 108.533158 167.328 
L 106.668118 167.328 
z
" clip-path="url(#pecb4b64243)" style="fill: #1f77b4; stroke: #1f77b4; stroke-linejoin: miter"/>
   </g>
   <g id="patch_19">
    <path d="M 108.533158 167.328 
L 110.398198 167.328 
L 110.398198 167.328 
L 108.533158 167.328 
z
" clip-path="url(#pecb4b64243)" style="fill: #1f77b4; stroke: #1f77b4; stroke-linejoin: miter"/>
   </g>
   <g id="patch_20">
    <path d="M 110.398198 167.328 
L 112.263238 167.328 
L 112.263238 167.328 
L 110.398198 167.328 
z
" clip-path="url(#pecb4b64243)" style="fill: #1f77b4; stroke: #1f77b4; stroke-linejoin: miter"/>
   </g>
   <g id="patch_21">
    <path d="M 112.263238 167.328 
L 114.128278 167.328 
L 114.128278 167.328 
L 112.263238 167.328 
z
" clip-path="url(#pecb4b64243)" style="fill: #1f77b4; stroke: #1f77b4; stroke-linejoin: miter"/>
   </g>
   <g id="patch_22">
    <path d="M 114.128278 167.328 
L 115.993318 167.328 
L 115.993318 167.328 
L 114.128278 167.328 
z
" clip-path="url(#pecb4b64243)" style="fill: #1f77b4; stroke: #1f77b4; stroke-linejoin: miter"/>
   </g>
   <g id="patch_23">
    <path d="M 115.993318 167.328 
L 117.858358 167.328 
L 117.858358 167.328 
L 115.993318 167.328 
z
" clip-path="url(#pecb4b64243)" style="fill: #1f77b4; stroke: #1f77b4; stroke-linejoin: miter"/>
   </g>
   <g id="patch_24">
    <path d="M 117.858358 167.328 
L 119.723397 167.328 
L 119.723397 167.328 
L 117.858358 167.328 
z
" clip-path="url(#pecb4b64243)" style="fill: #1f77b4; stroke: #1f77b4; stroke-linejoin: miter"/>
   </g>
   <g id="patch_25">
    <path d="M 119.723397 167.328 
L 121.588437 167.328 
L 121.588437 167.328 
L 119.723397 167.328 
z
" clip-path="url(#pecb4b64243)" style="fill: #1f77b4; stroke: #1f77b4; stroke-linejoin: miter"/>
   </g>
   <g id="patch_26">
    <path d="M 121.588437 167.328 
L 123.453477 167.328 
L 123.453477 167.328 
L 121.588437 167.328 
z
" clip-path="url(#pecb4b64243)" style="fill: #1f77b4; stroke: #1f77b4; stroke-linejoin: miter"/>
   </g>
   <g id="patch_27">
    <path d="M 123.453477 167.328 
L 125.318517 167.328 
L 125.318517 167.328 
L 123.453477 167.328 
z
" clip-path="url(#pecb4b64243)" style="fill: #1f77b4; stroke: #1f77b4; stroke-linejoin: miter"/>
   </g>
   <g id="patch_28">
    <path d="M 125.318517 167.328 
L 127.183557 167.328 
L 127.183557 167.328 
L 125.318517 167.328 
z
" clip-path="url(#pecb4b64243)" style="fill: #1f77b4; stroke: #1f77b4; stroke-linejoin: miter"/>
   </g>
   <g id="patch_29">
    <path d="M 127.183557 167.328 
L 129.048597 167.328 
L 129.048597 167.328 
L 127.183557 167.328 
z
" clip-path="url(#pecb4b64243)" style="fill: #1f77b4; stroke: #1f77b4; stroke-linejoin: miter"/>
   </g>
   <g id="patch_30">
    <path d="M 129.048597 167.328 
L 130.913637 167.328 
L 130.913637 167.328 
L 129.048597 167.328 
z
" clip-path="url(#pecb4b64243)" style="fill: #1f77b4; stroke: #1f77b4; stroke-linejoin: miter"/>
   </g>
   <g id="patch_31">
    <path d="M 130.913637 167.328 
L 132.778677 167.328 
L 132.778677 167.328 
L 130.913637 167.328 
z
" clip-path="url(#pecb4b64243)" style="fill: #1f77b4; stroke: #1f77b4; stroke-linejoin: miter"/>
   </g>
   <g id="patch_32">
    <path d="M 132.778677 167.328 
L 134.643717 167.328 
L 134.643717 167.328 
L 132.778677 167.328 
z
" clip-path="url(#pecb4b64243)" style="fill: #1f77b4; stroke: #1f77b4; stroke-linejoin: miter"/>
   </g>
   <g id="patch_33">
    <path d="M 134.643717 167.328 
L 136.508756 167.328 
L 136.508756 167.328 
L 134.643717 167.328 
z
" clip-path="url(#pecb4b64243)" style="fill: #1f77b4; stroke: #1f77b4; stroke-linejoin: miter"/>
   </g>
   <g id="patch_34">
    <path d="M 136.508756 167.328 
L 138.373796 167.328 
L 138.373796 167.328 
L 136.508756 167.328 
z
" clip-path="url(#pecb4b64243)" style="fill: #1f77b4; stroke: #1f77b4; stroke-linejoin: miter"/>
   </g>
   <g id="patch_35">
    <path d="M 138.373796 167.328 
L 140.238836 167.328 
L 140.238836 167.328 
L 138.373796 167.328 
z
" clip-path="url(#pecb4b64243)" style="fill: #1f77b4; stroke: #1f77b4; stroke-linejoin: miter"/>
   </g>
   <g id="patch_36">
    <path d="M 140.238836 167.328 
L 142.103876 167.328 
L 142.103876 167.328 
L 140.238836 167.328 
z
" clip-path="url(#pecb4b64243)" style="fill: #1f77b4; stroke: #1f77b4; stroke-linejoin: miter"/>
   </g>
   <g id="patch_37">
    <path d="M 142.103876 167.328 
L 143.968916 167.328 
L 143.968916 167.328 
L 142.103876 167.328 
z
" clip-path="url(#pecb4b64243)" style="fill: #1f77b4; stroke: #1f77b4; stroke-linejoin: miter"/>
   </g>
   <g id="patch_38">
    <path d="M 143.968916 167.328 
L 145.833956 167.328 
L 145.833956 167.328 
L 143.968916 167.328 
z
" clip-path="url(#pecb4b64243)" style="fill: #1f77b4; stroke: #1f77b4; stroke-linejoin: miter"/>
   </g>
   <g id="patch_39">
    <path d="M 145.833956 167.328 
L 147.698996 167.328 
L 147.698996 167.328 
L 145.833956 167.328 
z
" clip-path="url(#pecb4b64243)" style="fill: #1f77b4; stroke: #1f77b4; stroke-linejoin: miter"/>
   </g>
   <g id="patch_40">
    <path d="M 147.698996 167.328 
L 149.564036 167.328 
L 149.564036 167.328 
L 147.698996 167.328 
z
" clip-path="url(#pecb4b64243)" style="fill: #1f77b4; stroke: #1f77b4; stroke-linejoin: miter"/>
   </g>
   <g id="patch_41">
    <path d="M 149.564036 167.328 
L 151.429076 167.328 
L 151.429076 167.328 
L 149.564036 167.328 
z
" clip-path="url(#pecb4b64243)" style="fill: #1f77b4; stroke: #1f77b4; stroke-linejoin: miter"/>
   </g>
   <g id="patch_42">
    <path d="M 151.429076 167.328 
L 153.294115 167.328 
L 153.294115 167.328 
L 151.429076 167.328 
z
" clip-path="url(#pecb4b64243)" style="fill: #1f77b4; stroke: #1f77b4; stroke-linejoin: miter"/>
   </g>
   <g id="patch_43">
    <path d="M 153.294115 167.328 
L 155.159155 167.328 
L 155.159155 167.328 
L 153.294115 167.328 
z
" clip-path="url(#pecb4b64243)" style="fill: #1f77b4; stroke: #1f77b4; stroke-linejoin: miter"/>
   </g>
   <g id="patch_44">
    <path d="M 155.159155 167.328 
L 157.024195 167.328 
L 157.024195 167.328 
L 155.159155 167.328 
z
" clip-path="url(#pecb4b64243)" style="fill: #1f77b4; stroke: #1f77b4; stroke-linejoin: miter"/>
   </g>
   <g id="patch_45">
    <path d="M 157.024195 167.328 
L 158.889235 167.328 
L 158.889235 167.328 
L 157.024195 167.328 
z
" clip-path="url(#pecb4b64243)" style="fill: #1f77b4; stroke: #1f77b4; stroke-linejoin: miter"/>
   </g>
   <g id="patch_46">
    <path d="M 158.889235 167.328 
L 160.754275 167.328 
L 160.754275 167.328 
L 158.889235 167.328 
z
" clip-path="url(#pecb4b64243)" style="fill: #1f77b4; stroke: #1f77b4; stroke-linejoin: miter"/>
   </g>
   <g id="patch_47">
    <path d="M 160.754275 167.328 
L 162.619315 167.328 
L 162.619315 167.328 
L 160.754275 167.328 
z
" clip-path="url(#pecb4b64243)" style="fill: #1f77b4; stroke: #1f77b4; stroke-linejoin: miter"/>
   </g>
   <g id="patch_48">
    <path d="M 162.619315 167.328 
L 164.484355 167.328 
L 164.484355 167.328 
L 162.619315 167.328 
z
" clip-path="url(#pecb4b64243)" style="fill: #1f77b4; stroke: #1f77b4; stroke-linejoin: miter"/>
   </g>
   <g id="patch_49">
    <path d="M 164.484355 167.328 
L 166.349395 167.328 
L 166.349395 167.327999 
L 164.484355 167.327999 
z
" clip-path="url(#pecb4b64243)" style="fill: #1f77b4; stroke: #1f77b4; stroke-linejoin: miter"/>
   </g>
   <g id="patch_50">
    <path d="M 166.349395 167.328 
L 168.214435 167.328 
L 168.214435 167.327998 
L 166.349395 167.327998 
z
" clip-path="url(#pecb4b64243)" style="fill: #1f77b4; stroke: #1f77b4; stroke-linejoin: miter"/>
   </g>
   <g id="patch_51">
    <path d="M 168.214435 167.328 
L 170.079474 167.328 
L 170.079474 167.327993 
L 168.214435 167.327993 
z
" clip-path="url(#pecb4b64243)" style="fill: #1f77b4; stroke: #1f77b4; stroke-linejoin: miter"/>
   </g>
   <g id="patch_52">
    <path d="M 170.079474 167.328 
L 171.944514 167.328 
L 171.944514 167.327978 
L 170.079474 167.327978 
z
" clip-path="url(#pecb4b64243)" style="fill: #1f77b4; stroke: #1f77b4; stroke-linejoin: miter"/>
   </g>
   <g id="patch_53">
    <path d="M 171.944514 167.328 
L 173.809554 167.328 
L 173.809554 167.327933 
L 171.944514 167.327933 
z
" clip-path="url(#pecb4b64243)" style="fill: #1f77b4; stroke: #1f77b4; stroke-linejoin: miter"/>
   </g>
   <g id="patch_54">
    <path d="M 173.809554 167.328 
L 175.674594 167.328 
L 175.674594 167.327803 
L 173.809554 167.327803 
z
" clip-path="url(#pecb4b64243)" style="fill: #1f77b4; stroke: #1f77b4; stroke-linejoin: miter"/>
   </g>
   <g id="patch_55">
    <path d="M 175.674594 167.328 
L 177.539634 167.328 
L 177.539634 167.327443 
L 175.674594 167.327443 
z
" clip-path="url(#pecb4b64243)" style="fill: #1f77b4; stroke: #1f77b4; stroke-linejoin: miter"/>
   </g>
   <g id="patch_56">
    <path d="M 177.539634 167.328 
L 179.404674 167.328 
L 179.404674 167.326488 
L 177.539634 167.326488 
z
" clip-path="url(#pecb4b64243)" style="fill: #1f77b4; stroke: #1f77b4; stroke-linejoin: miter"/>
   </g>
   <g id="patch_57">
    <path d="M 179.404674 167.328 
L 181.269714 167.328 
L 181.269714 167.324052 
L 179.404674 167.324052 
z
" clip-path="url(#pecb4b64243)" style="fill: #1f77b4; stroke: #1f77b4; stroke-linejoin: miter"/>
   </g>
   <g id="patch_58">
    <path d="M 181.269714 167.328 
L 183.134754 167.328 
L 183.134754 167.318094 
L 181.269714 167.318094 
z
" clip-path="url(#pecb4b64243)" style="fill: #1f77b4; stroke: #1f77b4; stroke-linejoin: miter"/>
   </g>
   <g id="patch_59">
    <path d="M 183.134754 167.328 
L 184.999794 167.328 
L 184.999794 167.304119 
L 183.134754 167.304119 
z
" clip-path="url(#pecb4b64243)" style="fill: #1f77b4; stroke: #1f77b4; stroke-linejoin: miter"/>
   </g>
   <g id="patch_60">
    <path d="M 184.999794 167.328 
L 186.864833 167.328 
L 186.864833 167.272698 
L 184.999794 167.272698 
z
" clip-path="url(#pecb4b64243)" style="fill: #1f77b4; stroke: #1f77b4; stroke-linejoin: miter"/>
   </g>
   <g id="patch_61">
    <path d="M 186.864833 167.328 
L 188.729873 167.328 
L 188.729873 167.205 
L 186.864833 167.205 
z
" clip-path="url(#pecb4b64243)" style="fill: #1f77b4; stroke: #1f77b4; stroke-linejoin: miter"/>
   </g>
   <g id="patch_62">
    <path d="M 188.729873 167.328 
L 190.594913 167.328 
L 190.594913 167.065322 
L 188.729873 167.065322 
z
" clip-path="url(#pecb4b64243)" style="fill: #1f77b4; stroke: #1f77b4; stroke-linejoin: miter"/>
   </g>
   <g id="patch_63">
    <path d="M 190.594913 167.328 
L 192.459953 167.328 
L 192.459953 166.789509 
L 190.594913 166.789509 
z
" clip-path="url(#pecb4b64243)" style="fill: #1f77b4; stroke: #1f77b4; stroke-linejoin: miter"/>
   </g>
   <g id="patch_64">
    <path d="M 192.459953 167.328 
L 194.324993 167.328 
L 194.324993 166.268674 
L 192.459953 166.268674 
z
" clip-path="url(#pecb4b64243)" style="fill: #1f77b4; stroke: #1f77b4; stroke-linejoin: miter"/>
   </g>
   <g id="patch_65">
    <path d="M 194.324993 167.328 
L 196.190033 167.328 
L 196.190033 165.328949 
L 194.324993 165.328949 
z
" clip-path="url(#pecb4b64243)" style="fill: #1f77b4; stroke: #1f77b4; stroke-linejoin: miter"/>
   </g>
   <g id="patch_66">
    <path d="M 196.190033 167.328 
L 198.055073 167.328 
L 198.055073 163.71067 
L 196.190033 163.71067 
z
" clip-path="url(#pecb4b64243)" style="fill: #1f77b4; stroke: #1f77b4; stroke-linejoin: miter"/>
   </g>
   <g id="patch_67">
    <path d="M 198.055073 167.328 
L 199.920113 167.328 
L 199.920113 161.054193 
L 198.055073 161.054193 
z
" clip-path="url(#pecb4b64243)" style="fill: #1f77b4; stroke: #1f77b4; stroke-linejoin: miter"/>
   </g>
   <g id="patch_68">
    <path d="M 199.920113 167.328 
L 201.785153 167.328 
L 201.785153 156.903829 
L 199.920113 156.903829 
z
" clip-path="url(#pecb4b64243)" style="fill: #1f77b4; stroke: #1f77b4; stroke-linejoin: miter"/>
   </g>
   <g id="patch_69">
    <path d="M 201.785153 167.328 
L 203.650192 167.328 
L 203.650192 150.744091 
L 201.785153 150.744091 
z
" clip-path="url(#pecb4b64243)" style="fill: #1f77b4; stroke: #1f77b4; stroke-linejoin: miter"/>
   </g>
   <g id="patch_70">
    <path d="M 203.650192 167.328 
L 205.515232 167.328 
L 205.515232 142.080856 
L 203.650192 142.080856 
z
" clip-path="url(#pecb4b64243)" style="fill: #1f77b4; stroke: #1f77b4; stroke-linejoin: miter"/>
   </g>
   <g id="patch_71">
    <path d="M 205.515232 167.328 
L 207.380272 167.328 
L 207.380272 130.571128 
L 205.515232 130.571128 
z
" clip-path="url(#pecb4b64243)" style="fill: #1f77b4; stroke: #1f77b4; stroke-linejoin: miter"/>
   </g>
   <g id="patch_72">
    <path d="M 207.380272 167.328 
L 209.245312 167.328 
L 209.245312 116.188004 
L 207.380272 116.188004 
z
" clip-path="url(#pecb4b64243)" style="fill: #1f77b4; stroke: #1f77b4; stroke-linejoin: miter"/>
   </g>
   <g id="patch_73">
    <path d="M 209.245312 167.328 
L 211.110352 167.328 
L 211.110352 99.384863 
L 209.245312 99.384863 
z
" clip-path="url(#pecb4b64243)" style="fill: #1f77b4; stroke: #1f77b4; stroke-linejoin: miter"/>
   </g>
   <g id="patch_74">
    <path d="M 211.110352 167.328 
L 212.975392 167.328 
L 212.975392 81.202896 
L 211.110352 81.202896 
z
" clip-path="url(#pecb4b64243)" style="fill: #1f77b4; stroke: #1f77b4; stroke-linejoin: miter"/>
   </g>
   <g id="patch_75">
    <path d="M 212.975392 167.328 
L 214.840432 167.328 
L 214.840432 63.260167 
L 212.975392 63.260167 
z
" clip-path="url(#pecb4b64243)" style="fill: #1f77b4; stroke: #1f77b4; stroke-linejoin: miter"/>
   </g>
   <g id="patch_76">
    <path d="M 214.840432 167.328 
L 216.705472 167.328 
L 216.705472 47.578712 
L 214.840432 47.578712 
z
" clip-path="url(#pecb4b64243)" style="fill: #1f77b4; stroke: #1f77b4; stroke-linejoin: miter"/>
   </g>
   <g id="patch_77">
    <path d="M 216.705472 167.328 
L 218.570511 167.328 
L 218.570511 36.251077 
L 216.705472 36.251077 
z
" clip-path="url(#pecb4b64243)" style="fill: #1f77b4; stroke: #1f77b4; stroke-linejoin: miter"/>
   </g>
   <g id="patch_78">
    <path d="M 218.570511 167.328 
L 220.435551 167.328 
L 220.435551 31.008 
L 218.570511 31.008 
z
" clip-path="url(#pecb4b64243)" style="fill: #1f77b4; stroke: #1f77b4; stroke-linejoin: miter"/>
   </g>
   <g id="patch_79">
    <path d="M 220.435551 167.328 
L 222.300591 167.328 
L 222.300591 32.801684 
L 220.435551 32.801684 
z
" clip-path="url(#pecb4b64243)" style="fill: #1f77b4; stroke: #1f77b4; stroke-linejoin: miter"/>
   </g>
   <g id="patch_80">
    <path d="M 222.300591 167.328 
L 224.165631 167.328 
L 224.165631 41.537159 
L 222.300591 41.537159 
z
" clip-path="url(#pecb4b64243)" style="fill: #1f77b4; stroke: #1f77b4; stroke-linejoin: miter"/>
   </g>
   <g id="patch_81">
    <path d="M 224.165631 167.328 
L 226.030671 167.328 
L 226.030671 56.051487 
L 224.165631 56.051487 
z
" clip-path="url(#pecb4b64243)" style="fill: #1f77b4; stroke: #1f77b4; stroke-linejoin: miter"/>
   </g>
   <g id="patch_82">
    <path d="M 226.030671 167.328 
L 227.895711 167.328 
L 227.895711 74.362812 
L 226.030671 74.362812 
z
" clip-path="url(#pecb4b64243)" style="fill: #1f77b4; stroke: #1f77b4; stroke-linejoin: miter"/>
   </g>
   <g id="patch_83">
    <path d="M 227.895711 167.328 
L 229.760751 167.328 
L 229.760751 94.117914 
L 227.895711 94.117914 
z
" clip-path="url(#pecb4b64243)" style="fill: #1f77b4; stroke: #1f77b4; stroke-linejoin: miter"/>
   </g>
   <g id="patch_84">
    <path d="M 229.760751 167.328 
L 231.625791 167.328 
L 231.625791 113.098307 
L 229.760751 113.098307 
z
" clip-path="url(#pecb4b64243)" style="fill: #1f77b4; stroke: #1f77b4; stroke-linejoin: miter"/>
   </g>
   <g id="patch_85">
    <path d="M 231.625791 167.328 
L 233.490831 167.328 
L 233.490831 129.63175 
L 231.625791 129.63175 
z
" clip-path="url(#pecb4b64243)" style="fill: #1f77b4; stroke: #1f77b4; stroke-linejoin: miter"/>
   </g>
   <g id="patch_86">
    <path d="M 233.490831 167.328 
L 235.35587 167.328 
L 235.35587 142.802729 
L 233.490831 142.802729 
z
" clip-path="url(#pecb4b64243)" style="fill: #1f77b4; stroke: #1f77b4; stroke-linejoin: miter"/>
   </g>
   <g id="patch_87">
    <path d="M 235.35587 167.328 
L 237.22091 167.328 
L 237.22091 152.437657 
L 235.35587 152.437657 
z
" clip-path="url(#pecb4b64243)" style="fill: #1f77b4; stroke: #1f77b4; stroke-linejoin: miter"/>
   </g>
   <g id="patch_88">
    <path d="M 237.22091 167.328 
L 239.08595 167.328 
L 239.08595 158.919336 
L 237.22091 158.919336 
z
" clip-path="url(#pecb4b64243)" style="fill: #1f77b4; stroke: #1f77b4; stroke-linejoin: miter"/>
   </g>
   <g id="patch_89">
    <path d="M 239.08595 167.328 
L 240.95099 167.328 
L 240.95099 162.928117 
L 239.08595 162.928117 
z
" clip-path="url(#pecb4b64243)" style="fill: #1f77b4; stroke: #1f77b4; stroke-linejoin: miter"/>
   </g>
   <g id="patch_90">
    <path d="M 240.95099 167.328 
L 242.81603 167.328 
L 242.81603 165.203919 
L 240.95099 165.203919 
z
" clip-path="url(#pecb4b64243)" style="fill: #1f77b4; stroke: #1f77b4; stroke-linejoin: miter"/>
   </g>
   <g id="patch_91">
    <path d="M 242.81603 167.328 
L 244.68107 167.328 
L 244.68107 166.386646 
L 242.81603 166.386646 
z
" clip-path="url(#pecb4b64243)" style="fill: #1f77b4; stroke: #1f77b4; stroke-linejoin: miter"/>
   </g>
   <g id="patch_92">
    <path d="M 244.68107 167.328 
L 246.54611 167.328 
L 246.54611 166.947228 
L 244.68107 166.947228 
z
" clip-path="url(#pecb4b64243)" style="fill: #1f77b4; stroke: #1f77b4; stroke-linejoin: miter"/>
   </g>
   <g id="patch_93">
    <path d="M 246.54611 167.328 
L 248.41115 167.328 
L 248.41115 167.188383 
L 246.54611 167.188383 
z
" clip-path="url(#pecb4b64243)" style="fill: #1f77b4; stroke: #1f77b4; stroke-linejoin: miter"/>
   </g>
   <g id="patch_94">
    <path d="M 248.41115 167.328 
L 250.27619 167.328 
L 250.27619 167.281973 
L 248.41115 167.281973 
z
" clip-path="url(#pecb4b64243)" style="fill: #1f77b4; stroke: #1f77b4; stroke-linejoin: miter"/>
   </g>
   <g id="patch_95">
    <path d="M 250.27619 167.328 
L 252.141229 167.328 
L 252.141229 167.314492 
L 250.27619 167.314492 
z
" clip-path="url(#pecb4b64243)" style="fill: #1f77b4; stroke: #1f77b4; stroke-linejoin: miter"/>
   </g>
   <g id="patch_96">
    <path d="M 252.141229 167.328 
L 254.006269 167.328 
L 254.006269 167.324514 
L 252.141229 167.324514 
z
" clip-path="url(#pecb4b64243)" style="fill: #1f77b4; stroke: #1f77b4; stroke-linejoin: miter"/>
   </g>
   <g id="patch_97">
    <path d="M 254.006269 167.328 
L 255.871309 167.328 
L 255.871309 167.327221 
L 254.006269 167.327221 
z
" clip-path="url(#pecb4b64243)" style="fill: #1f77b4; stroke: #1f77b4; stroke-linejoin: miter"/>
   </g>
   <g id="patch_98">
    <path d="M 255.871309 167.328 
L 257.736349 167.328 
L 257.736349 167.327852 
L 255.871309 167.327852 
z
" clip-path="url(#pecb4b64243)" style="fill: #1f77b4; stroke: #1f77b4; stroke-linejoin: miter"/>
   </g>
   <g id="patch_99">
    <path d="M 257.736349 167.328 
L 259.601389 167.328 
L 259.601389 167.327977 
L 257.736349 167.327977 
z
" clip-path="url(#pecb4b64243)" style="fill: #1f77b4; stroke: #1f77b4; stroke-linejoin: miter"/>
   </g>
   <g id="patch_100">
    <path d="M 259.601389 167.328 
L 261.466429 167.328 
L 261.466429 167.327997 
L 259.601389 167.327997 
z
" clip-path="url(#pecb4b64243)" style="fill: #1f77b4; stroke: #1f77b4; stroke-linejoin: miter"/>
   </g>
   <g id="patch_101">
    <path d="M 261.466429 167.328 
L 263.331469 167.328 
L 263.331469 167.328 
L 261.466429 167.328 
z
" clip-path="url(#pecb4b64243)" style="fill: #1f77b4; stroke: #1f77b4; stroke-linejoin: miter"/>
   </g>
   <g id="patch_102">
    <path d="M 263.331469 167.328 
L 265.196509 167.328 
L 265.196509 167.328 
L 263.331469 167.328 
z
" clip-path="url(#pecb4b64243)" style="fill: #1f77b4; stroke: #1f77b4; stroke-linejoin: miter"/>
   </g>
   <g id="patch_103">
    <path d="M 265.196509 167.328 
L 267.061549 167.328 
L 267.061549 167.328 
L 265.196509 167.328 
z
" clip-path="url(#pecb4b64243)" style="fill: #1f77b4; stroke: #1f77b4; stroke-linejoin: miter"/>
   </g>
   <g id="matplotlib.axis_1">
    <g id="xtick_1">
     <g id="line2d_1">
      <defs>
       <path id="m7cdbed7a7b" d="M 0 0 
L 0 3.5 
" style="stroke: #000000; stroke-width: 0.8"/>
      </defs>
      <g>
       <use xlink:href="#m7cdbed7a7b" x="79.62504" y="167.328" style="stroke: #000000; stroke-width: 0.8"/>
      </g>
     </g>
     <g id="text_1">
      <!-- 0 -->
      <g transform="translate(76.44379 181.926437) scale(0.1 -0.1)">
       <defs>
        <path id="DejaVuSans-30" d="M 2034 4250 
Q 1547 4250 1301 3770 
Q 1056 3291 1056 2328 
Q 1056 1369 1301 889 
Q 1547 409 2034 409 
Q 2525 409 2770 889 
Q 3016 1369 3016 2328 
Q 3016 3291 2770 3770 
Q 2525 4250 2034 4250 
z
M 2034 4750 
Q 2819 4750 3233 4129 
Q 3647 3509 3647 2328 
Q 3647 1150 3233 529 
Q 2819 -91 2034 -91 
Q 1250 -91 836 529 
Q 422 1150 422 2328 
Q 422 3509 836 4129 
Q 1250 4750 2034 4750 
z
" transform="scale(0.015625)"/>
       </defs>
       <use xlink:href="#DejaVuSans-30"/>
      </g>
     </g>
    </g>
    <g id="xtick_2">
     <g id="line2d_2">
      <g>
       <use xlink:href="#m7cdbed7a7b" x="116.925838" y="167.328" style="stroke: #000000; stroke-width: 0.8"/>
      </g>
     </g>
     <g id="text_2">
      <!-- 20 -->
      <g transform="translate(110.563338 181.926437) scale(0.1 -0.1)">
       <defs>
        <path id="DejaVuSans-32" d="M 1228 531 
L 3431 531 
L 3431 0 
L 469 0 
L 469 531 
Q 828 903 1448 1529 
Q 2069 2156 2228 2338 
Q 2531 2678 2651 2914 
Q 2772 3150 2772 3378 
Q 2772 3750 2511 3984 
Q 2250 4219 1831 4219 
Q 1534 4219 1204 4116 
Q 875 4013 500 3803 
L 500 4441 
Q 881 4594 1212 4672 
Q 1544 4750 1819 4750 
Q 2544 4750 2975 4387 
Q 3406 4025 3406 3419 
Q 3406 3131 3298 2873 
Q 3191 2616 2906 2266 
Q 2828 2175 2409 1742 
Q 1991 1309 1228 531 
z
" transform="scale(0.015625)"/>
       </defs>
       <use xlink:href="#DejaVuSans-32"/>
       <use xlink:href="#DejaVuSans-30" x="63.623047"/>
      </g>
     </g>
    </g>
    <g id="xtick_3">
     <g id="line2d_3">
      <g>
       <use xlink:href="#m7cdbed7a7b" x="154.226635" y="167.328" style="stroke: #000000; stroke-width: 0.8"/>
      </g>
     </g>
     <g id="text_3">
      <!-- 40 -->
      <g transform="translate(147.864135 181.926437) scale(0.1 -0.1)">
       <defs>
        <path id="DejaVuSans-34" d="M 2419 4116 
L 825 1625 
L 2419 1625 
L 2419 4116 
z
M 2253 4666 
L 3047 4666 
L 3047 1625 
L 3713 1625 
L 3713 1100 
L 3047 1100 
L 3047 0 
L 2419 0 
L 2419 1100 
L 313 1100 
L 313 1709 
L 2253 4666 
z
" transform="scale(0.015625)"/>
       </defs>
       <use xlink:href="#DejaVuSans-34"/>
       <use xlink:href="#DejaVuSans-30" x="63.623047"/>
      </g>
     </g>
    </g>
    <g id="xtick_4">
     <g id="line2d_4">
      <g>
       <use xlink:href="#m7cdbed7a7b" x="191.527433" y="167.328" style="stroke: #000000; stroke-width: 0.8"/>
      </g>
     </g>
     <g id="text_4">
      <!-- 60 -->
      <g transform="translate(185.164933 181.926437) scale(0.1 -0.1)">
       <defs>
        <path id="DejaVuSans-36" d="M 2113 2584 
Q 1688 2584 1439 2293 
Q 1191 2003 1191 1497 
Q 1191 994 1439 701 
Q 1688 409 2113 409 
Q 2538 409 2786 701 
Q 3034 994 3034 1497 
Q 3034 2003 2786 2293 
Q 2538 2584 2113 2584 
z
M 3366 4563 
L 3366 3988 
Q 3128 4100 2886 4159 
Q 2644 4219 2406 4219 
Q 1781 4219 1451 3797 
Q 1122 3375 1075 2522 
Q 1259 2794 1537 2939 
Q 1816 3084 2150 3084 
Q 2853 3084 3261 2657 
Q 3669 2231 3669 1497 
Q 3669 778 3244 343 
Q 2819 -91 2113 -91 
Q 1303 -91 875 529 
Q 447 1150 447 2328 
Q 447 3434 972 4092 
Q 1497 4750 2381 4750 
Q 2619 4750 2861 4703 
Q 3103 4656 3366 4563 
z
" transform="scale(0.015625)"/>
       </defs>
       <use xlink:href="#DejaVuSans-36"/>
       <use xlink:href="#DejaVuSans-30" x="63.623047"/>
      </g>
     </g>
    </g>
    <g id="xtick_5">
     <g id="line2d_5">
      <g>
       <use xlink:href="#m7cdbed7a7b" x="228.828231" y="167.328" style="stroke: #000000; stroke-width: 0.8"/>
      </g>
     </g>
     <g id="text_5">
      <!-- 80 -->
      <g transform="translate(222.465731 181.926437) scale(0.1 -0.1)">
       <defs>
        <path id="DejaVuSans-38" d="M 2034 2216 
Q 1584 2216 1326 1975 
Q 1069 1734 1069 1313 
Q 1069 891 1326 650 
Q 1584 409 2034 409 
Q 2484 409 2743 651 
Q 3003 894 3003 1313 
Q 3003 1734 2745 1975 
Q 2488 2216 2034 2216 
z
M 1403 2484 
Q 997 2584 770 2862 
Q 544 3141 544 3541 
Q 544 4100 942 4425 
Q 1341 4750 2034 4750 
Q 2731 4750 3128 4425 
Q 3525 4100 3525 3541 
Q 3525 3141 3298 2862 
Q 3072 2584 2669 2484 
Q 3125 2378 3379 2068 
Q 3634 1759 3634 1313 
Q 3634 634 3220 271 
Q 2806 -91 2034 -91 
Q 1263 -91 848 271 
Q 434 634 434 1313 
Q 434 1759 690 2068 
Q 947 2378 1403 2484 
z
M 1172 3481 
Q 1172 3119 1398 2916 
Q 1625 2713 2034 2713 
Q 2441 2713 2670 2916 
Q 2900 3119 2900 3481 
Q 2900 3844 2670 4047 
Q 2441 4250 2034 4250 
Q 1625 4250 1398 4047 
Q 1172 3844 1172 3481 
z
" transform="scale(0.015625)"/>
       </defs>
       <use xlink:href="#DejaVuSans-38"/>
       <use xlink:href="#DejaVuSans-30" x="63.623047"/>
      </g>
     </g>
    </g>
    <g id="xtick_6">
     <g id="line2d_6">
      <g>
       <use xlink:href="#m7cdbed7a7b" x="266.129029" y="167.328" style="stroke: #000000; stroke-width: 0.8"/>
      </g>
     </g>
     <g id="text_6">
      <!-- 100 -->
      <g transform="translate(256.585279 181.926437) scale(0.1 -0.1)">
       <defs>
        <path id="DejaVuSans-31" d="M 794 531 
L 1825 531 
L 1825 4091 
L 703 3866 
L 703 4441 
L 1819 4666 
L 2450 4666 
L 2450 531 
L 3481 531 
L 3481 0 
L 794 0 
L 794 531 
z
" transform="scale(0.015625)"/>
       </defs>
       <use xlink:href="#DejaVuSans-31"/>
       <use xlink:href="#DejaVuSans-30" x="63.623047"/>
       <use xlink:href="#DejaVuSans-30" x="127.246094"/>
      </g>
     </g>
    </g>
    <g id="text_7">
     <!-- $k$ -->
     <g transform="translate(174.22 195.604562) scale(0.1 -0.1)">
      <defs>
       <path id="DejaVuSans-Oblique-6b" d="M 1172 4863 
L 1747 4863 
L 1197 2028 
L 3169 3500 
L 3916 3500 
L 1716 1825 
L 3322 0 
L 2625 0 
L 1131 1709 
L 800 0 
L 225 0 
L 1172 4863 
z
" transform="scale(0.015625)"/>
      </defs>
      <use xlink:href="#DejaVuSans-Oblique-6b" transform="translate(0 0.015625)"/>
     </g>
    </g>
   </g>
   <g id="matplotlib.axis_2">
    <g id="ytick_1">
     <g id="line2d_7">
      <defs>
       <path id="m968033b1bd" d="M 0 0 
L -3.5 0 
" style="stroke: #000000; stroke-width: 0.8"/>
      </defs>
      <g>
       <use xlink:href="#m968033b1bd" x="77.76" y="167.328" style="stroke: #000000; stroke-width: 0.8"/>
      </g>
     </g>
     <g id="text_8">
      <!-- 0.00 -->
      <g transform="translate(48.494375 171.127219) scale(0.1 -0.1)">
       <defs>
        <path id="DejaVuSans-2e" d="M 684 794 
L 1344 794 
L 1344 0 
L 684 0 
L 684 794 
z
" transform="scale(0.015625)"/>
       </defs>
       <use xlink:href="#DejaVuSans-30"/>
       <use xlink:href="#DejaVuSans-2e" x="63.623047"/>
       <use xlink:href="#DejaVuSans-30" x="95.410156"/>
       <use xlink:href="#DejaVuSans-30" x="159.033203"/>
      </g>
     </g>
    </g>
    <g id="ytick_2">
     <g id="line2d_8">
      <g>
       <use xlink:href="#m968033b1bd" x="77.76" y="137.628554" style="stroke: #000000; stroke-width: 0.8"/>
      </g>
     </g>
     <g id="text_9">
      <!-- 0.02 -->
      <g transform="translate(48.494375 141.427773) scale(0.1 -0.1)">
       <use xlink:href="#DejaVuSans-30"/>
       <use xlink:href="#DejaVuSans-2e" x="63.623047"/>
       <use xlink:href="#DejaVuSans-30" x="95.410156"/>
       <use xlink:href="#DejaVuSans-32" x="159.033203"/>
      </g>
     </g>
    </g>
    <g id="ytick_3">
     <g id="line2d_9">
      <g>
       <use xlink:href="#m968033b1bd" x="77.76" y="107.929108" style="stroke: #000000; stroke-width: 0.8"/>
      </g>
     </g>
     <g id="text_10">
      <!-- 0.04 -->
      <g transform="translate(48.494375 111.728326) scale(0.1 -0.1)">
       <use xlink:href="#DejaVuSans-30"/>
       <use xlink:href="#DejaVuSans-2e" x="63.623047"/>
       <use xlink:href="#DejaVuSans-30" x="95.410156"/>
       <use xlink:href="#DejaVuSans-34" x="159.033203"/>
      </g>
     </g>
    </g>
    <g id="ytick_4">
     <g id="line2d_10">
      <g>
       <use xlink:href="#m968033b1bd" x="77.76" y="78.229662" style="stroke: #000000; stroke-width: 0.8"/>
      </g>
     </g>
     <g id="text_11">
      <!-- 0.06 -->
      <g transform="translate(48.494375 82.02888) scale(0.1 -0.1)">
       <use xlink:href="#DejaVuSans-30"/>
       <use xlink:href="#DejaVuSans-2e" x="63.623047"/>
       <use xlink:href="#DejaVuSans-30" x="95.410156"/>
       <use xlink:href="#DejaVuSans-36" x="159.033203"/>
      </g>
     </g>
    </g>
    <g id="ytick_5">
     <g id="line2d_11">
      <g>
       <use xlink:href="#m968033b1bd" x="77.76" y="48.530215" style="stroke: #000000; stroke-width: 0.8"/>
      </g>
     </g>
     <g id="text_12">
      <!-- 0.08 -->
      <g transform="translate(48.494375 52.329434) scale(0.1 -0.1)">
       <use xlink:href="#DejaVuSans-30"/>
       <use xlink:href="#DejaVuSans-2e" x="63.623047"/>
       <use xlink:href="#DejaVuSans-30" x="95.410156"/>
       <use xlink:href="#DejaVuSans-38" x="159.033203"/>
      </g>
     </g>
    </g>
    <g id="text_13">
     <!-- $B(100, 0.75)$ -->
     <g transform="translate(42.414687 125.96) rotate(-90) scale(0.1 -0.1)">
      <defs>
       <path id="DejaVuSans-Oblique-42" d="M 1081 4666 
L 2694 4666 
Q 3350 4666 3675 4422 
Q 4000 4178 4000 3688 
Q 4000 3238 3720 2911 
Q 3441 2584 2988 2516 
Q 3375 2428 3569 2181 
Q 3763 1934 3763 1522 
Q 3763 819 3242 409 
Q 2722 0 1819 0 
L 172 0 
L 1081 4666 
z
M 1234 2228 
L 903 519 
L 1919 519 
Q 2491 519 2800 781 
Q 3109 1044 3109 1522 
Q 3109 1891 2904 2059 
Q 2700 2228 2247 2228 
L 1234 2228 
z
M 1606 4147 
L 1331 2741 
L 2272 2741 
Q 2775 2741 3058 2959 
Q 3341 3178 3341 3566 
Q 3341 3869 3150 4008 
Q 2959 4147 2541 4147 
L 1606 4147 
z
" transform="scale(0.015625)"/>
       <path id="DejaVuSans-28" d="M 1984 4856 
Q 1566 4138 1362 3434 
Q 1159 2731 1159 2009 
Q 1159 1288 1364 580 
Q 1569 -128 1984 -844 
L 1484 -844 
Q 1016 -109 783 600 
Q 550 1309 550 2009 
Q 550 2706 781 3412 
Q 1013 4119 1484 4856 
L 1984 4856 
z
" transform="scale(0.015625)"/>
       <path id="DejaVuSans-2c" d="M 750 794 
L 1409 794 
L 1409 256 
L 897 -744 
L 494 -744 
L 750 256 
L 750 794 
z
" transform="scale(0.015625)"/>
       <path id="DejaVuSans-37" d="M 525 4666 
L 3525 4666 
L 3525 4397 
L 1831 0 
L 1172 0 
L 2766 4134 
L 525 4134 
L 525 4666 
z
" transform="scale(0.015625)"/>
       <path id="DejaVuSans-35" d="M 691 4666 
L 3169 4666 
L 3169 4134 
L 1269 4134 
L 1269 2991 
Q 1406 3038 1543 3061 
Q 1681 3084 1819 3084 
Q 2600 3084 3056 2656 
Q 3513 2228 3513 1497 
Q 3513 744 3044 326 
Q 2575 -91 1722 -91 
Q 1428 -91 1123 -41 
Q 819 9 494 109 
L 494 744 
Q 775 591 1075 516 
Q 1375 441 1709 441 
Q 2250 441 2565 725 
Q 2881 1009 2881 1497 
Q 2881 1984 2565 2268 
Q 2250 2553 1709 2553 
Q 1456 2553 1204 2497 
Q 953 2441 691 2322 
L 691 4666 
z
" transform="scale(0.015625)"/>
       <path id="DejaVuSans-29" d="M 513 4856 
L 1013 4856 
Q 1481 4119 1714 3412 
Q 1947 2706 1947 2009 
Q 1947 1309 1714 600 
Q 1481 -109 1013 -844 
L 513 -844 
Q 928 -128 1133 580 
Q 1338 1288 1338 2009 
Q 1338 2731 1133 3434 
Q 928 4138 513 4856 
z
" transform="scale(0.015625)"/>
      </defs>
      <use xlink:href="#DejaVuSans-Oblique-42" transform="translate(0 0.125)"/>
      <use xlink:href="#DejaVuSans-28" transform="translate(68.603516 0.125)"/>
      <use xlink:href="#DejaVuSans-31" transform="translate(107.617188 0.125)"/>
      <use xlink:href="#DejaVuSans-30" transform="translate(171.240234 0.125)"/>
      <use xlink:href="#DejaVuSans-30" transform="translate(234.863281 0.125)"/>
      <use xlink:href="#DejaVuSans-2c" transform="translate(298.486328 0.125)"/>
      <use xlink:href="#DejaVuSans-30" transform="translate(349.755859 0.125)"/>
      <use xlink:href="#DejaVuSans-2e" transform="translate(413.378906 0.125)"/>
      <use xlink:href="#DejaVuSans-37" transform="translate(437.416016 0.125)"/>
      <use xlink:href="#DejaVuSans-35" transform="translate(501.039062 0.125)"/>
      <use xlink:href="#DejaVuSans-29" transform="translate(564.662109 0.125)"/>
     </g>
    </g>
   </g>
   <g id="patch_104">
    <path d="M 77.76 167.328 
L 77.76 24.192 
" style="fill: none; stroke: #000000; stroke-width: 0.8; stroke-linejoin: miter; stroke-linecap: square"/>
   </g>
   <g id="patch_105">
    <path d="M 276.48 167.328 
L 276.48 24.192 
" style="fill: none; stroke: #000000; stroke-width: 0.8; stroke-linejoin: miter; stroke-linecap: square"/>
   </g>
   <g id="patch_106">
    <path d="M 77.76 167.328 
L 276.48 167.328 
" style="fill: none; stroke: #000000; stroke-width: 0.8; stroke-linejoin: miter; stroke-linecap: square"/>
   </g>
   <g id="patch_107">
    <path d="M 77.76 24.192 
L 276.48 24.192 
" style="fill: none; stroke: #000000; stroke-width: 0.8; stroke-linejoin: miter; stroke-linecap: square"/>
   </g>
  </g>
 </g>
 <defs>
  <clipPath id="pecb4b64243">
   <rect x="77.76" y="24.192" width="198.72" height="143.136"/>
  </clipPath>
 </defs>
</svg>
