<?xml version="1.0" encoding="utf-8" standalone="no"?>
<!DOCTYPE svg PUBLIC "-//W3C//DTD SVG 1.1//EN"
  "http://www.w3.org/Graphics/SVG/1.1/DTD/svg11.dtd">
<svg xmlns:xlink="http://www.w3.org/1999/xlink" width="360pt" height="252pt" viewBox="0 0 360 252" xmlns="http://www.w3.org/2000/svg" version="1.1">
 <metadata>
  <rdf:RDF xmlns:dc="http://purl.org/dc/elements/1.1/" xmlns:cc="http://creativecommons.org/ns#" xmlns:rdf="http://www.w3.org/1999/02/22-rdf-syntax-ns#">
   <cc:Work>
    <dc:type rdf:resource="http://purl.org/dc/dcmitype/StillImage"/>
    <dc:date>2024-01-09T11:32:15.856138</dc:date>
    <dc:format>image/svg+xml</dc:format>
    <dc:creator>
     <cc:Agent>
      <dc:title>Matplotlib v3.8.0, https://matplotlib.org/</dc:title>
     </cc:Agent>
    </dc:creator>
   </cc:Work>
  </rdf:RDF>
 </metadata>
 <defs>
  <style type="text/css">*{stroke-linejoin: round; stroke-linecap: butt}</style>
 </defs>
 <g id="figure_1">
  <g id="patch_1">
   <path d="M 0 252 
L 360 252 
L 360 0 
L 0 0 
z
" style="fill: #ffffff"/>
  </g>
  <g id="axes_1">
   <g id="patch_2">
    <path d="M 45 224.28 
L 324 224.28 
L 324 30.24 
L 45 30.24 
z
" style="fill: #ffffff"/>
   </g>
   <g id="PolyCollection_1">
    <path d="M 86.173607 91.196459 
L 86.173607 127.26 
L 86.957084 127.26 
L 87.740561 127.26 
L 88.524038 127.26 
L 89.307516 127.26 
L 90.090993 127.26 
L 90.87447 127.26 
L 91.657947 127.26 
L 92.441425 127.26 
L 93.224902 127.26 
L 94.008379 127.26 
L 94.791856 127.26 
L 95.575334 127.26 
L 96.358811 127.26 
L 97.142288 127.26 
L 97.925765 127.26 
L 98.709242 127.26 
L 99.49272 127.26 
L 100.276197 127.26 
L 101.059674 127.26 
L 101.843151 127.26 
L 102.626629 127.26 
L 103.410106 127.26 
L 104.193583 127.26 
L 104.97706 127.26 
L 105.760538 127.26 
L 106.544015 127.26 
L 107.327492 127.26 
L 108.110969 127.26 
L 108.894447 127.26 
L 109.677924 127.26 
L 110.461401 127.26 
L 111.244878 127.26 
L 112.028356 127.26 
L 112.811833 127.26 
L 113.59531 127.26 
L 114.378787 127.26 
L 115.162264 127.26 
L 115.945742 127.26 
L 116.729219 127.26 
L 117.512696 127.26 
L 118.296173 127.26 
L 119.079651 127.26 
L 119.863128 127.26 
L 120.646605 127.26 
L 121.430082 127.26 
L 122.21356 127.26 
L 122.997037 127.26 
L 123.780514 127.26 
L 124.563991 127.26 
L 125.347469 127.26 
L 126.130946 127.26 
L 126.914423 127.26 
L 127.6979 127.26 
L 128.481378 127.26 
L 129.264855 127.26 
L 130.048332 127.26 
L 130.831809 127.26 
L 131.615286 127.26 
L 132.398764 127.26 
L 133.182241 127.26 
L 133.965718 127.26 
L 134.749195 127.26 
L 135.532673 127.26 
L 136.31615 127.26 
L 137.099627 127.26 
L 137.883104 127.26 
L 138.666582 127.26 
L 139.450059 127.26 
L 140.233536 127.26 
L 141.017013 127.26 
L 141.800491 127.26 
L 142.583968 127.26 
L 143.367445 127.26 
L 144.150922 127.26 
L 144.934399 127.26 
L 145.717877 127.26 
L 146.501354 127.26 
L 147.284831 127.26 
L 148.068308 127.26 
L 148.851786 127.26 
L 149.635263 127.26 
L 150.41874 127.26 
L 151.202217 127.26 
L 151.985695 127.26 
L 152.769172 127.26 
L 153.552649 127.26 
L 154.336126 127.26 
L 155.119604 127.26 
L 155.903081 127.26 
L 156.686558 127.26 
L 157.470035 127.26 
L 158.253513 127.26 
L 159.03699 127.26 
L 159.820467 127.26 
L 160.603944 127.26 
L 161.387421 127.26 
L 162.170899 127.26 
L 162.954376 127.26 
L 163.737853 127.26 
L 164.52133 127.26 
L 165.304808 127.26 
L 166.088285 127.26 
L 166.871762 127.26 
L 167.655239 127.26 
L 168.438717 127.26 
L 169.222194 127.26 
L 170.005671 127.26 
L 170.789148 127.26 
L 171.572626 127.26 
L 172.356103 127.26 
L 173.13958 127.26 
L 173.923057 127.26 
L 174.706535 127.26 
L 175.490012 127.26 
L 176.273489 127.26 
L 177.056966 127.26 
L 177.840443 127.26 
L 178.623921 127.26 
L 179.407398 127.26 
L 180.190875 127.26 
L 180.974352 127.26 
L 181.75783 127.26 
L 182.541307 127.26 
L 183.324784 127.26 
L 184.108261 127.26 
L 184.108261 126.475869 
L 184.108261 126.475869 
L 183.324784 124.907953 
L 182.541307 123.341076 
L 181.75783 121.77593 
L 180.974352 120.213205 
L 180.190875 118.653591 
L 179.407398 117.097778 
L 178.623921 115.546453 
L 177.840443 114.000299 
L 177.056966 112.460001 
L 176.273489 110.926238 
L 175.490012 109.399688 
L 174.706535 107.881024 
L 173.923057 106.370918 
L 173.13958 104.870035 
L 172.356103 103.379039 
L 171.572626 101.898589 
L 170.789148 100.429337 
L 170.005671 98.971933 
L 169.222194 97.52702 
L 168.438717 96.095237 
L 167.655239 94.677215 
L 166.871762 93.27358 
L 166.088285 91.884953 
L 165.304808 90.511947 
L 164.52133 89.155167 
L 163.737853 87.815214 
L 162.954376 86.492678 
L 162.170899 85.188144 
L 161.387421 83.902188 
L 160.603944 82.635377 
L 159.820467 81.388271 
L 159.03699 80.161421 
L 158.253513 78.955369 
L 157.470035 77.770646 
L 156.686558 76.607776 
L 155.903081 75.467273 
L 155.119604 74.349641 
L 154.336126 73.255372 
L 153.552649 72.184949 
L 152.769172 71.138847 
L 151.985695 70.117526 
L 151.202217 69.121437 
L 150.41874 68.151021 
L 149.635263 67.206706 
L 148.851786 66.288908 
L 148.068308 65.398034 
L 147.284831 64.534476 
L 146.501354 63.698616 
L 145.717877 62.890823 
L 144.934399 62.111454 
L 144.150922 61.360852 
L 143.367445 60.63935 
L 142.583968 59.947265 
L 141.800491 59.284904 
L 141.017013 58.652558 
L 140.233536 58.050508 
L 139.450059 57.479019 
L 138.666582 56.938343 
L 137.883104 56.428719 
L 137.099627 55.950372 
L 136.31615 55.503513 
L 135.532673 55.08834 
L 134.749195 54.705037 
L 133.965718 54.353771 
L 133.182241 54.034699 
L 132.398764 53.74796 
L 131.615286 53.493683 
L 130.831809 53.271979 
L 130.048332 53.082946 
L 129.264855 52.926667 
L 128.481378 52.803212 
L 127.6979 52.712635 
L 126.914423 52.654976 
L 126.130946 52.630261 
L 125.347469 52.638499 
L 124.563991 52.679689 
L 123.780514 52.753811 
L 122.997037 52.860833 
L 122.21356 53.000708 
L 121.430082 53.173373 
L 120.646605 53.378753 
L 119.863128 53.616757 
L 119.079651 53.887279 
L 118.296173 54.190201 
L 117.512696 54.525389 
L 116.729219 54.892694 
L 115.945742 55.291954 
L 115.162264 55.722994 
L 114.378787 56.185622 
L 113.59531 56.679635 
L 112.811833 57.204814 
L 112.028356 57.760927 
L 111.244878 58.347729 
L 110.461401 58.964961 
L 109.677924 59.61235 
L 108.894447 60.289611 
L 108.110969 60.996443 
L 107.327492 61.732536 
L 106.544015 62.497564 
L 105.760538 63.291189 
L 104.97706 64.113061 
L 104.193583 64.962817 
L 103.410106 65.840081 
L 102.626629 66.744467 
L 101.843151 67.675575 
L 101.059674 68.632993 
L 100.276197 69.6163 
L 99.49272 70.62506 
L 98.709242 71.658829 
L 97.925765 72.71715 
L 97.142288 73.799555 
L 96.358811 74.905567 
L 95.575334 76.034697 
L 94.791856 77.186447 
L 94.008379 78.360308 
L 93.224902 79.555762 
L 92.441425 80.77228 
L 91.657947 82.009326 
L 90.87447 83.266354 
L 90.090993 84.542808 
L 89.307516 85.838125 
L 88.524038 87.151732 
L 87.740561 88.48305 
L 86.957084 89.831491 
L 86.173607 91.196459 
z
" clip-path="url(#pd22972065a)" style="fill: #008000"/>
   </g>
   <g id="PolyCollection_2">
    <path d="M 184.891739 128.044131 
L 184.891739 127.26 
L 185.675216 127.26 
L 186.458693 127.26 
L 187.24217 127.26 
L 188.025648 127.26 
L 188.809125 127.26 
L 189.592602 127.26 
L 190.376079 127.26 
L 191.159557 127.26 
L 191.943034 127.26 
L 192.726511 127.26 
L 193.509988 127.26 
L 194.293465 127.26 
L 195.076943 127.26 
L 195.86042 127.26 
L 196.643897 127.26 
L 197.427374 127.26 
L 198.210852 127.26 
L 198.994329 127.26 
L 199.777806 127.26 
L 200.561283 127.26 
L 201.344761 127.26 
L 202.128238 127.26 
L 202.911715 127.26 
L 203.695192 127.26 
L 204.47867 127.26 
L 205.262147 127.26 
L 206.045624 127.26 
L 206.829101 127.26 
L 207.612579 127.26 
L 208.396056 127.26 
L 209.179533 127.26 
L 209.96301 127.26 
L 210.746487 127.26 
L 211.529965 127.26 
L 212.313442 127.26 
L 213.096919 127.26 
L 213.880396 127.26 
L 214.663874 127.26 
L 215.447351 127.26 
L 216.230828 127.26 
L 217.014305 127.26 
L 217.797783 127.26 
L 218.58126 127.26 
L 219.364737 127.26 
L 220.148214 127.26 
L 220.931692 127.26 
L 221.715169 127.26 
L 222.498646 127.26 
L 223.282123 127.26 
L 224.065601 127.26 
L 224.849078 127.26 
L 225.632555 127.26 
L 226.416032 127.26 
L 227.199509 127.26 
L 227.982987 127.26 
L 228.766464 127.26 
L 229.549941 127.26 
L 230.333418 127.26 
L 231.116896 127.26 
L 231.900373 127.26 
L 232.68385 127.26 
L 233.467327 127.26 
L 234.250805 127.26 
L 235.034282 127.26 
L 235.817759 127.26 
L 236.601236 127.26 
L 237.384714 127.26 
L 238.168191 127.26 
L 238.951668 127.26 
L 239.735145 127.26 
L 240.518622 127.26 
L 241.3021 127.26 
L 242.085577 127.26 
L 242.869054 127.26 
L 243.652531 127.26 
L 244.436009 127.26 
L 245.219486 127.26 
L 246.002963 127.26 
L 246.78644 127.26 
L 247.569918 127.26 
L 248.353395 127.26 
L 249.136872 127.26 
L 249.920349 127.26 
L 250.703827 127.26 
L 251.487304 127.26 
L 252.270781 127.26 
L 253.054258 127.26 
L 253.054258 199.228046 
L 253.054258 199.228046 
L 252.270781 199.627306 
L 251.487304 199.994611 
L 250.703827 200.329799 
L 249.920349 200.632721 
L 249.136872 200.903243 
L 248.353395 201.141247 
L 247.569918 201.346627 
L 246.78644 201.519292 
L 246.002963 201.659167 
L 245.219486 201.766189 
L 244.436009 201.840311 
L 243.652531 201.881501 
L 242.869054 201.889739 
L 242.085577 201.865024 
L 241.3021 201.807365 
L 240.518622 201.716788 
L 239.735145 201.593333 
L 238.951668 201.437054 
L 238.168191 201.248021 
L 237.384714 201.026317 
L 236.601236 200.77204 
L 235.817759 200.485301 
L 235.034282 200.166229 
L 234.250805 199.814963 
L 233.467327 199.43166 
L 232.68385 199.016487 
L 231.900373 198.569628 
L 231.116896 198.091281 
L 230.333418 197.581657 
L 229.549941 197.040981 
L 228.766464 196.469492 
L 227.982987 195.867442 
L 227.199509 195.235096 
L 226.416032 194.572735 
L 225.632555 193.88065 
L 224.849078 193.159148 
L 224.065601 192.408546 
L 223.282123 191.629177 
L 222.498646 190.821384 
L 221.715169 189.985524 
L 220.931692 189.121966 
L 220.148214 188.231092 
L 219.364737 187.313294 
L 218.58126 186.368979 
L 217.797783 185.398563 
L 217.014305 184.402474 
L 216.230828 183.381153 
L 215.447351 182.335051 
L 214.663874 181.264628 
L 213.880396 180.170359 
L 213.096919 179.052727 
L 212.313442 177.912224 
L 211.529965 176.749354 
L 210.746487 175.564631 
L 209.96301 174.358579 
L 209.179533 173.131729 
L 208.396056 171.884623 
L 207.612579 170.617812 
L 206.829101 169.331856 
L 206.045624 168.027322 
L 205.262147 166.704786 
L 204.47867 165.364833 
L 203.695192 164.008053 
L 202.911715 162.635047 
L 202.128238 161.24642 
L 201.344761 159.842785 
L 200.561283 158.424763 
L 199.777806 156.99298 
L 198.994329 155.548067 
L 198.210852 154.090663 
L 197.427374 152.621411 
L 196.643897 151.140961 
L 195.86042 149.649965 
L 195.076943 148.149082 
L 194.293465 146.638976 
L 193.509988 145.120312 
L 192.726511 143.593762 
L 191.943034 142.059999 
L 191.159557 140.519701 
L 190.376079 138.973547 
L 189.592602 137.422222 
L 188.809125 135.866409 
L 188.025648 134.306795 
L 187.24217 132.74407 
L 186.458693 131.178924 
L 185.675216 129.612047 
L 184.891739 128.044131 
z
" clip-path="url(#pd22972065a)" style="fill: #ff0000"/>
   </g>
   <g id="patch_3">
    <path d="M 317.444026 127.26 
L 305.358206 131.364692 
L 317.444026 127.297315 
L 63.641794 127.297315 
L 63.641794 127.222685 
L 317.444026 127.222685 
L 305.358206 123.155308 
z
" clip-path="url(#pd22972065a)" style="stroke: #000000; stroke-linejoin: miter"/>
   </g>
   <g id="patch_4">
    <path d="M 67.370153 36.956769 
L 73.413063 45.166154 
L 67.388795 36.956769 
L 67.388795 209.353846 
L 67.351511 209.353846 
L 67.351511 36.956769 
L 61.327243 45.166154 
z
" clip-path="url(#pd22972065a)" style="stroke: #000000; stroke-linejoin: miter"/>
   </g>
   <g id="matplotlib.axis_1">
    <g id="xtick_1">
     <g id="line2d_1">
      <defs>
       <path id="m82149ff2e0" d="M 0 0 
L 0 3.5 
" style="stroke: #000000; stroke-width: 0.8"/>
      </defs>
      <g>
       <use xlink:href="#m82149ff2e0" x="86.011947" y="224.28" style="stroke: #000000; stroke-width: 0.8"/>
      </g>
     </g>
     <g id="text_1">
      <!-- $a$ -->
      <g transform="translate(82.911947 238.878438) scale(0.1 -0.1)">
       <defs>
        <path id="DejaVuSans-Oblique-61" d="M 3438 1997 
L 3047 0 
L 2472 0 
L 2578 531 
Q 2325 219 2001 64 
Q 1678 -91 1281 -91 
Q 834 -91 548 182 
Q 263 456 263 884 
Q 263 1497 752 1853 
Q 1241 2209 2100 2209 
L 2900 2209 
L 2931 2363 
Q 2938 2388 2941 2417 
Q 2944 2447 2944 2509 
Q 2944 2788 2717 2942 
Q 2491 3097 2081 3097 
Q 1800 3097 1504 3025 
Q 1209 2953 897 2809 
L 997 3341 
Q 1322 3463 1633 3523 
Q 1944 3584 2234 3584 
Q 2853 3584 3176 3315 
Q 3500 3047 3500 2534 
Q 3500 2431 3484 2292 
Q 3469 2153 3438 1997 
z
M 2816 1759 
L 2241 1759 
Q 1534 1759 1195 1570 
Q 856 1381 856 984 
Q 856 709 1029 553 
Q 1203 397 1509 397 
Q 1978 397 2328 733 
Q 2678 1069 2791 1631 
L 2816 1759 
z
" transform="scale(0.015625)"/>
       </defs>
       <use xlink:href="#DejaVuSans-Oblique-61"/>
      </g>
     </g>
    </g>
    <g id="xtick_2">
     <g id="line2d_2">
      <g>
       <use xlink:href="#m82149ff2e0" x="253.788094" y="224.28" style="stroke: #000000; stroke-width: 0.8"/>
      </g>
     </g>
     <g id="text_2">
      <!-- $b$ -->
      <g transform="translate(250.588094 238.878438) scale(0.1 -0.1)">
       <defs>
        <path id="DejaVuSans-Oblique-62" d="M 3169 2138 
Q 3169 2591 2961 2847 
Q 2753 3103 2388 3103 
Q 2122 3103 1889 2973 
Q 1656 2844 1484 2597 
Q 1303 2338 1198 1995 
Q 1094 1653 1094 1313 
Q 1094 881 1298 636 
Q 1503 391 1863 391 
Q 2134 391 2365 517 
Q 2597 644 2772 891 
Q 2950 1147 3059 1487 
Q 3169 1828 3169 2138 
z
M 1381 2969 
Q 1594 3256 1914 3420 
Q 2234 3584 2584 3584 
Q 3122 3584 3439 3221 
Q 3756 2859 3756 2241 
Q 3756 1734 3570 1259 
Q 3384 784 3041 416 
Q 2816 172 2522 40 
Q 2228 -91 1906 -91 
Q 1566 -91 1316 65 
Q 1066 222 909 531 
L 806 0 
L 231 0 
L 1178 4863 
L 1753 4863 
L 1381 2969 
z
" transform="scale(0.015625)"/>
       </defs>
       <use xlink:href="#DejaVuSans-Oblique-62" transform="translate(0 0.015625)"/>
      </g>
     </g>
    </g>
   </g>
   <g id="matplotlib.axis_2"/>
   <g id="line2d_3">
    <path d="M 67.370153 127.26 
L 76.77188 108.639328 
L 82.25622 98.247875 
L 86.957084 89.831491 
L 90.87447 83.266354 
L 94.791856 77.186447 
L 97.925765 72.71715 
L 101.059674 68.632993 
L 104.193583 64.962817 
L 106.544015 62.497564 
L 108.894447 60.289611 
L 111.244878 58.347729 
L 113.59531 56.679635 
L 115.945742 55.291954 
L 118.296173 54.190201 
L 120.646605 53.378753 
L 122.997037 52.860833 
L 125.347469 52.638499 
L 127.6979 52.712635 
L 130.048332 53.082946 
L 132.398764 53.74796 
L 134.749195 54.705037 
L 137.099627 55.950372 
L 139.450059 57.479019 
L 141.800491 59.284904 
L 144.150922 61.360852 
L 146.501354 63.698616 
L 148.851786 66.288908 
L 151.985695 70.117526 
L 155.119604 74.349641 
L 158.253513 78.955369 
L 162.170899 85.188144 
L 166.088285 91.884953 
L 170.789148 100.429337 
L 176.273489 110.926238 
L 184.108261 126.475869 
L 194.293465 146.638976 
L 199.777806 156.99298 
L 204.47867 165.364833 
L 208.396056 171.884623 
L 212.313442 177.912224 
L 215.447351 182.335051 
L 218.58126 186.368979 
L 221.715169 189.985524 
L 224.065601 192.408546 
L 226.416032 194.572735 
L 228.766464 196.469492 
L 231.116896 198.091281 
L 233.467327 199.43166 
L 235.817759 200.485301 
L 238.168191 201.248021 
L 240.518622 201.716788 
L 242.869054 201.889739 
L 245.219486 201.766189 
L 247.569918 201.346627 
L 249.920349 200.632721 
L 252.270781 199.627306 
L 254.621213 198.334378 
L 256.971644 196.759073 
L 259.322076 194.90765 
L 261.672508 192.787464 
L 264.02294 190.406939 
L 267.156849 186.844425 
L 270.290758 182.861171 
L 273.424666 178.485303 
L 276.558575 173.74772 
L 280.475962 167.368268 
L 284.393348 160.54644 
L 289.094211 151.882545 
L 294.578552 141.290624 
L 301.629847 127.26 
L 301.629847 127.26 
" clip-path="url(#pd22972065a)" style="fill: none; stroke: #1f77b4; stroke-width: 2; stroke-linecap: square"/>
   </g>
   <g id="patch_5">
    <path d="M 45 224.28 
L 45 30.24 
" style="fill: none; stroke: #000000; stroke-width: 0.8; stroke-linejoin: miter; stroke-linecap: square"/>
   </g>
   <g id="patch_6">
    <path d="M 324 224.28 
L 324 30.24 
" style="fill: none; stroke: #000000; stroke-width: 0.8; stroke-linejoin: miter; stroke-linecap: square"/>
   </g>
   <g id="patch_7">
    <path d="M 45 224.28 
L 324 224.28 
" style="fill: none; stroke: #000000; stroke-width: 0.8; stroke-linejoin: miter; stroke-linecap: square"/>
   </g>
   <g id="patch_8">
    <path d="M 45 30.24 
L 324 30.24 
" style="fill: none; stroke: #000000; stroke-width: 0.8; stroke-linejoin: miter; stroke-linecap: square"/>
   </g>
   <g id="legend_1">
    <g id="patch_9">
     <path d="M 267.7 52.918125 
L 317 52.918125 
Q 319 52.918125 319 50.918125 
L 319 37.24 
Q 319 35.24 317 35.24 
L 267.7 35.24 
Q 265.7 35.24 265.7 37.24 
L 265.7 50.918125 
Q 265.7 52.918125 267.7 52.918125 
z
" style="fill: #ffffff; opacity: 0.8; stroke: #cccccc; stroke-linejoin: miter"/>
    </g>
    <g id="line2d_4">
     <path d="M 269.7 43.338437 
L 279.7 43.338437 
L 289.7 43.338437 
" style="fill: none; stroke: #1f77b4; stroke-width: 2; stroke-linecap: square"/>
    </g>
    <g id="text_3">
     <!-- $f(x)$ -->
     <g transform="translate(297.7 46.838437) scale(0.1 -0.1)">
      <defs>
       <path id="DejaVuSans-Oblique-66" d="M 3059 4863 
L 2969 4384 
L 2419 4384 
Q 2106 4384 1964 4261 
Q 1822 4138 1753 3809 
L 1691 3500 
L 2638 3500 
L 2553 3053 
L 1606 3053 
L 1013 0 
L 434 0 
L 1031 3053 
L 481 3053 
L 563 3500 
L 1113 3500 
L 1159 3744 
Q 1278 4363 1576 4613 
Q 1875 4863 2516 4863 
L 3059 4863 
z
" transform="scale(0.015625)"/>
       <path id="DejaVuSans-28" d="M 1984 4856 
Q 1566 4138 1362 3434 
Q 1159 2731 1159 2009 
Q 1159 1288 1364 580 
Q 1569 -128 1984 -844 
L 1484 -844 
Q 1016 -109 783 600 
Q 550 1309 550 2009 
Q 550 2706 781 3412 
Q 1013 4119 1484 4856 
L 1984 4856 
z
" transform="scale(0.015625)"/>
       <path id="DejaVuSans-Oblique-78" d="M 3841 3500 
L 2234 1784 
L 3219 0 
L 2559 0 
L 1819 1388 
L 531 0 
L -166 0 
L 1556 1844 
L 641 3500 
L 1300 3500 
L 1972 2234 
L 3144 3500 
L 3841 3500 
z
" transform="scale(0.015625)"/>
       <path id="DejaVuSans-29" d="M 513 4856 
L 1013 4856 
Q 1481 4119 1714 3412 
Q 1947 2706 1947 2009 
Q 1947 1309 1714 600 
Q 1481 -109 1013 -844 
L 513 -844 
Q 928 -128 1133 580 
Q 1338 1288 1338 2009 
Q 1338 2731 1133 3434 
Q 928 4138 513 4856 
z
" transform="scale(0.015625)"/>
      </defs>
      <use xlink:href="#DejaVuSans-Oblique-66" transform="translate(0 0.015625)"/>
      <use xlink:href="#DejaVuSans-28" transform="translate(35.205078 0.015625)"/>
      <use xlink:href="#DejaVuSans-Oblique-78" transform="translate(74.21875 0.015625)"/>
      <use xlink:href="#DejaVuSans-29" transform="translate(133.398438 0.015625)"/>
     </g>
    </g>
   </g>
  </g>
 </g>
 <defs>
  <clipPath id="pd22972065a">
   <rect x="45" y="30.24" width="279" height="194.04"/>
  </clipPath>
 </defs>
</svg>
