<?xml version="1.0" encoding="utf-8" standalone="no"?>
<!DOCTYPE svg PUBLIC "-//W3C//DTD SVG 1.1//EN"
  "http://www.w3.org/Graphics/SVG/1.1/DTD/svg11.dtd">
<svg xmlns:xlink="http://www.w3.org/1999/xlink" width="360pt" height="252pt" viewBox="0 0 360 252" xmlns="http://www.w3.org/2000/svg" version="1.1">
 <metadata>
  <rdf:RDF xmlns:dc="http://purl.org/dc/elements/1.1/" xmlns:cc="http://creativecommons.org/ns#" xmlns:rdf="http://www.w3.org/1999/02/22-rdf-syntax-ns#">
   <cc:Work>
    <dc:type rdf:resource="http://purl.org/dc/dcmitype/StillImage"/>
    <dc:date>2024-01-09T11:32:15.749131</dc:date>
    <dc:format>image/svg+xml</dc:format>
    <dc:creator>
     <cc:Agent>
      <dc:title>Matplotlib v3.8.0, https://matplotlib.org/</dc:title>
     </cc:Agent>
    </dc:creator>
   </cc:Work>
  </rdf:RDF>
 </metadata>
 <defs>
  <style type="text/css">*{stroke-linejoin: round; stroke-linecap: butt}</style>
 </defs>
 <g id="figure_1">
  <g id="patch_1">
   <path d="M 0 252 
L 360 252 
L 360 0 
L 0 0 
z
" style="fill: #ffffff"/>
  </g>
  <g id="axes_1">
   <g id="patch_2">
    <path d="M 45 224.28 
L 324 224.28 
L 324 30.24 
L 45 30.24 
z
" style="fill: #ffffff"/>
   </g>
   <g id="PolyCollection_1">
    <path d="M 109.012127 129.584853 
L 109.012127 196.56 
L 109.75585 196.56 
L 110.499573 196.56 
L 111.243295 196.56 
L 111.987018 196.56 
L 112.730741 196.56 
L 113.474464 196.56 
L 114.218187 196.56 
L 114.96191 196.56 
L 115.705633 196.56 
L 116.449356 196.56 
L 117.193079 196.56 
L 117.936801 196.56 
L 118.680524 196.56 
L 119.424247 196.56 
L 120.16797 196.56 
L 120.911693 196.56 
L 121.655416 196.56 
L 122.399139 196.56 
L 123.142862 196.56 
L 123.886585 196.56 
L 124.630307 196.56 
L 125.37403 196.56 
L 126.117753 196.56 
L 126.861476 196.56 
L 127.605199 196.56 
L 128.348922 196.56 
L 129.092645 196.56 
L 129.836368 196.56 
L 130.580091 196.56 
L 131.323813 196.56 
L 132.067536 196.56 
L 132.811259 196.56 
L 133.554982 196.56 
L 134.298705 196.56 
L 135.042428 196.56 
L 135.786151 196.56 
L 136.529874 196.56 
L 137.273597 196.56 
L 138.017319 196.56 
L 138.761042 196.56 
L 139.504765 196.56 
L 140.248488 196.56 
L 140.992211 196.56 
L 141.735934 196.56 
L 142.479657 196.56 
L 143.22338 196.56 
L 143.967103 196.56 
L 144.710825 196.56 
L 145.454548 196.56 
L 146.198271 196.56 
L 146.941994 196.56 
L 147.685717 196.56 
L 148.42944 196.56 
L 149.173163 196.56 
L 149.916886 196.56 
L 150.660609 196.56 
L 151.404331 196.56 
L 152.148054 196.56 
L 152.891777 196.56 
L 153.6355 196.56 
L 154.379223 196.56 
L 155.122946 196.56 
L 155.866669 196.56 
L 156.610392 196.56 
L 157.354115 196.56 
L 158.097837 196.56 
L 158.84156 196.56 
L 159.585283 196.56 
L 160.329006 196.56 
L 161.072729 196.56 
L 161.816452 196.56 
L 162.560175 196.56 
L 163.303898 196.56 
L 164.047621 196.56 
L 164.791343 196.56 
L 165.535066 196.56 
L 166.278789 196.56 
L 167.022512 196.56 
L 167.766235 196.56 
L 168.509958 196.56 
L 169.253681 196.56 
L 169.997404 196.56 
L 170.741127 196.56 
L 171.484849 196.56 
L 172.228572 196.56 
L 172.972295 196.56 
L 173.716018 196.56 
L 174.459741 196.56 
L 175.203464 196.56 
L 175.947187 196.56 
L 176.69091 196.56 
L 177.434633 196.56 
L 178.178355 196.56 
L 178.922078 196.56 
L 179.665801 196.56 
L 180.409524 196.56 
L 181.153247 196.56 
L 181.89697 196.56 
L 182.640693 196.56 
L 183.384416 196.56 
L 184.128139 196.56 
L 184.871861 196.56 
L 185.615584 196.56 
L 186.359307 196.56 
L 187.10303 196.56 
L 187.846753 196.56 
L 188.590476 196.56 
L 189.334199 196.56 
L 190.077922 196.56 
L 190.821645 196.56 
L 191.565367 196.56 
L 192.30909 196.56 
L 193.052813 196.56 
L 193.796536 196.56 
L 194.540259 196.56 
L 195.283982 196.56 
L 196.027705 196.56 
L 196.771428 196.56 
L 197.515151 196.56 
L 198.258873 196.56 
L 199.002596 196.56 
L 199.746319 196.56 
L 200.490042 196.56 
L 201.233765 196.56 
L 201.977488 196.56 
L 202.721211 196.56 
L 203.464934 196.56 
L 204.208657 196.56 
L 204.952379 196.56 
L 205.696102 196.56 
L 206.439825 196.56 
L 207.183548 196.56 
L 207.927271 196.56 
L 208.670994 196.56 
L 209.414717 196.56 
L 210.15844 196.56 
L 210.902163 196.56 
L 211.645885 196.56 
L 212.389608 196.56 
L 213.133331 196.56 
L 213.877054 196.56 
L 214.620777 196.56 
L 214.620777 70.320535 
L 214.620777 70.320535 
L 213.877054 69.726356 
L 213.133331 69.146179 
L 212.389608 68.580069 
L 211.645885 68.028086 
L 210.902163 67.490293 
L 210.15844 66.966749 
L 209.414717 66.457511 
L 208.670994 65.962636 
L 207.927271 65.482179 
L 207.183548 65.016192 
L 206.439825 64.564727 
L 205.696102 64.127833 
L 204.952379 63.70556 
L 204.208657 63.297953 
L 203.464934 62.905058 
L 202.721211 62.526918 
L 201.977488 62.163574 
L 201.233765 61.815068 
L 200.490042 61.481437 
L 199.746319 61.162717 
L 199.002596 60.858945 
L 198.258873 60.570154 
L 197.515151 60.296376 
L 196.771428 60.037641 
L 196.027705 59.793977 
L 195.283982 59.565412 
L 194.540259 59.35197 
L 193.796536 59.153675 
L 193.052813 58.97055 
L 192.30909 58.802614 
L 191.565367 58.649886 
L 190.821645 58.512382 
L 190.077922 58.390119 
L 189.334199 58.283109 
L 188.590476 58.191364 
L 187.846753 58.114894 
L 187.10303 58.053708 
L 186.359307 58.007813 
L 185.615584 57.977213 
L 184.871861 57.961913 
L 184.128139 57.961913 
L 183.384416 57.977213 
L 182.640693 58.007813 
L 181.89697 58.053708 
L 181.153247 58.114894 
L 180.409524 58.191364 
L 179.665801 58.283109 
L 178.922078 58.390119 
L 178.178355 58.512382 
L 177.434633 58.649886 
L 176.69091 58.802614 
L 175.947187 58.97055 
L 175.203464 59.153675 
L 174.459741 59.35197 
L 173.716018 59.565412 
L 172.972295 59.793977 
L 172.228572 60.037641 
L 171.484849 60.296376 
L 170.741127 60.570154 
L 169.997404 60.858945 
L 169.253681 61.162717 
L 168.509958 61.481437 
L 167.766235 61.815068 
L 167.022512 62.163574 
L 166.278789 62.526918 
L 165.535066 62.905058 
L 164.791343 63.297953 
L 164.047621 63.70556 
L 163.303898 64.127833 
L 162.560175 64.564727 
L 161.816452 65.016192 
L 161.072729 65.482179 
L 160.329006 65.962636 
L 159.585283 66.457511 
L 158.84156 66.966749 
L 158.097837 67.490293 
L 157.354115 68.028086 
L 156.610392 68.580069 
L 155.866669 69.146179 
L 155.122946 69.726356 
L 154.379223 70.320535 
L 153.6355 70.92865 
L 152.891777 71.550635 
L 152.148054 72.18642 
L 151.404331 72.835935 
L 150.660609 73.499109 
L 149.916886 74.175868 
L 149.173163 74.866138 
L 148.42944 75.569843 
L 147.685717 76.286904 
L 146.941994 77.017243 
L 146.198271 77.760779 
L 145.454548 78.51743 
L 144.710825 79.287113 
L 143.967103 80.069742 
L 143.22338 80.865231 
L 142.479657 81.673492 
L 141.735934 82.494436 
L 140.992211 83.327973 
L 140.248488 84.17401 
L 139.504765 85.032454 
L 138.761042 85.90321 
L 138.017319 86.786182 
L 137.273597 87.681273 
L 136.529874 88.588384 
L 135.786151 89.507414 
L 135.042428 90.438262 
L 134.298705 91.380826 
L 133.554982 92.335001 
L 132.811259 93.300683 
L 132.067536 94.277763 
L 131.323813 95.266135 
L 130.580091 96.26569 
L 129.836368 97.276317 
L 129.092645 98.297904 
L 128.348922 99.330339 
L 127.605199 100.373508 
L 126.861476 101.427295 
L 126.117753 102.491585 
L 125.37403 103.566259 
L 124.630307 104.6512 
L 123.886585 105.746286 
L 123.142862 106.851399 
L 122.399139 107.966415 
L 121.655416 109.091211 
L 120.911693 110.225663 
L 120.16797 111.369647 
L 119.424247 112.523035 
L 118.680524 113.6857 
L 117.936801 114.857515 
L 117.193079 116.038349 
L 116.449356 117.228072 
L 115.705633 118.426553 
L 114.96191 119.63366 
L 114.218187 120.849259 
L 113.474464 122.073217 
L 112.730741 123.305397 
L 111.987018 124.545665 
L 111.243295 125.793882 
L 110.499573 127.049912 
L 109.75585 128.313615 
L 109.012127 129.584853 
z
" clip-path="url(#p575800e8ba)" style="fill: #008000"/>
   </g>
   <g id="patch_3">
    <path d="M 314.591422 196.56 
L 302.764929 200.718 
L 314.591422 196.6293 
L 66.235071 196.6293 
L 66.235071 196.4907 
L 314.591422 196.4907 
L 302.764929 192.402 
z
" clip-path="url(#p575800e8ba)" style="stroke: #000000; stroke-linejoin: miter"/>
   </g>
   <g id="patch_4">
    <path d="M 73.313428 35.784 
L 79.226674 44.1 
L 73.34882 35.784 
L 73.34882 210.42 
L 73.278036 210.42 
L 73.278036 35.784 
L 67.400182 44.1 
z
" clip-path="url(#p575800e8ba)" style="stroke: #000000; stroke-linejoin: miter"/>
   </g>
   <g id="matplotlib.axis_1">
    <g id="xtick_1">
     <g id="line2d_1">
      <defs>
       <path id="mbccdbdc688" d="M 0 0 
L 0 3.5 
" style="stroke: #000000; stroke-width: 0.8"/>
      </defs>
      <g>
       <use xlink:href="#mbccdbdc688" x="108.705213" y="224.28" style="stroke: #000000; stroke-width: 0.8"/>
      </g>
     </g>
     <g id="text_1">
      <!-- $a$ -->
      <g transform="translate(105.605213 238.878438) scale(0.1 -0.1)">
       <defs>
        <path id="DejaVuSans-Oblique-61" d="M 3438 1997 
L 3047 0 
L 2472 0 
L 2578 531 
Q 2325 219 2001 64 
Q 1678 -91 1281 -91 
Q 834 -91 548 182 
Q 263 456 263 884 
Q 263 1497 752 1853 
Q 1241 2209 2100 2209 
L 2900 2209 
L 2931 2363 
Q 2938 2388 2941 2417 
Q 2944 2447 2944 2509 
Q 2944 2788 2717 2942 
Q 2491 3097 2081 3097 
Q 1800 3097 1504 3025 
Q 1209 2953 897 2809 
L 997 3341 
Q 1322 3463 1633 3523 
Q 1944 3584 2234 3584 
Q 2853 3584 3176 3315 
Q 3500 3047 3500 2534 
Q 3500 2431 3484 2292 
Q 3469 2153 3438 1997 
z
M 2816 1759 
L 2241 1759 
Q 1534 1759 1195 1570 
Q 856 1381 856 984 
Q 856 709 1029 553 
Q 1203 397 1509 397 
Q 1978 397 2328 733 
Q 2678 1069 2791 1631 
L 2816 1759 
z
" transform="scale(0.015625)"/>
       </defs>
       <use xlink:href="#DejaVuSans-Oblique-61"/>
      </g>
     </g>
    </g>
    <g id="xtick_2">
     <g id="line2d_2">
      <g>
       <use xlink:href="#mbccdbdc688" x="214.880568" y="224.28" style="stroke: #000000; stroke-width: 0.8"/>
      </g>
     </g>
     <g id="text_2">
      <!-- $b$ -->
      <g transform="translate(211.680568 238.878438) scale(0.1 -0.1)">
       <defs>
        <path id="DejaVuSans-Oblique-62" d="M 3169 2138 
Q 3169 2591 2961 2847 
Q 2753 3103 2388 3103 
Q 2122 3103 1889 2973 
Q 1656 2844 1484 2597 
Q 1303 2338 1198 1995 
Q 1094 1653 1094 1313 
Q 1094 881 1298 636 
Q 1503 391 1863 391 
Q 2134 391 2365 517 
Q 2597 644 2772 891 
Q 2950 1147 3059 1487 
Q 3169 1828 3169 2138 
z
M 1381 2969 
Q 1594 3256 1914 3420 
Q 2234 3584 2584 3584 
Q 3122 3584 3439 3221 
Q 3756 2859 3756 2241 
Q 3756 1734 3570 1259 
Q 3384 784 3041 416 
Q 2816 172 2522 40 
Q 2228 -91 1906 -91 
Q 1566 -91 1316 65 
Q 1066 222 909 531 
L 806 0 
L 231 0 
L 1178 4863 
L 1753 4863 
L 1381 2969 
z
" transform="scale(0.015625)"/>
       </defs>
       <use xlink:href="#DejaVuSans-Oblique-62" transform="translate(0 0.015625)"/>
      </g>
     </g>
    </g>
   </g>
   <g id="matplotlib.axis_2"/>
   <g id="line2d_3">
    <path d="M 73.313428 196.56 
L 88.187886 167.648484 
L 96.368838 152.209644 
L 103.062344 140.008974 
L 109.012127 129.584853 
L 114.96191 119.63366 
L 120.16797 111.369647 
L 124.630307 104.6512 
L 129.092645 98.297904 
L 133.554982 92.335001 
L 138.017319 86.786182 
L 141.735934 82.494436 
L 145.454548 78.51743 
L 149.173163 74.866138 
L 152.891777 71.550635 
L 156.610392 68.580069 
L 159.585283 66.457511 
L 162.560175 64.564727 
L 165.535066 62.905058 
L 168.509958 61.481437 
L 171.484849 60.296376 
L 174.459741 59.35197 
L 177.434633 58.649886 
L 180.409524 58.191364 
L 183.384416 57.977213 
L 186.359307 58.007813 
L 189.334199 58.283109 
L 192.30909 58.802614 
L 195.283982 59.565412 
L 198.258873 60.570154 
L 201.233765 61.815068 
L 204.208657 63.297953 
L 207.183548 65.016192 
L 210.15844 66.966749 
L 213.133331 69.146179 
L 216.851946 72.18642 
L 220.57056 75.569843 
L 224.289175 79.287113 
L 228.007789 83.327973 
L 231.726403 87.681273 
L 235.445018 92.335001 
L 239.907355 98.297904 
L 244.369693 104.6512 
L 248.83203 111.369647 
L 254.03809 119.63366 
L 259.24415 128.313615 
L 265.193933 138.682582 
L 271.887439 150.832416 
L 279.324668 164.806607 
L 288.993066 183.473094 
L 295.686572 196.56 
L 295.686572 196.56 
" clip-path="url(#p575800e8ba)" style="fill: none; stroke: #1f77b4; stroke-width: 2; stroke-linecap: square"/>
   </g>
   <g id="patch_5">
    <path d="M 45 224.28 
L 45 30.24 
" style="fill: none; stroke: #000000; stroke-width: 0.8; stroke-linejoin: miter; stroke-linecap: square"/>
   </g>
   <g id="patch_6">
    <path d="M 324 224.28 
L 324 30.24 
" style="fill: none; stroke: #000000; stroke-width: 0.8; stroke-linejoin: miter; stroke-linecap: square"/>
   </g>
   <g id="patch_7">
    <path d="M 45 224.28 
L 324 224.28 
" style="fill: none; stroke: #000000; stroke-width: 0.8; stroke-linejoin: miter; stroke-linecap: square"/>
   </g>
   <g id="patch_8">
    <path d="M 45 30.24 
L 324 30.24 
" style="fill: none; stroke: #000000; stroke-width: 0.8; stroke-linejoin: miter; stroke-linecap: square"/>
   </g>
   <g id="legend_1">
    <g id="patch_9">
     <path d="M 267.7 52.918125 
L 317 52.918125 
Q 319 52.918125 319 50.918125 
L 319 37.24 
Q 319 35.24 317 35.24 
L 267.7 35.24 
Q 265.7 35.24 265.7 37.24 
L 265.7 50.918125 
Q 265.7 52.918125 267.7 52.918125 
z
" style="fill: #ffffff; opacity: 0.8; stroke: #cccccc; stroke-linejoin: miter"/>
    </g>
    <g id="line2d_4">
     <path d="M 269.7 43.338437 
L 279.7 43.338437 
L 289.7 43.338437 
" style="fill: none; stroke: #1f77b4; stroke-width: 2; stroke-linecap: square"/>
    </g>
    <g id="text_3">
     <!-- $f(x)$ -->
     <g transform="translate(297.7 46.838437) scale(0.1 -0.1)">
      <defs>
       <path id="DejaVuSans-Oblique-66" d="M 3059 4863 
L 2969 4384 
L 2419 4384 
Q 2106 4384 1964 4261 
Q 1822 4138 1753 3809 
L 1691 3500 
L 2638 3500 
L 2553 3053 
L 1606 3053 
L 1013 0 
L 434 0 
L 1031 3053 
L 481 3053 
L 563 3500 
L 1113 3500 
L 1159 3744 
Q 1278 4363 1576 4613 
Q 1875 4863 2516 4863 
L 3059 4863 
z
" transform="scale(0.015625)"/>
       <path id="DejaVuSans-28" d="M 1984 4856 
Q 1566 4138 1362 3434 
Q 1159 2731 1159 2009 
Q 1159 1288 1364 580 
Q 1569 -128 1984 -844 
L 1484 -844 
Q 1016 -109 783 600 
Q 550 1309 550 2009 
Q 550 2706 781 3412 
Q 1013 4119 1484 4856 
L 1984 4856 
z
" transform="scale(0.015625)"/>
       <path id="DejaVuSans-Oblique-78" d="M 3841 3500 
L 2234 1784 
L 3219 0 
L 2559 0 
L 1819 1388 
L 531 0 
L -166 0 
L 1556 1844 
L 641 3500 
L 1300 3500 
L 1972 2234 
L 3144 3500 
L 3841 3500 
z
" transform="scale(0.015625)"/>
       <path id="DejaVuSans-29" d="M 513 4856 
L 1013 4856 
Q 1481 4119 1714 3412 
Q 1947 2706 1947 2009 
Q 1947 1309 1714 600 
Q 1481 -109 1013 -844 
L 513 -844 
Q 928 -128 1133 580 
Q 1338 1288 1338 2009 
Q 1338 2731 1133 3434 
Q 928 4138 513 4856 
z
" transform="scale(0.015625)"/>
      </defs>
      <use xlink:href="#DejaVuSans-Oblique-66" transform="translate(0 0.015625)"/>
      <use xlink:href="#DejaVuSans-28" transform="translate(35.205078 0.015625)"/>
      <use xlink:href="#DejaVuSans-Oblique-78" transform="translate(74.21875 0.015625)"/>
      <use xlink:href="#DejaVuSans-29" transform="translate(133.398438 0.015625)"/>
     </g>
    </g>
   </g>
  </g>
 </g>
 <defs>
  <clipPath id="p575800e8ba">
   <rect x="45" y="30.24" width="279" height="194.04"/>
  </clipPath>
 </defs>
</svg>
